<svg width="42" height="42" viewBox="0 0 42 42" fill="none" xmlns="http://www.w3.org/2000/svg">
<rect width="42" height="42" rx="21" fill="#222222"/>
<path d="M21.08 27.698C18.146 27.698 16.382 26.222 16.22 23.666H17.804C17.912 25.394 19.064 26.33 21.08 26.33C22.952 26.33 24.014 25.448 24.014 23.9C24.014 22.532 23.096 21.722 21.422 21.722H19.172V20.354H21.422C22.718 20.354 23.6 19.562 23.6 18.302C23.6 16.934 22.574 16.07 21.026 16.07C19.334 16.07 18.29 16.934 18.056 18.482H16.508C16.832 16.142 18.578 14.702 21.116 14.702C23.474 14.702 25.094 16.07 25.094 18.122C25.094 19.382 24.338 20.408 23.186 20.84V20.912C24.716 21.362 25.562 22.424 25.562 24.026C25.562 26.258 23.87 27.698 21.08 27.698Z" fill="white"/>
</svg>
