<svg width="324" height="44" viewBox="0 0 324 44" fill="none" xmlns="http://www.w3.org/2000/svg">
<g clip-path="url(#clip0_2500_3436)">
<path d="M254.229 0V44.0004H247.139L226.406 14.0294H226.041V44.0004H218.07V0H225.203L245.914 29.9924H246.301V0H254.229Z" fill="white"/>
<path d="M209.44 0V44.0004H201.469V0H209.44Z" fill="white"/>
<path d="M146.641 0H156.395L169.457 31.8831H169.973L183.035 0H192.789V44.0004H185.141V13.7716H184.733L172.572 43.8714H166.858L154.697 13.7071H154.289V44.0004H146.641V0Z" fill="white"/>
<path d="M108.516 44.0004H100.008L115.498 0H125.338L140.85 44.0004H132.342L120.59 9.02351H120.246L108.516 44.0004ZM108.795 26.7483H131.998V33.1507H108.795V26.7483Z" fill="white"/>
<path d="M66.3047 6.6817V0H101.41V6.6817H87.8107V44.0004H79.9044V6.6817H66.3047Z" fill="white"/>
<path d="M59.6075 0V44.0004H51.6367V0H59.6075Z" fill="white"/>
<path d="M13.7442 0L25.1955 34.6331H25.6467L37.0764 0H45.8421L30.3303 44.0004H20.4904L5 0H13.7442Z" fill="white"/>
</g>
<defs>
<clipPath id="clip0_2500_3436">
<rect width="324" height="44" fill="white"/>
</clipPath>
</defs>
</svg>
