<svg width="431" height="501" viewBox="0 0 431 501" fill="none" xmlns="http://www.w3.org/2000/svg">
<path d="M81.3264 63.7394L80.7011 62.959L81.3264 63.7394ZM116.832 499.925C116.833 500.477 116.387 500.926 115.834 500.927L106.834 500.947C106.282 500.948 105.833 500.502 105.832 499.949C105.831 499.397 106.277 498.948 106.83 498.947L114.83 498.929L114.812 490.929C114.811 490.377 115.257 489.928 115.81 489.927C116.362 489.926 116.811 490.373 116.812 490.925L116.832 499.925ZM429.527 54.6661L428.855 55.4066C404.253 33.0775 350.858 8.61727 286.886 3.13191C222.958 -2.34976 148.576 11.1287 81.9518 64.5197L81.3264 63.7394L80.7011 62.959C147.798 9.18973 222.716 -4.37786 287.057 1.13923C351.356 6.65263 405.2 31.2359 430.199 53.9256L429.527 54.6661ZM81.3264 63.7394L81.9518 64.5197C-15.9375 142.965 -44.8612 338.54 116.537 499.218L115.832 499.927L115.126 500.636C-46.9347 339.298 -18.3098 142.304 80.7011 62.959L81.3264 63.7394Z" fill="#222222" fill-opacity="0.4"/>
</svg>
