<svg width="60" height="60" viewBox="0 0 60 60" fill="none" xmlns="http://www.w3.org/2000/svg">
<mask id="mask0_2500_4781" style="mask-type:luminance" maskUnits="userSpaceOnUse" x="0" y="0" width="60" height="60">
<path d="M60 0H0V60H60V0Z" fill="white"/>
</mask>
<g mask="url(#mask0_2500_4781)">
<path d="M3.17969 30.1459C3.25904 29.9277 3.31854 29.7492 3.43757 29.5309C3.95331 28.182 5.2427 27.2497 6.71063 27.21C7.62311 27.1704 8.51577 27.21 9.42825 27.21C10.1225 27.21 10.4796 27.5671 10.4796 28.2613C10.4796 30.007 10.4796 31.713 10.4796 33.4387C10.4796 34.1727 10.1622 34.4901 9.42825 34.4901C8.59511 34.4901 7.76196 34.4901 6.92883 34.4901C5.14352 34.4901 3.85413 33.4785 3.2987 31.7725C3.25904 31.6932 3.21936 31.6336 3.19952 31.5145C3.17969 31.0584 3.17969 30.6219 3.17969 30.1459ZM8.65463 29.035C8.07936 29.035 7.52393 29.035 6.98834 29.035C6.84948 29.035 6.73046 29.035 6.5916 29.0746C5.75846 29.1739 5.10384 29.9079 5.02449 30.741C4.94516 31.6138 5.50058 32.4865 6.3734 32.5858C7.12719 32.685 7.90083 32.6254 8.65463 32.6254C8.65463 31.4154 8.65463 30.2649 8.65463 29.035Z" fill="#222222"/>
<path d="M32.9147 1.67969C33.5297 1.99707 34.2636 2.21528 34.7993 2.65169C35.5926 3.26661 35.9696 4.17911 35.9894 5.19078C36.0291 6.10328 35.9894 6.97608 35.9894 7.86875C35.9894 8.6027 35.672 8.92008 34.8984 8.95976C33.1925 8.95976 31.4865 8.95976 29.7806 8.95976C29.0465 8.95976 28.7292 8.64237 28.6895 7.86875C28.6895 7.07528 28.6895 6.24213 28.6895 5.44866C28.6895 3.66335 29.7012 2.33429 31.4072 1.81854C31.4865 1.77887 31.5459 1.73919 31.665 1.71935C32.0816 1.67969 32.4783 1.67969 32.9147 1.67969ZM30.5343 7.11495C31.8039 7.11495 32.9544 7.11495 34.1645 7.11495C34.1645 6.46034 34.2041 5.80572 34.1645 5.19078C34.0851 4.23861 33.2916 3.48482 32.3592 3.52449C31.4072 3.52449 30.6137 4.25846 30.5541 5.23046C30.4946 5.80572 30.5343 6.46034 30.5343 7.11495Z" fill="#222222"/>
<path d="M31.7644 59.9998C31.3281 59.8213 30.852 59.7022 30.4552 59.4642C29.3245 58.8096 28.7493 57.7582 28.6699 56.449C28.6303 55.5366 28.6699 54.6439 28.6699 53.7315C28.6699 53.0371 29.0269 52.7197 29.6817 52.7197C31.4272 52.7197 33.1729 52.7197 34.8987 52.7197C35.593 52.7197 35.9103 53.0767 35.9103 53.7315C35.9103 54.5248 35.9103 55.3581 35.9103 56.1514C35.9103 58.0756 34.8987 59.3848 33.0538 59.8807C32.9745 59.9205 32.9149 59.9601 32.8356 59.98C32.5183 59.9998 32.1612 59.9998 31.7644 59.9998ZM30.5346 54.5646C30.5346 55.2588 30.495 55.8738 30.5346 56.4888C30.5743 57.4012 31.3281 58.1154 32.2405 58.1947C33.153 58.2741 34.0456 57.6195 34.125 56.6673C34.2043 55.9729 34.125 55.2985 34.125 54.5646C32.9149 54.5646 31.7644 54.5646 30.5346 54.5646Z" fill="#222222"/>
<path d="M61.4988 31.4151C61.3203 31.8514 61.1814 32.3673 60.9236 32.764C60.269 33.855 59.2176 34.4302 57.948 34.47C57.0356 34.5096 56.1429 34.47 55.2305 34.47C54.5759 34.47 54.2188 34.1128 54.2188 33.4582C54.2188 31.7127 54.2188 29.967 54.2188 28.2412C54.2188 27.5469 54.5759 27.2295 55.2305 27.2295C56.0636 27.2295 56.8967 27.2295 57.7299 27.2295C59.535 27.2295 60.884 28.2412 61.3997 29.9868C61.4393 30.0861 61.479 30.205 61.4988 30.3042C61.4988 30.6613 61.4988 31.0183 61.4988 31.4151ZM56.0636 32.6449C56.7579 32.6449 57.4125 32.6847 58.0274 32.6449C58.94 32.5656 59.6144 31.8118 59.654 30.8994C59.6937 29.9868 58.9994 29.1141 58.0869 29.0545C57.4323 28.9752 56.738 29.0545 56.0636 29.0545C56.0636 30.2646 56.0636 31.4151 56.0636 32.6449Z" fill="#222222"/>
<path d="M13.2168 30.7999C13.2565 20.2468 21.8457 11.6773 32.3592 11.7169C42.9125 11.7566 51.5018 20.3857 51.4818 30.899C51.4422 41.4523 42.8132 50.0216 32.2998 49.982C21.7466 49.9225 13.197 41.3134 13.2168 30.7999ZM49.6371 30.8792C49.6371 21.3377 41.8809 13.5816 32.3394 13.5419C22.7979 13.5419 15.0417 21.2981 15.0021 30.8396C15.0021 40.381 22.7583 48.1372 32.2998 48.1769C41.8412 48.1769 49.6371 40.4207 49.6371 30.8792Z" fill="#222222"/>
<path d="M50.7684 9.17861C51.8991 9.21829 53.0099 9.8729 53.6646 11.2416C54.3192 12.6104 54.1804 13.9593 53.1886 15.1297C52.534 15.923 51.78 16.6174 51.0461 17.3117C50.6493 17.7083 50.1336 17.6687 49.7369 17.272C48.4673 16.0024 47.1978 14.7726 45.968 13.503C45.5315 13.0666 45.5315 12.5509 45.968 12.1343C46.6622 11.44 47.3168 10.7656 48.031 10.1109C48.626 9.47617 49.4592 9.15877 50.7684 9.17861ZM50.4312 15.3082C50.8676 14.8718 51.3437 14.4353 51.7405 13.9593C52.3951 13.2253 52.3157 12.1541 51.6611 11.4995C50.9667 10.8052 49.8758 10.7656 49.1617 11.4202C48.6856 11.8169 48.2492 12.293 47.8524 12.6897C48.7053 13.622 49.5584 14.4552 50.4312 15.3082Z" fill="#222222"/>
<path d="M14.2694 52.5214C12.7816 52.4421 11.651 51.7875 10.9963 50.4187C10.3417 49.05 10.5203 47.701 11.5121 46.5307C12.1667 45.777 12.8808 45.0826 13.6148 44.3883C14.0115 43.9917 14.5273 43.9917 14.924 44.3883C16.1935 45.6579 17.5028 46.9275 18.7327 48.1971C19.1294 48.5937 19.1294 49.1095 18.7327 49.5063C18.0383 50.2402 17.3639 50.9146 16.63 51.5692C16.015 52.2436 15.1819 52.5214 14.2694 52.5214ZM14.2694 46.3323C13.833 46.8084 13.3569 47.2449 12.9205 47.701C12.3056 48.3954 12.3849 49.4863 12.9998 50.1211C13.6148 50.7559 14.6661 50.875 15.4001 50.2996C15.9356 49.8633 16.3721 49.3276 16.8482 48.8517C15.9754 48.0384 15.1421 47.2051 14.2694 46.3323Z" fill="#222222"/>
<path d="M54.0003 49.328C53.9607 50.3794 53.2664 51.5101 51.9374 52.1647C50.5884 52.7797 49.2594 52.6408 48.089 51.6886C47.2956 51.034 46.6013 50.2802 45.9069 49.5463C45.5102 49.1495 45.5102 48.6338 45.9069 48.2371C47.1765 46.9675 48.4461 45.6583 49.7156 44.4284C50.1123 44.0317 50.6282 44.0317 51.0249 44.4284C51.7589 45.1226 52.4333 45.7972 53.0879 46.5311C53.7425 47.1659 54.0203 47.999 54.0003 49.328ZM47.8311 48.9313C48.2676 49.3678 48.704 49.8041 49.1403 50.2009C49.8743 50.8555 50.9852 50.8555 51.6398 50.1613C52.3341 49.5065 52.3737 48.376 51.7191 47.6618C51.3224 47.1857 50.8463 46.7492 50.4495 46.3129C49.5569 47.2055 48.7238 48.0386 47.8311 48.9313Z" fill="#222222"/>
<path d="M13.9107 9.17773C15.2795 9.17773 16.1324 9.49512 16.8069 10.1497C17.4615 10.7647 18.1161 11.4193 18.731 12.0739C19.2071 12.55 19.2071 13.0459 18.731 13.522C17.5011 14.7717 16.2713 16.0016 15.0414 17.2315C14.5653 17.7076 14.0892 17.7076 13.633 17.2711C12.899 16.5769 12.1651 15.9023 11.5501 15.1684C10.5781 13.9981 10.3798 12.669 11.0145 11.2804C11.6295 9.87201 12.7998 9.21739 13.9107 9.17773ZM16.8069 12.7483C16.3704 12.3119 15.9737 11.8755 15.4976 11.4788C14.7637 10.8242 13.6528 10.8242 12.9982 11.5185C12.3039 12.2127 12.2642 13.3038 12.9188 14.0179C13.3156 14.494 13.7917 14.9304 14.1884 15.3271C15.1208 14.4543 15.9539 13.6212 16.8069 12.7483Z" fill="#222222"/>
<path d="M33.2534 30.8792C33.2534 35.0053 33.2534 39.1115 33.2534 43.2376C33.2534 44.2492 32.9558 44.5468 31.9045 44.507C25.2394 44.4079 19.4669 39.0718 18.733 32.3869C17.9791 25.2853 22.5812 18.9376 29.5837 17.4895C30.3772 17.311 31.2499 17.2712 32.0434 17.2316C32.8765 17.1919 33.2138 17.5291 33.2138 18.4019C33.2534 22.528 33.2534 26.7136 33.2534 30.8792ZM31.3888 19.0565C25.1798 19.3739 20.2207 24.9283 20.4985 31.3553C20.7959 38.3578 26.6677 42.4441 31.3888 42.5632C31.3888 34.7474 31.3888 26.9317 31.3888 19.0565Z" fill="#222222"/>
</g>
</svg>
