<svg width="60" height="60" viewBox="0 0 60 60" fill="none" xmlns="http://www.w3.org/2000/svg">
<path d="M56.5907 24.0055C56.3207 23.5555 55.8706 23.5195 55.4925 23.5195C50.5782 23.5195 45.5918 23.5195 40.7493 23.5195H36.2128C35.5289 23.5195 35.0429 23.6995 34.7907 24.0595C34.5207 24.4375 34.5207 24.9597 34.7547 25.6437C35.7268 28.398 35.4028 30.9001 33.8187 33.1144C32.8105 34.5184 31.3524 35.3106 29.8224 35.3286H29.8042C28.2742 35.3286 26.8341 34.5364 25.826 33.1684C24.1878 30.9181 23.8638 28.362 24.908 25.5717C25.124 24.9777 25.106 24.4737 24.836 24.0955C24.5838 23.7355 24.1158 23.5375 23.5038 23.5375H17.1852C12.8649 23.5375 8.40047 23.5375 4.00809 23.5375C3.54005 23.5375 3.23402 23.6815 3.018 24.0235L3 24.0415V24.5097V24.5457V24.5637C3.25201 25.0137 3.68406 25.0497 4.08009 25.0497C8.7605 25.0497 13.4949 25.0497 18.1214 25.0497H23.4678L23.4498 25.1037C23.3958 25.2297 23.3598 25.3377 23.3238 25.4457C22.3157 28.632 22.7297 31.5123 24.5478 34.0144C25.844 35.8146 27.7521 36.8407 29.7863 36.8407C31.8206 36.8407 33.7287 35.7966 35.0429 33.9604C36.6269 31.7643 37.113 29.208 36.5009 26.3818C36.4289 26.0397 36.3209 25.7157 36.2128 25.3557C36.1768 25.2477 36.1409 25.1397 36.1228 25.0317H41.1273C45.8438 25.0317 50.7042 25.0317 55.4745 25.0317C55.9067 25.0317 56.3027 24.9957 56.5726 24.5277V24.5097L56.5907 24.0055Z" fill="#222222"/>
<path d="M20.9295 31.6921C20.9655 31.6921 21.0015 31.6921 21.0555 31.6921C21.1095 31.6921 21.1456 31.6921 21.1996 31.6921C21.2536 31.6921 21.3436 31.6921 21.4156 31.6201L21.4697 31.5841C21.6856 31.4041 21.9736 31.1879 21.9736 30.9359C21.9736 30.7019 21.7397 30.5039 21.5237 30.3239C21.4876 30.2879 21.4516 30.2699 21.4336 30.2339C21.3436 30.1619 21.2176 30.1619 21.0915 30.1799C21.0555 30.1799 21.0195 30.1799 20.9835 30.1799H18.2833C13.6029 30.1799 8.77849 30.1799 4.00809 30.1979C3.77406 30.1979 3.55804 30.3239 3.34203 30.4499C3.25201 30.5039 3.16202 30.5579 3.072 30.5939L3 30.6299V31.1339V31.1699L3.018 31.1879C3.27003 31.6201 3.68406 31.6741 4.04409 31.6741C8.32846 31.6741 12.7028 31.6741 16.9152 31.6741H20.9295V31.6921Z" fill="#222222"/>
<path d="M56.2848 30.4682C56.0868 30.3422 55.8708 30.2162 55.6548 30.2162C50.6144 30.1982 45.4659 30.1982 40.5155 30.1982H38.5893C38.2473 30.1982 37.9772 30.2882 37.8152 30.4502C37.6892 30.5762 37.6172 30.7384 37.6172 30.9544C37.6172 31.4224 37.9772 31.6924 38.5893 31.6924H43.7378C47.6261 31.6924 51.6584 31.6924 55.6188 31.6924C56.1048 31.6924 56.3928 31.5484 56.6088 31.1884L56.6268 31.1704V30.6484L56.5548 30.6124C56.4468 30.5762 56.3568 30.5222 56.2848 30.4682Z" fill="#222222"/>
<path d="M9.82285 35.3105H9.78685C8.40073 35.3105 7.19463 36.4805 7.17663 37.8847C7.15861 38.6047 7.42864 39.2708 7.91469 39.7568C8.40073 40.2608 9.04878 40.531 9.75084 40.531H9.78685C11.209 40.531 12.3791 39.3788 12.3971 37.9747C12.4151 37.2727 12.145 36.6065 11.641 36.1025C11.173 35.6165 10.5069 35.3285 9.82285 35.3105ZM9.78685 36.8045C10.0749 36.8045 10.3629 36.9125 10.5789 37.1287C10.7949 37.3447 10.9209 37.6327 10.9209 37.9207C10.9209 38.2087 10.8129 38.4967 10.5969 38.7128C10.3809 38.9288 10.0929 39.0548 9.78685 39.0548C9.48082 39.0548 9.19279 38.9288 8.99478 38.7308C8.77876 38.5147 8.67075 38.2267 8.67075 37.9207C8.67075 37.3087 9.17479 36.8045 9.78685 36.8045Z" fill="#222222"/>
<path d="M36.5001 35.3105H36.4821C35.0599 35.3105 33.8899 36.4625 33.8719 37.8847C33.8539 38.5867 34.1239 39.2348 34.6099 39.7388C35.0959 40.2428 35.7621 40.531 36.4641 40.531H36.4821C37.9042 40.531 39.0744 39.3788 39.0924 37.9747C39.0924 37.2727 38.8222 36.5885 38.3362 36.0845C37.8502 35.5985 37.2022 35.3285 36.5001 35.3105ZM37.5982 37.9207C37.5982 38.2267 37.4902 38.5147 37.2742 38.7128C37.0581 38.9288 36.7701 39.0368 36.4641 39.0368C36.1581 39.0368 35.8701 38.9108 35.6541 38.6947C35.4381 38.4787 35.3299 38.1907 35.3299 37.9027C35.3299 37.3087 35.8521 36.7865 36.4461 36.7865H36.4641C36.7521 36.7865 37.0221 36.8945 37.2382 37.1107C37.4722 37.3447 37.5982 37.6327 37.5982 37.9207Z" fill="#222222"/>
<path d="M49.8399 35.3105C48.3999 35.3105 47.2298 36.4805 47.2118 37.9027C47.1938 38.5867 47.4638 39.2528 47.9498 39.7568C48.4539 40.2608 49.1199 40.549 49.8399 40.549C51.2621 40.549 52.4322 39.3968 52.4502 37.9747C52.4502 37.2547 52.1802 36.5885 51.6761 36.0845C51.1721 35.5805 50.5241 35.3105 49.8399 35.3105ZM50.9561 37.9207C50.9561 38.2267 50.8481 38.5147 50.6321 38.7308C50.4161 38.9468 50.1461 39.0548 49.8219 39.0548C49.8219 39.0548 49.8219 39.0548 49.8039 39.0548C49.4979 39.0548 49.2279 38.9288 49.0119 38.7128C48.7959 38.4967 48.6879 38.2267 48.6879 37.9207C48.6879 37.3267 49.1919 36.8045 49.7859 36.8045H49.8039C50.0921 36.8045 50.3621 36.9125 50.5781 37.1287C50.8121 37.3267 50.9381 37.6147 50.9561 37.9207Z" fill="#222222"/>
<path d="M23.1628 35.3105H23.1268C21.7406 35.3105 20.5345 36.4805 20.5165 37.8847C20.4985 38.5867 20.7685 39.2528 21.2546 39.7568C21.7406 40.2608 22.4066 40.549 23.1088 40.549H23.1448C24.5669 40.549 25.7369 39.3968 25.7549 37.9927C25.7729 37.2907 25.5029 36.6245 24.9989 36.1025C24.5129 35.5985 23.8648 35.3285 23.1628 35.3105ZM23.9368 38.7308C23.7208 38.9468 23.4328 39.0548 23.1268 39.0548C22.8208 39.0548 22.5328 38.9288 22.3166 38.7128C22.1006 38.4967 21.9926 38.2087 21.9926 37.9207C22.0106 37.3267 22.5146 36.8225 23.1088 36.8045C23.1088 36.8045 23.1088 36.8045 23.1268 36.8045C23.4148 36.8045 23.7028 36.9125 23.9188 37.1287C24.1348 37.3447 24.2608 37.6327 24.2608 37.9387C24.2608 38.2267 24.1528 38.5147 23.9368 38.7308Z" fill="#222222"/>
<path d="M16.4657 41.665C15.0255 41.665 13.8555 42.8352 13.8555 44.2573C13.8555 44.9593 14.1255 45.6255 14.6115 46.1115C15.1155 46.6155 15.7637 46.8855 16.4837 46.8855C17.9238 46.8855 19.094 45.7155 19.094 44.2933C19.094 43.5913 18.824 42.9252 18.3198 42.4212C17.8158 41.9352 17.1678 41.665 16.4657 41.665ZM17.5998 44.2393C17.6178 44.5453 17.4918 44.8153 17.2938 45.0493C17.0778 45.2655 16.8077 45.3915 16.5017 45.4095C16.1957 45.4095 15.9077 45.3015 15.6917 45.0853C15.4757 44.8693 15.3497 44.5993 15.3497 44.2933C15.3497 43.6813 15.8357 43.1772 16.4297 43.1592C16.4477 43.1592 16.4657 43.1592 16.4657 43.1592C16.7537 43.1592 17.0238 43.2672 17.2218 43.4652C17.4558 43.6633 17.5818 43.9513 17.5998 44.2393Z" fill="#222222"/>
<path d="M29.8035 41.665C28.3634 41.665 27.1934 42.8352 27.1934 44.2753C27.1934 44.9773 27.4634 45.6255 27.9494 46.1295C28.4534 46.6335 29.1015 46.9035 29.8215 46.9035C31.2617 46.9035 32.4318 45.7335 32.4318 44.3113C32.4318 43.6093 32.1617 42.9432 31.6577 42.4392C31.1537 41.9352 30.4875 41.665 29.8035 41.665ZM30.9377 44.2753C30.9377 44.5813 30.8117 44.8513 30.6135 45.0673C30.4155 45.2835 30.1095 45.3915 29.8215 45.3915C29.8215 45.3915 29.8215 45.3915 29.8035 45.3915C29.2095 45.3915 28.7054 44.8873 28.6874 44.2933C28.6874 43.9873 28.7954 43.6993 29.0115 43.4832C29.2275 43.2672 29.5155 43.1412 29.8035 43.1412C30.0915 43.1412 30.3795 43.2672 30.5955 43.4652C30.8117 43.6993 30.9377 43.9873 30.9377 44.2753Z" fill="#222222"/>
<path d="M43.1079 41.6649C41.6858 41.6829 40.5156 42.8529 40.5156 44.2931C40.5156 44.9951 40.7856 45.6432 41.2898 46.1472C41.7938 46.6332 42.4418 46.9214 43.1619 46.9214C44.5659 46.9214 45.7541 45.7152 45.7541 44.2931C45.7541 43.5911 45.4661 42.9249 44.9621 42.4389C44.4759 41.9169 43.8099 41.6469 43.1079 41.6649ZM43.1439 45.3912C42.8378 45.3912 42.5678 45.2652 42.3518 45.0492C42.1358 44.8331 42.0278 44.5451 42.0278 44.2571C42.0278 43.6451 42.5318 43.1409 43.1259 43.1409H43.1439C43.4319 43.1409 43.7019 43.2489 43.9179 43.4651C44.1339 43.6811 44.2599 43.9691 44.2779 44.2571C44.2779 44.5631 44.1699 44.8331 43.9539 45.0492C43.7379 45.2652 43.4499 45.3912 43.1439 45.3912Z" fill="#222222"/>
<path d="M8.40081 18.1009C8.50883 18.1729 8.65283 18.1549 8.79684 18.1549C8.85084 18.1549 8.88686 18.1369 8.94086 18.1369H21.434L20.9478 18.6049C20.5338 19.0189 20.0838 19.4511 19.6698 19.8651C19.4178 20.1171 19.2917 20.3691 19.2917 20.6031C19.2917 20.7831 19.3818 20.9451 19.5438 21.0711C19.7058 21.1972 19.8678 21.2692 20.0298 21.2692C20.3178 21.2692 20.5518 21.0711 20.6958 20.9271C21.29 20.3331 21.902 19.7391 22.496 19.1449C22.8741 18.7669 23.2701 18.3889 23.6481 17.9929C24.0261 17.6328 24.0441 17.2008 23.7021 16.8588C22.694 15.8326 21.686 14.8426 20.5698 13.7445C20.3898 13.5645 20.1918 13.4745 19.9938 13.4925C19.8138 13.4925 19.6338 13.5825 19.4718 13.7625C19.2557 13.9965 19.0937 14.3926 19.5978 14.8786C20.0298 15.3106 20.4618 15.7246 20.8938 16.1568L21.38 16.6428H18.9317C15.6014 16.6428 12.2711 16.6428 8.95886 16.6428C8.92286 16.6428 8.86886 16.6428 8.81484 16.6428C8.63483 16.6248 8.45481 16.6248 8.3288 16.7148C8.1848 16.8408 7.84277 17.1468 7.84277 17.4528C7.82477 17.6868 8.05878 17.8669 8.40081 18.1009Z" fill="#222222"/>
<path d="M36.4844 18.5154C37.3124 19.3434 38.1225 20.1535 38.9505 20.9815C39.1665 21.1975 39.3645 21.3055 39.5805 21.3055C39.7427 21.3055 39.9227 21.2335 40.0667 21.1075C40.2287 20.9815 40.3007 20.8195 40.3187 20.6395C40.3367 20.4235 40.2287 20.1715 39.9947 19.9375C39.8507 19.7755 39.6887 19.6314 39.5445 19.4694L39.5266 19.4514C39.4546 19.3794 39.4006 19.3254 39.3286 19.2534L38.2125 18.1374H50.6696C50.7056 18.1374 50.7596 18.1374 50.8136 18.1554C50.9396 18.1734 51.0836 18.1914 51.2096 18.1014C51.5516 17.8672 51.7678 17.6872 51.7678 17.4712C51.7678 17.1472 51.4256 16.8412 51.2816 16.7332C51.1556 16.6252 50.9756 16.6432 50.7956 16.6612C50.7416 16.6612 50.6876 16.6612 50.6516 16.6612C47.3033 16.6612 43.937 16.6612 40.5887 16.6612H38.1945L38.6625 16.1931C39.0766 15.7791 39.5266 15.3651 39.9407 14.933C40.1927 14.681 40.3187 14.429 40.3007 14.195C40.3007 14.0149 40.2107 13.8529 40.0487 13.7089C39.4905 13.2409 39.0406 13.7089 38.8966 13.8529C38.2846 14.465 37.6544 15.0951 37.0604 15.7071L36.3944 16.3732C35.8902 16.8772 35.6562 17.1112 35.6562 17.3992C35.6562 17.6872 35.9082 17.9392 36.3944 18.4254L36.4844 18.5154Z" fill="#222222"/>
</svg>
