<svg width="60" height="60" viewBox="0 0 60 60" fill="none" xmlns="http://www.w3.org/2000/svg">
<path d="M30.0407 30.8498C37.6907 30.8498 45.3241 30.8498 52.9741 30.8498C53.0908 30.8498 53.2241 30.8498 53.3407 30.8498C54.0907 30.8498 54.4907 31.1665 54.4907 31.7164C54.4907 32.2831 54.0907 32.5831 53.3407 32.5831C37.7573 32.5831 22.1573 32.5831 6.57402 32.5831C6.45735 32.5831 6.32401 32.5831 6.20734 32.5831C5.77402 32.5165 5.45734 32.1497 5.49069 31.7164C5.52402 31.2497 5.74068 30.9664 6.20734 30.8665C6.39069 30.833 6.60735 30.833 6.80734 30.833C14.5407 30.8498 22.2907 30.8498 30.0407 30.8498Z" fill="#222222"/>
<path d="M36.9731 22.5334C36.9731 25.8167 35.1564 28.4666 32.4731 29.5C29.8565 30.5333 26.7897 29.8166 24.9064 27.7501C22.873 25.5334 22.3398 22.4333 23.6898 19.7833C25.0898 17 26.5898 14.2833 28.0565 11.5333C28.4064 10.85 28.7397 10.1667 29.1564 9.53334C29.3064 9.28334 29.6898 9 29.9397 9C30.2231 9 30.6231 9.28334 30.7898 9.53334C32.6397 12.9333 34.4397 16.3499 36.2231 19.75C36.7565 20.75 36.9731 21.8167 36.9731 22.5334ZM30.0065 11.8167C29.9397 11.85 29.9064 11.8833 29.8898 11.8833C28.3232 14.8167 26.7065 17.7167 25.2065 20.7167C24.2064 22.7167 24.7065 25.0834 26.2731 26.6833C27.8064 28.2167 30.0564 28.6501 32.023 27.8C34.8397 26.6167 36.0564 23.2333 34.6231 20.4667C33.1565 17.6666 31.6231 14.8833 30.1231 12.0667C30.1231 11.9833 30.0731 11.8833 30.0065 11.8167Z" fill="#222222"/>
<path d="M8.99077 36.1167C10.9241 36.1167 12.4908 37.7168 12.4574 39.6501C12.4574 41.5502 10.8574 43.1168 8.92409 43.1168C7.02409 43.0835 5.45743 41.5167 5.49076 39.6168C5.45743 37.6502 7.04075 36.0834 8.99077 36.1167ZM8.99077 41.3667C9.9241 41.3667 10.7074 40.5501 10.7074 39.6168C10.7074 38.6835 9.9241 37.8668 8.95742 37.8668C7.99076 37.8668 7.17409 38.6835 7.20743 39.6501C7.24076 40.5834 8.04076 41.3667 8.99077 41.3667Z" fill="#222222"/>
<path d="M26.4732 39.6165C26.4732 41.5499 24.8732 43.1165 22.9398 43.0832C21.0065 43.0832 19.4399 41.4665 19.4732 39.5165C19.5065 37.6166 21.0732 36.0498 22.9733 36.0498C24.9066 36.1166 26.4732 37.6832 26.4732 39.6165ZM24.7232 39.5832C24.7232 38.6499 23.9066 37.8665 22.9733 37.8665C22.0398 37.8665 21.2232 38.6499 21.2232 39.6165C21.2232 40.5833 22.0398 41.3999 23.0066 41.3666C23.9399 41.3333 24.7232 40.5332 24.7232 39.5832Z" fill="#222222"/>
<path d="M36.9747 43.1171C35.0414 43.1171 33.4746 41.5505 33.4746 39.6171C33.4746 37.6838 35.0747 36.1172 37.008 36.1172C38.9079 36.1172 40.4747 37.6838 40.4747 39.5838C40.508 41.5338 38.9079 43.1171 36.9747 43.1171ZM36.9747 41.3672C37.908 41.3672 38.7246 40.5837 38.7246 39.6171C38.7246 38.6838 37.9413 37.8671 37.008 37.8671C36.0413 37.8671 35.2247 38.6504 35.2247 39.6504C35.258 40.5837 36.0413 41.3672 36.9747 41.3672Z" fill="#222222"/>
<path d="M54.4907 39.6168C54.4907 41.5502 52.8908 43.1168 50.9574 43.1168C49.0241 43.1168 47.4573 41.5167 47.4908 39.5834C47.4908 37.6835 49.0907 36.1167 50.9907 36.1167C52.9074 36.0834 54.4907 37.6835 54.4907 39.6168ZM52.7574 39.6168C52.7574 38.6834 51.9741 37.8668 51.0407 37.8335C50.1074 37.8002 49.2908 38.5835 49.2573 39.5168C49.224 40.4834 50.0408 41.3001 51.0074 41.3334C51.9407 41.3667 52.7241 40.5834 52.7574 39.6168Z" fill="#222222"/>
<path d="M15.9727 51.0001C14.0393 51.0001 12.4727 49.4333 12.4727 47.4999C12.4727 45.5667 14.0727 44 16.006 44C17.9059 44 19.4727 45.5668 19.506 47.4667C19.4727 49.4 17.9227 51.0001 15.9727 51.0001ZM15.9727 45.7501C15.006 45.7501 14.2227 46.5001 14.1893 47.4667C14.156 48.4001 14.9393 49.2167 15.8727 49.25C16.8393 49.2833 17.656 48.4667 17.6893 47.4999C17.7226 46.55 16.956 45.7501 15.9727 45.7501Z" fill="#222222"/>
<path d="M30.0079 51.0001C28.0745 51.0001 26.4746 49.4333 26.4746 47.4999C26.4746 45.5667 28.0412 44 29.9746 44C31.8746 44 33.4412 45.5668 33.4745 47.4667C33.508 49.4 31.9079 51.0001 30.0079 51.0001ZM29.9413 45.7501C28.9745 45.7501 28.2245 46.5666 28.2245 47.4999C28.2245 48.4334 29.008 49.25 29.9746 49.25C30.9413 49.25 31.7579 48.4334 31.7246 47.4667C31.6913 46.5001 30.9079 45.7168 29.9413 45.7501Z" fill="#222222"/>
<path d="M47.4727 47.4668C47.4727 49.4002 45.906 50.9669 43.9728 50.9669C42.0394 50.9669 40.4727 49.3669 40.4727 47.4335C40.4727 45.5335 42.0394 43.9669 43.9393 43.9336C45.906 43.9669 47.4727 45.5503 47.4727 47.4668ZM45.7227 47.4668C45.7227 46.5335 44.9061 45.7502 43.9728 45.7502C43.0393 45.7502 42.2227 46.5335 42.2227 47.5003C42.2227 48.4669 43.0393 49.2835 44.0061 49.2502C44.9727 49.2169 45.756 48.4336 45.7227 47.4668Z" fill="#222222"/>
<path d="M13.3566 28.2171C11.1066 28.2171 8.82329 28.2171 6.57328 28.2171C6.28994 28.2171 5.92328 28.1504 5.78995 27.9671C5.60662 27.7505 5.47328 27.3504 5.57329 27.1004C5.67328 26.8505 6.00662 26.5671 6.28994 26.5004C6.68995 26.4005 7.13995 26.4671 7.53995 26.4671C11.6566 26.4671 15.8233 26.4671 19.94 26.4671C20.09 26.4671 20.29 26.4671 20.44 26.4671C20.9399 26.5337 21.2567 26.8671 21.2233 27.3338C21.2233 27.8004 20.9066 28.1837 20.4067 28.1837C19.7567 28.2171 19.09 28.1837 18.44 28.1837C16.7233 28.2171 15.04 28.2171 13.3566 28.2171Z" fill="#222222"/>
<path d="M46.591 28.217C44.341 28.217 42.0577 28.217 39.8077 28.217C39.5244 28.217 39.1576 28.117 38.991 27.9337C38.841 27.7169 38.7411 27.2836 38.841 27.067C38.9577 26.8169 39.3411 26.567 39.6244 26.5336C40.2411 26.4337 40.9077 26.5003 41.5243 26.5003C45.3411 26.5003 49.141 26.5003 52.9578 26.5003C53.0743 26.5003 53.1744 26.5003 53.3077 26.5003C54.1243 26.5003 54.4911 26.7836 54.4911 27.367C54.4911 27.967 54.1243 28.2337 53.3077 28.2337C53.0577 28.2337 52.8411 28.2337 52.591 28.2337C50.5911 28.217 48.591 28.217 46.591 28.217Z" fill="#222222"/>
<path d="M15.9739 36.5668C16.6906 36.5668 17.2906 37.1836 17.2573 37.9168C17.224 38.6335 16.6074 39.2335 15.8907 39.2002C15.2073 39.1669 14.6406 38.5835 14.6406 37.8835C14.674 37.1168 15.2574 36.5335 15.9739 36.5668Z" fill="#222222"/>
<path d="M29.94 36.5664C30.6567 36.5664 31.2567 37.1664 31.29 37.8831C31.29 38.5998 30.69 39.1998 29.9733 39.1998C29.2899 39.1998 28.6899 38.5998 28.6566 37.9164C28.6399 37.1832 29.2233 36.5664 29.94 36.5664Z" fill="#222222"/>
<path d="M44.0074 36.5664C44.7241 36.5664 45.3241 37.1664 45.3241 37.8831C45.3241 38.5998 44.7075 39.1998 43.9741 39.1665C43.2907 39.1332 42.6907 38.5665 42.6907 37.8498C42.6574 37.1498 43.2907 36.5664 44.0074 36.5664Z" fill="#222222"/>
<path d="M10.2564 46.5826C10.2564 47.2993 9.65639 47.8993 8.93972 47.9326C8.22305 47.9326 7.62305 47.3326 7.62305 46.6159C7.62305 45.9326 8.18972 45.3326 8.90639 45.2992C9.63972 45.2825 10.2564 45.8659 10.2564 46.5826Z" fill="#222222"/>
<path d="M24.2916 46.5826C24.2916 47.2993 23.6916 47.8993 22.9749 47.9326C22.2582 47.9326 21.6582 47.3326 21.6582 46.6159C21.6582 45.9326 22.2249 45.3326 22.9416 45.2992C23.675 45.2825 24.2583 45.8659 24.2916 46.5826Z" fill="#222222"/>
<path d="M38.2915 46.6164C38.2915 47.3331 37.6915 47.9331 36.9749 47.9331C36.2582 47.9331 35.6582 47.3164 35.6582 46.5831C35.6582 45.8998 36.2582 45.2998 36.9415 45.2998C37.6915 45.2998 38.2915 45.8998 38.2915 46.6164Z" fill="#222222"/>
<path d="M50.9729 47.9339C50.2562 47.9339 49.6562 47.3173 49.6562 46.6172C49.6562 45.934 50.2563 45.334 50.9397 45.334C51.6564 45.334 52.2564 45.934 52.2896 46.6505C52.3063 47.3339 51.7229 47.9339 50.9729 47.9339Z" fill="#222222"/>
<path d="M29.7898 26.4668C28.0065 26.4002 26.4399 24.7502 26.4732 22.9669C26.4732 22.4335 26.7898 22.1002 27.2898 22.0669C27.8232 22.0334 28.1565 22.3502 28.2231 22.9168C28.3398 24.0668 28.8732 24.6335 29.9398 24.7669C30.5398 24.8335 30.8731 25.2002 30.8065 25.7335C30.7899 26.2168 30.4065 26.5001 29.7898 26.4668Z" fill="#222222"/>
</svg>
