<svg width="60" height="60" viewBox="0 0 60 60" fill="none" xmlns="http://www.w3.org/2000/svg">
<path d="M3.40951 19.4371C3.40951 18.8206 3.40951 18.2947 3.40951 17.7143C3.64525 17.7143 3.86286 17.7143 4.06233 17.7143C10.7173 17.7143 17.3905 17.7869 24.0456 17.6782C26.7837 17.6419 29.1411 19.8904 28.035 23.2088C27.8355 23.8073 27.5272 24.3875 27.1827 24.9316C25.5868 27.4159 24.5352 30.0815 24.1906 33.001C24.0637 34.0165 23.973 35.0501 24.0999 36.0475C24.3901 38.4229 26.403 40.3633 28.851 40.7984C30.7731 41.143 32.514 40.6897 34.0371 39.4747C35.778 38.0783 36.2131 36.2288 36.0318 34.0891C35.7417 30.7343 34.708 27.6697 32.8585 24.859C32.1694 23.8253 31.7523 22.7011 31.7704 21.4318C31.8067 19.4008 33.4387 17.7143 35.4697 17.7143C42.4693 17.6962 49.4688 17.7143 56.4684 17.7143C56.5228 17.7143 56.5771 17.7325 56.6679 17.7325C56.6679 18.2765 56.6679 18.8206 56.6679 19.4189C56.4502 19.4189 56.2507 19.4189 56.0332 19.4189C49.2693 19.4189 42.5055 19.4189 35.7235 19.4189C34.0915 19.4189 33.1305 20.7427 33.6019 22.1933C34.3998 21.8669 35.1796 21.4499 35.9956 21.2504C37.6276 20.8696 39.0783 21.3592 40.3114 22.4654C40.7284 22.828 41.0911 23.2451 41.5081 23.626C42.85 24.8953 44.7723 24.8953 46.1142 23.626C46.5493 23.227 46.9482 22.7737 47.3835 22.3928C49.1968 20.7971 51.9169 20.6339 53.7303 22.2115C54.9633 23.2814 56.0151 24.587 57.1575 25.802C56.8674 26.074 56.4684 26.4367 56.0332 26.8355C55.1446 25.9471 54.2199 25.0222 53.3131 24.0974C51.6267 22.411 49.777 22.3928 48.1087 24.0974C47.1477 25.0766 46.1322 25.9652 44.7178 26.2009C43.1401 26.4548 41.7439 26.074 40.5289 25.0222C40.0575 24.6052 39.6405 24.1337 39.1689 23.7166C37.8814 22.5379 35.9049 22.556 34.6899 23.771C34.5811 23.8798 34.5087 24.1699 34.5811 24.2788C34.962 25.004 35.379 25.7113 35.778 26.4367C38.226 26.0921 39.7855 26.9263 40.2933 28.8484C40.7829 30.7162 39.8218 32.2756 37.6458 33.1279C38.1354 35.9749 37.6819 38.6042 35.3428 40.6171C33.7288 42.0134 31.843 42.6662 29.7033 42.5936C25.7682 42.4667 21.1441 38.84 22.4316 33.0917C21.3073 32.7653 20.4189 32.1124 19.9654 30.9881C19.639 30.1903 19.6209 29.3924 19.9111 28.5764C20.5276 26.7992 22.1959 26.0014 24.3357 26.4548C24.7527 25.7113 25.188 24.9859 25.5868 24.2243C25.6413 24.1156 25.5325 23.8616 25.4236 23.7529C24.2269 22.5742 22.2684 22.5379 20.9991 23.6803C20.6182 24.0248 20.2557 24.4057 19.893 24.7684C17.8075 26.7631 14.8337 26.7812 12.7483 24.7865C12.4582 24.4963 12.168 24.2062 11.8779 23.9161C10.4091 22.4654 8.46879 22.4654 7.01809 23.8979C6.14769 24.7502 5.2954 25.6207 4.425 26.4728C4.29807 26.5999 4.17112 26.7086 4.02606 26.8537C3.62712 26.4548 3.24631 26.074 2.79297 25.6025C3.26445 25.1491 3.75405 24.6958 4.22553 24.2425C4.84207 23.6441 5.42235 23.0093 6.05701 22.4291C7.97917 20.6701 10.808 20.6521 12.7483 22.3747C13.1835 22.7555 13.5643 23.1725 13.9814 23.5715C15.3414 24.859 17.2636 24.859 18.6235 23.5715C18.9862 23.227 19.3308 22.8643 19.6935 22.5197C21.5431 20.779 24.1362 20.6158 26.1853 22.1027C26.2759 22.1572 26.3485 22.2296 26.4391 22.2841C26.9832 21.1778 26.2941 19.5095 24.6984 19.3826C24.4989 19.3645 24.2994 19.3826 24.0999 19.3826C17.445 19.3826 10.7718 19.3826 4.11673 19.3826C3.86286 19.4371 3.66339 19.4371 3.40951 19.4371ZM23.5741 28.1231C22.6129 27.8692 21.7426 28.3769 21.4887 29.3198C21.253 30.2084 21.7608 31.0789 22.6492 31.3327C22.9575 30.281 23.2657 29.2292 23.5741 28.1231ZM37.3918 31.3327C38.3892 31.0063 38.8788 29.9908 38.4799 29.0842C38.1172 28.25 37.1562 27.7966 36.4671 28.1774C36.7935 29.2292 37.0836 30.281 37.3918 31.3327Z" fill="#222222"/>
<path d="M30.029 38.3495C27.6535 38.3495 25.8764 36.1553 26.5474 33.8161C27.2183 31.4587 28.1069 29.1739 28.9048 26.8709C29.0498 26.4719 29.1767 26.0549 29.3944 25.7104C29.5213 25.5109 29.8114 25.3115 30.029 25.3115C30.2467 25.3115 30.5912 25.5109 30.6637 25.7104C31.7879 28.4666 32.9666 31.2049 33.5833 34.1425C34.0184 36.3185 32.2775 38.3495 30.029 38.3495ZM30.0653 28.0859C29.9927 28.1402 29.9566 28.1402 29.9566 28.1584C29.2675 30.1894 28.5602 32.2022 27.9256 34.2514C27.6535 35.1217 28.0525 36.0103 28.796 36.4999C29.5394 37.0076 30.5005 37.0076 31.2259 36.518C31.9874 36.0103 32.4046 35.1217 32.1325 34.2332C31.5704 32.4017 30.9538 30.5884 30.3373 28.775C30.2648 28.5574 30.1559 28.3216 30.0653 28.0859Z" fill="#222222"/>
<path d="M12.8376 29.7539C12.8376 31.6397 11.2782 33.1993 9.39226 33.1811C7.52449 33.1811 5.98314 31.6397 5.965 29.7721C5.94688 27.868 7.48824 26.3086 9.39226 26.3086C11.2963 26.3086 12.8376 27.8498 12.8376 29.7539ZM11.115 29.7358C11.0968 28.7929 10.3352 28.0312 9.39226 28.0312C8.43118 28.0312 7.65144 28.829 7.68769 29.7902C7.70583 30.7331 8.50371 31.4765 9.42852 31.4585C10.3533 31.4585 11.1331 30.6605 11.115 29.7358Z" fill="#222222"/>
<path d="M50.6303 26.3088C52.5343 26.2906 54.0938 27.8319 54.0938 29.736C54.112 31.6399 52.5524 33.1813 50.6485 33.1813C48.7625 33.1813 47.2213 31.6581 47.2031 29.7904C47.2031 27.8863 48.7262 26.3268 50.6303 26.3088ZM50.6666 31.4586C51.5914 31.4586 52.3711 30.6607 52.3711 29.736C52.3711 28.7931 51.6095 28.0314 50.6666 28.0314C49.7056 28.0314 48.9257 28.8111 48.9439 29.7723C48.962 30.7152 49.7236 31.4767 50.6666 31.4586Z" fill="#222222"/>
<path d="M16.2483 37.3882C14.8338 37.3882 13.6914 36.2277 13.6914 34.8313C13.6914 33.417 14.8701 32.2383 16.2846 32.2383C17.6808 32.2383 18.8413 33.417 18.8413 34.8132C18.8413 36.2458 17.6989 37.3882 16.2483 37.3882ZM17.1367 34.795C17.1187 34.3417 16.7197 33.9429 16.2664 33.961C15.813 33.979 15.4141 34.3962 15.4323 34.8495C15.4504 35.3209 15.8311 35.6836 16.3027 35.6655C16.7742 35.6473 17.1367 35.2666 17.1367 34.795Z" fill="#222222"/>
<path d="M43.7563 37.4793C42.3238 37.4611 41.1813 36.2826 41.1994 34.8499C41.2176 33.4537 42.3781 32.3112 43.7926 32.3293C45.1888 32.3293 46.3494 33.508 46.3494 34.9044C46.3494 36.3187 45.1888 37.4793 43.7563 37.4793ZM43.7745 34.0521C43.3212 34.0521 42.9222 34.4329 42.9222 34.8862C42.9222 35.3395 43.2849 35.7385 43.7563 35.7567C44.2278 35.7748 44.6449 35.3758 44.6449 34.8862C44.6268 34.4329 44.2459 34.0521 43.7745 34.0521Z" fill="#222222"/>
<path d="M9.39456 43.4999C8.46975 43.4999 7.69001 42.7201 7.67188 41.7953C7.67188 40.8343 8.45162 40.0544 9.4127 40.0726C10.3375 40.0907 11.1173 40.8704 11.0991 41.7953C11.0991 42.7201 10.3375 43.4999 9.39456 43.4999Z" fill="#222222"/>
<path d="M23.1565 40.0547C24.0814 40.0547 24.8611 40.8344 24.8611 41.7773C24.8611 42.7385 24.0633 43.5182 23.1022 43.5C22.1773 43.4819 21.4158 42.684 21.4339 41.7593C21.4521 40.8162 22.2318 40.0547 23.1565 40.0547Z" fill="#222222"/>
<path d="M36.9041 40.0547C37.829 40.0547 38.6087 40.8162 38.6269 41.7593C38.6269 42.7203 37.847 43.5 36.886 43.5C35.9612 43.4819 35.1814 42.7022 35.1995 41.7773C35.1995 40.8344 35.9612 40.0547 36.9041 40.0547Z" fill="#222222"/>
<path d="M50.6304 43.4999C49.7056 43.4999 48.9258 42.72 48.9258 41.7771C48.9258 40.8161 49.7238 40.0362 50.6848 40.0725C51.6096 40.0907 52.3713 40.8885 52.3531 41.8134C52.3531 42.7382 51.5733 43.4999 50.6304 43.4999Z" fill="#222222"/>
</svg>
