<svg width="189" height="6" viewBox="0 0 189 6" fill="none" xmlns="http://www.w3.org/2000/svg">
<path d="M0.000325441 2.66699C0.000325441 4.13975 1.19423 5.33366 2.66699 5.33366C4.13975 5.33366 5.33366 4.13975 5.33366 2.66699C5.33366 1.19423 4.13975 0.000325441 2.66699 0.000325441C1.19423 0.000325441 0.000325441 1.19423 0.000325441 2.66699ZM2.66699 2.66699V3.16699H3.65635V2.66699V2.16699H2.66699V2.66699ZM5.63508 2.66699V3.16699H7.6138V2.66699V2.16699H5.63508V2.66699ZM9.59252 2.66699V3.16699H11.5712V2.66699V2.16699H9.59252V2.66699ZM13.55 2.66699V3.16699H15.5287V2.66699V2.16699H13.55V2.66699ZM17.5074 2.66699V3.16699H19.4861V2.66699V2.16699H17.5074V2.66699ZM21.4649 2.66699V3.16699H23.4436V2.66699V2.16699H21.4649V2.66699ZM25.4223 2.66699V3.16699H27.401V2.66699V2.16699H25.4223V2.66699ZM29.3798 2.66699V3.16699H31.3585V2.66699V2.16699H29.3798V2.66699ZM33.3372 2.66699V3.16699H35.3159V2.66699V2.16699H33.3372V2.66699ZM37.2947 2.66699V3.16699H39.2734V2.66699V2.16699H37.2947V2.66699ZM41.2521 2.66699V3.16699H43.2308V2.66699V2.16699H41.2521V2.66699ZM45.2095 2.66699V3.16699H47.1883V2.66699V2.16699H45.2095V2.66699ZM49.167 2.66699V3.16699H51.1457V2.66699V2.16699H49.167V2.66699ZM53.1244 2.66699V3.16699H55.1031V2.66699V2.16699H53.1244V2.66699ZM57.0819 2.66699V3.16699H59.0606V2.66699V2.16699H57.0819V2.66699ZM61.0393 2.66699V3.16699H63.018V2.66699V2.16699H61.0393V2.66699ZM64.9968 2.66699V3.16699H66.9755V2.66699V2.16699H64.9968V2.66699ZM68.9542 2.66699V3.16699H70.9329V2.66699V2.16699H68.9542V2.66699ZM72.9116 2.66699V3.16699H74.8904V2.66699V2.16699H72.9116V2.66699ZM76.8691 2.66699V3.16699H78.8478V2.66699V2.16699H76.8691V2.66699ZM80.8265 2.66699V3.16699H82.8053V2.66699V2.16699H80.8265V2.66699ZM84.784 2.66699V3.16699H86.7627V2.66699V2.16699H84.784V2.66699ZM88.7414 2.66699V3.16699H90.7201V2.66699V2.16699H88.7414V2.66699ZM92.6989 2.66699V3.16699H94.6776V2.66699V2.16699H92.6989V2.66699ZM96.6563 2.66699V3.16699H98.635V2.66699V2.16699H96.6563V2.66699ZM100.614 2.66699V3.16699H102.592V2.66699V2.16699H100.614V2.66699ZM104.571 2.66699V3.16699H106.55V2.66699V2.16699H104.571V2.66699ZM108.529 2.66699V3.16699H110.507V2.66699V2.16699H108.529V2.66699ZM112.486 2.66699V3.16699H114.465V2.66699V2.16699H112.486V2.66699ZM116.444 2.66699V3.16699H118.422V2.66699V2.16699H116.444V2.66699ZM120.401 2.66699V3.16699H122.38V2.66699V2.16699H120.401V2.66699ZM124.358 2.66699V3.16699H126.337V2.66699V2.16699H124.358V2.66699ZM128.316 2.66699V3.16699H130.295V2.66699V2.16699H128.316V2.66699ZM132.273 2.66699V3.16699H134.252V2.66699V2.16699H132.273V2.66699ZM136.231 2.66699V3.16699H138.209V2.66699V2.16699H136.231V2.66699ZM140.188 2.66699V3.16699H142.167V2.66699V2.16699H140.188V2.66699ZM144.146 2.66699V3.16699H146.124V2.66699V2.16699H144.146V2.66699ZM148.103 2.66699V3.16699H150.082V2.66699V2.16699H148.103V2.66699ZM152.061 2.66699V3.16699H154.039V2.66699V2.16699H152.061V2.66699ZM156.018 2.66699V3.16699H157.997V2.66699V2.16699H156.018V2.66699ZM159.976 2.66699V3.16699H161.954V2.66699V2.16699H159.976V2.66699ZM163.933 2.66699V3.16699H165.912V2.66699V2.16699H163.933V2.66699ZM167.89 2.66699V3.16699H169.869V2.66699V2.16699H167.89V2.66699ZM171.848 2.66699V3.16699H173.827V2.66699V2.16699H171.848V2.66699ZM175.805 2.66699V3.16699H177.784V2.66699V2.16699H175.805V2.66699ZM179.763 2.66699V3.16699H181.742V2.66699V2.16699H179.763V2.66699ZM183.72 2.66699V3.16699H185.699V2.66699V2.16699H183.72V2.66699ZM187.678 2.66699V3.16699H188.667V2.66699V2.16699H187.678V2.66699Z" fill="#556F30"/>
</svg>
