<svg width="208" height="36" viewBox="0 0 208 36" fill="none" xmlns="http://www.w3.org/2000/svg">
<path d="M0.000325441 2.66699C0.000325441 4.13975 1.19423 5.33366 2.66699 5.33366C4.13975 5.33366 5.33366 4.13975 5.33366 2.66699C5.33366 1.19423 4.13975 0.000325441 2.66699 0.000325441C1.19423 0.000325441 0.000325441 1.19423 0.000325441 2.66699ZM150.208 2.66699L150.451 2.23017L150.337 2.16699H150.208V2.66699ZM2.66699 2.66699V3.16699H3.66389V2.66699V2.16699H2.66699V2.66699ZM5.65768 2.66699V3.16699H7.65147V2.66699V2.16699H5.65768V2.66699ZM9.64527 2.66699V3.16699H11.6391V2.66699V2.16699H9.64527V2.66699ZM13.6329 2.66699V3.16699H15.6266V2.66699V2.16699H13.6329V2.66699ZM17.6204 2.66699V3.16699H19.6142V2.66699V2.16699H17.6204V2.66699ZM21.608 2.66699V3.16699H23.6018V2.66699V2.16699H21.608V2.66699ZM25.5956 2.66699V3.16699H27.5894V2.66699V2.16699H25.5956V2.66699ZM29.5832 2.66699V3.16699H31.577V2.66699V2.16699H29.5832V2.66699ZM33.5708 2.66699V3.16699H35.5646V2.66699V2.16699H33.5708V2.66699ZM37.5584 2.66699V3.16699H39.5522V2.66699V2.16699H37.5584V2.66699ZM41.546 2.66699V3.16699H43.5397V2.66699V2.16699H41.546V2.66699ZM45.5335 2.66699V3.16699H47.5273V2.66699V2.16699H45.5335V2.66699ZM49.5211 2.66699V3.16699H51.5149V2.66699V2.16699H49.5211V2.66699ZM53.5087 2.66699V3.16699H55.5025V2.66699V2.16699H53.5087V2.66699ZM57.4963 2.66699V3.16699H59.4901V2.66699V2.16699H57.4963V2.66699ZM61.4839 2.66699V3.16699H63.4777V2.66699V2.16699H61.4839V2.66699ZM65.4715 2.66699V3.16699H67.4653V2.66699V2.16699H65.4715V2.66699ZM69.4591 2.66699V3.16699H71.4529V2.66699V2.16699H69.4591V2.66699ZM73.4466 2.66699V3.16699H75.4404V2.66699V2.16699H73.4466V2.66699ZM77.4342 2.66699V3.16699H79.428V2.66699V2.16699H77.4342V2.66699ZM81.4218 2.66699V3.16699H83.4156V2.66699V2.16699H81.4218V2.66699ZM85.4094 2.66699V3.16699H87.4032V2.66699V2.16699H85.4094V2.66699ZM89.397 2.66699V3.16699H91.3907V2.66699V2.16699H89.397V2.66699ZM93.3845 2.66699V3.16699H95.3783V2.66699V2.16699H93.3845V2.66699ZM97.3721 2.66699V3.16699H99.3659V2.66699V2.16699H97.3721V2.66699ZM101.36 2.66699V3.16699H103.353V2.66699V2.16699H101.36V2.66699ZM105.347 2.66699V3.16699H107.341V2.66699V2.16699H105.347V2.66699ZM109.335 2.66699V3.16699H111.329V2.66699V2.16699H109.335V2.66699ZM113.322 2.66699V3.16699H115.316V2.66699V2.16699H113.322V2.66699ZM117.31 2.66699V3.16699H119.304V2.66699V2.16699H117.31V2.66699ZM121.298 2.66699V3.16699H123.291V2.66699V2.16699H121.298V2.66699ZM125.285 2.66699V3.16699H127.279V2.66699V2.16699H125.285V2.66699ZM129.273 2.66699V3.16699H131.267V2.66699V2.16699H129.273V2.66699ZM133.26 2.66699V3.16699H135.254V2.66699V2.16699H133.26V2.66699ZM137.248 2.66699V3.16699H139.242V2.66699V2.16699H137.248V2.66699ZM141.235 2.66699V3.16699H143.229V2.66699V2.16699H141.235V2.66699ZM145.223 2.66699V3.16699H147.217V2.66699V2.16699H145.223V2.66699ZM149.211 2.66699V3.16699H150.208V2.66699V2.16699H149.211V2.66699ZM150.208 2.66699L149.964 3.10382L150.862 3.60382L151.105 3.16699L151.349 2.73017L150.451 2.23017L150.208 2.66699ZM152.901 4.16699L152.658 4.60382L154.453 5.60382L154.697 5.16699L154.94 4.73017L153.144 3.73017L152.901 4.16699ZM156.492 6.16699L156.249 6.60382L158.044 7.60382L158.288 7.16699L158.531 6.73017L156.735 5.73017L156.492 6.16699ZM160.083 8.16699L159.84 8.60382L161.636 9.60382L161.879 9.16699L162.122 8.73017L160.327 7.73017L160.083 8.16699ZM163.675 10.167L163.431 10.6038L165.227 11.6038L165.47 11.167L165.713 10.7302L163.918 9.73017L163.675 10.167ZM167.266 12.167L167.022 12.6038L168.818 13.6038L169.061 13.167L169.305 12.7302L167.509 11.7302L167.266 12.167ZM170.857 14.167L170.614 14.6038L172.409 15.6038L172.652 15.167L172.896 14.7302L171.1 13.7302L170.857 14.167ZM174.448 16.167L174.205 16.6038L176 17.6038L176.244 17.167L176.487 16.7302L174.691 15.7302L174.448 16.167ZM178.039 18.167L177.796 18.6038L179.591 19.6038L179.835 19.167L180.078 18.7302L178.282 17.7302L178.039 18.167ZM181.63 20.167L181.387 20.6038L183.183 21.6038L183.426 21.167L183.669 20.7302L181.874 19.7302L181.63 20.167ZM185.221 22.167L184.978 22.6038L186.774 23.6038L187.017 23.167L187.26 22.7302L185.465 21.7302L185.221 22.167ZM188.813 24.167L188.569 24.6038L190.365 25.6038L190.608 25.167L190.852 24.7302L189.056 23.7302L188.813 24.167ZM192.404 26.167L192.161 26.6038L193.956 27.6038L194.199 27.167L194.443 26.7302L192.647 25.7302L192.404 26.167ZM195.995 28.167L195.752 28.6038L197.547 29.6038L197.791 29.167L198.034 28.7302L196.238 27.7302L195.995 28.167ZM199.586 30.167L199.343 30.6038L201.138 31.6038L201.382 31.167L201.625 30.7302L199.829 29.7302L199.586 30.167ZM203.177 32.167L202.934 32.6038L204.73 33.6038L204.973 33.167L205.216 32.7302L203.421 31.7302L203.177 32.167ZM206.768 34.167L206.525 34.6038L207.423 35.1038L207.666 34.667L207.91 34.2302L207.012 33.7302L206.768 34.167Z" fill="#556F30"/>
</svg>
