<svg width="224" height="38" viewBox="0 0 224 38" fill="none" xmlns="http://www.w3.org/2000/svg">
<path d="M0.000325441 2.66699C0.000325441 4.13975 1.19423 5.33366 2.66699 5.33366C4.13975 5.33366 5.33366 4.13975 5.33366 2.66699C5.33366 1.19423 4.13975 0.000325441 2.66699 0.000325441C1.19423 0.000325441 0.000325441 1.19423 0.000325441 2.66699ZM178.079 2.66699L178.378 2.26619L178.245 2.16699H178.079V2.66699ZM2.66699 2.66699V3.16699H3.66365V2.66699V2.16699H2.66699V2.66699ZM5.65697 2.66699V3.16699H7.65029V2.66699V2.16699H5.65697V2.66699ZM9.64361 2.66699V3.16699H11.6369V2.66699V2.16699H9.64361V2.66699ZM13.6303 2.66699V3.16699H15.6236V2.66699V2.16699H13.6303V2.66699ZM17.6169 2.66699V3.16699H19.6102V2.66699V2.16699H17.6169V2.66699ZM21.6035 2.66699V3.16699H23.5969V2.66699V2.16699H21.6035V2.66699ZM25.5902 2.66699V3.16699H27.5835V2.66699V2.16699H25.5902V2.66699ZM29.5768 2.66699V3.16699H31.5701V2.66699V2.16699H29.5768V2.66699ZM33.5635 2.66699V3.16699H35.5568V2.66699V2.16699H33.5635V2.66699ZM37.5501 2.66699V3.16699H39.5434V2.66699V2.16699H37.5501V2.66699ZM41.5367 2.66699V3.16699H43.5301V2.66699V2.16699H41.5367V2.66699ZM45.5234 2.66699V3.16699H47.5167V2.66699V2.16699H45.5234V2.66699ZM49.51 2.66699V3.16699H51.5033V2.66699V2.16699H49.51V2.66699ZM53.4967 2.66699V3.16699H55.49V2.66699V2.16699H53.4967V2.66699ZM57.4833 2.66699V3.16699H59.4766V2.66699V2.16699H57.4833V2.66699ZM61.4699 2.66699V3.16699H63.4633V2.66699V2.16699H61.4699V2.66699ZM65.4566 2.66699V3.16699H67.4499V2.66699V2.16699H65.4566V2.66699ZM69.4432 2.66699V3.16699H71.4365V2.66699V2.16699H69.4432V2.66699ZM73.4299 2.66699V3.16699H75.4232V2.66699V2.16699H73.4299V2.66699ZM77.4165 2.66699V3.16699H79.4098V2.66699V2.16699H77.4165V2.66699ZM81.4031 2.66699V3.16699H83.3964V2.66699V2.16699H81.4031V2.66699ZM85.3898 2.66699V3.16699H87.3831V2.66699V2.16699H85.3898V2.66699ZM89.3764 2.66699V3.16699H91.3697V2.66699V2.16699H89.3764V2.66699ZM93.363 2.66699V3.16699H95.3563V2.66699V2.16699H93.363V2.66699ZM97.3497 2.66699V3.16699H99.343V2.66699V2.16699H97.3497V2.66699ZM101.336 2.66699V3.16699H103.33V2.66699V2.16699H101.336V2.66699ZM105.323 2.66699V3.16699H107.316V2.66699V2.16699H105.323V2.66699ZM109.31 2.66699V3.16699H111.303V2.66699V2.16699H109.31V2.66699ZM113.296 2.66699V3.16699H115.29V2.66699V2.16699H113.296V2.66699ZM117.283 2.66699V3.16699H119.276V2.66699V2.16699H117.283V2.66699ZM121.269 2.66699V3.16699H123.263V2.66699V2.16699H121.269V2.66699ZM125.256 2.66699V3.16699H127.249V2.66699V2.16699H125.256V2.66699ZM129.243 2.66699V3.16699H131.236V2.66699V2.16699H129.243V2.66699ZM133.229 2.66699V3.16699H135.223V2.66699V2.16699H133.229V2.66699ZM137.216 2.66699V3.16699H139.209V2.66699V2.16699H137.216V2.66699ZM141.203 2.66699V3.16699H143.196V2.66699V2.16699H141.203V2.66699ZM145.189 2.66699V3.16699H147.183V2.66699V2.16699H145.189V2.66699ZM149.176 2.66699V3.16699H151.169V2.66699V2.16699H149.176V2.66699ZM153.163 2.66699V3.16699H155.156V2.66699V2.16699H153.163V2.66699ZM157.149 2.66699V3.16699H159.142V2.66699V2.16699H157.149V2.66699ZM161.136 2.66699V3.16699H163.129V2.66699V2.16699H161.136V2.66699ZM165.122 2.66699V3.16699H167.116V2.66699V2.16699H165.122V2.66699ZM169.109 2.66699V3.16699H171.102V2.66699V2.16699H169.109V2.66699ZM173.096 2.66699V3.16699H175.089V2.66699V2.16699H173.096V2.66699ZM177.082 2.66699V3.16699H178.079V2.66699V2.16699H177.082V2.66699ZM178.079 2.66699L177.78 3.0678L178.594 3.67494L178.893 3.27413L179.192 2.87333L178.378 2.26619L178.079 2.66699ZM180.521 4.48842L180.222 4.88922L181.851 6.10351L182.15 5.70271L182.448 5.3019L180.82 4.08762L180.521 4.48842ZM183.778 6.91699L183.479 7.3178L185.107 8.53208L185.406 8.13128L185.705 7.73047L184.077 6.51619L183.778 6.91699ZM187.034 9.34556L186.735 9.74637L188.363 10.9607L188.662 10.5598L188.961 10.159L187.333 8.94476L187.034 9.34556ZM190.29 11.7741L189.991 12.1749L191.619 13.3892L191.918 12.9884L192.217 12.5876L190.589 11.3733L190.29 11.7741ZM193.546 14.2027L193.248 14.6035L194.876 15.8178L195.175 15.417L195.474 15.0162L193.845 13.8019L193.546 14.2027ZM196.803 16.6313L196.504 17.0321L198.132 18.2464L198.431 17.8456L198.73 17.4448L197.102 16.2305L196.803 16.6313ZM200.059 19.0598L199.76 19.4607L201.388 20.6749L201.687 20.2741L201.986 19.8733L200.358 18.659L200.059 19.0598ZM203.315 21.4884L203.016 21.8892L204.644 23.1035L204.943 22.7027L205.242 22.3019L203.614 21.0876L203.315 21.4884ZM206.572 23.917L206.273 24.3178L207.901 25.5321L208.2 25.1313L208.499 24.7305L206.87 23.5162L206.572 23.917ZM209.828 26.3456L209.529 26.7464L211.157 27.9607L211.456 27.5599L211.755 27.159L210.127 25.9448L209.828 26.3456ZM213.084 28.7741L212.785 29.1749L214.413 30.3892L214.712 29.9884L215.011 29.5876L213.383 28.3733L213.084 28.7741ZM216.34 31.2027L216.041 31.6035L217.67 32.8178L217.969 32.417L218.267 32.0162L216.639 30.8019L216.34 31.2027ZM219.597 33.6313L219.298 34.0321L220.926 35.2464L221.225 34.8456L221.524 34.4448L219.896 33.2305L219.597 33.6313ZM222.853 36.0599L222.554 36.4607L223.368 37.0678L223.667 36.667L223.966 36.2662L223.152 35.6591L222.853 36.0599Z" fill="#556F30"/>
</svg>
