<svg width="178" height="51" viewBox="0 0 178 51" fill="none" xmlns="http://www.w3.org/2000/svg">
<path d="M0.000325441 2.66699C0.000325441 4.13975 1.19423 5.33366 2.66699 5.33366C4.13975 5.33366 5.33366 4.13975 5.33366 2.66699C5.33366 1.19423 4.13975 0.000325441 2.66699 0.000325441C1.19423 0.000325441 0.000325441 1.19423 0.000325441 2.66699ZM134.511 2.66699L134.886 2.33705L134.737 2.16699H134.511V2.66699ZM2.66699 2.66699V3.16699H3.66581V2.66699V2.16699H2.66699V2.66699ZM5.66344 2.66699V3.16699H7.66107V2.66699V2.16699H5.66344V2.66699ZM9.65871 2.66699V3.16699H11.6563V2.66699V2.16699H9.65871V2.66699ZM13.654 2.66699V3.16699H15.6516V2.66699V2.16699H13.654V2.66699ZM17.6492 2.66699V3.16699H19.6469V2.66699V2.16699H17.6492V2.66699ZM21.6445 2.66699V3.16699H23.6421V2.66699V2.16699H21.6445V2.66699ZM25.6398 2.66699V3.16699H27.6374V2.66699V2.16699H25.6398V2.66699ZM29.635 2.66699V3.16699H31.6327V2.66699V2.16699H29.635V2.66699ZM33.6303 2.66699V3.16699H35.6279V2.66699V2.16699H33.6303V2.66699ZM37.6256 2.66699V3.16699H39.6232V2.66699V2.16699H37.6256V2.66699ZM41.6208 2.66699V3.16699H43.6185V2.66699V2.16699H41.6208V2.66699ZM45.6161 2.66699V3.16699H47.6137V2.66699V2.16699H45.6161V2.66699ZM49.6114 2.66699V3.16699H51.609V2.66699V2.16699H49.6114V2.66699ZM53.6066 2.66699V3.16699H55.6042V2.66699V2.16699H53.6066V2.66699ZM57.6019 2.66699V3.16699H59.5995V2.66699V2.16699H57.6019V2.66699ZM61.5971 2.66699V3.16699H63.5948V2.66699V2.16699H61.5971V2.66699ZM65.5924 2.66699V3.16699H67.59V2.66699V2.16699H65.5924V2.66699ZM69.5877 2.66699V3.16699H71.5853V2.66699V2.16699H69.5877V2.66699ZM73.5829 2.66699V3.16699H75.5806V2.66699V2.16699H73.5829V2.66699ZM77.5782 2.66699V3.16699H79.5758V2.66699V2.16699H77.5782V2.66699ZM81.5735 2.66699V3.16699H83.5711V2.66699V2.16699H81.5735V2.66699ZM85.5687 2.66699V3.16699H87.5664V2.66699V2.16699H85.5687V2.66699ZM89.564 2.66699V3.16699H91.5617V2.66699V2.16699H89.564V2.66699ZM93.5593 2.66699V3.16699H95.5569V2.66699V2.16699H93.5593V2.66699ZM97.5546 2.66699V3.16699H99.5522V2.66699V2.16699H97.5546V2.66699ZM101.55 2.66699V3.16699H103.547V2.66699V2.16699H101.55V2.66699ZM105.545 2.66699V3.16699H107.543V2.66699V2.16699H105.545V2.66699ZM109.54 2.66699V3.16699H111.538V2.66699V2.16699H109.54V2.66699ZM113.536 2.66699V3.16699H115.533V2.66699V2.16699H113.536V2.66699ZM117.531 2.66699V3.16699H119.529V2.66699V2.16699H117.531V2.66699ZM121.526 2.66699V3.16699H123.524V2.66699V2.16699H121.526V2.66699ZM125.521 2.66699V3.16699H127.519V2.66699V2.16699H125.521V2.66699ZM129.517 2.66699V3.16699H131.514V2.66699V2.16699H129.517V2.66699ZM133.512 2.66699V3.16699H134.511V2.66699V2.16699H133.512V2.66699ZM134.511 2.66699L134.135 2.99694L134.794 3.74694L135.169 3.41699L135.545 3.08705L134.886 2.33705L134.511 2.66699ZM136.487 4.91699L136.111 5.24694L137.429 6.74694L137.804 6.41699L138.18 6.08705L136.863 4.58705L136.487 4.91699ZM139.122 7.91699L138.746 8.24694L140.063 9.74694L140.439 9.41699L140.815 9.08705L139.497 7.58705L139.122 7.91699ZM141.756 10.917L141.381 11.2469L142.698 12.7469L143.074 12.417L143.449 12.087L142.132 10.587L141.756 10.917ZM144.391 13.917L144.015 14.2469L145.333 15.7469L145.708 15.417L146.084 15.087L144.767 13.587L144.391 13.917ZM147.026 16.917L146.65 17.2469L147.968 18.7469L148.343 18.417L148.719 18.087L147.402 16.587L147.026 16.917ZM149.661 19.917L149.285 20.2469L150.602 21.7469L150.978 21.417L151.354 21.087L150.036 19.587L149.661 19.917ZM152.295 22.917L151.92 23.2469L153.237 24.7469L153.613 24.417L153.988 24.087L152.671 22.587L152.295 22.917ZM154.93 25.917L154.554 26.2469L155.872 27.7469L156.248 27.417L156.623 27.087L155.306 25.587L154.93 25.917ZM157.565 28.917L157.189 29.2469L158.507 30.7469L158.882 30.417L159.258 30.087L157.941 28.587L157.565 28.917ZM160.2 31.917L159.824 32.2469L161.141 33.7469L161.517 33.417L161.893 33.087L160.575 31.587L160.2 31.917ZM162.834 34.917L162.459 35.2469L163.776 36.7469L164.152 36.417L164.528 36.0871L163.21 34.587L162.834 34.917ZM165.469 37.917L165.094 38.2469L166.411 39.7469L166.787 39.417L167.162 39.0871L165.845 37.5871L165.469 37.917ZM168.104 40.917L167.728 41.2469L169.046 42.7469L169.421 42.417L169.797 42.0871L168.48 40.5871L168.104 40.917ZM170.739 43.917L170.363 44.2469L171.68 45.7469L172.056 45.417L172.432 45.0871L171.114 43.5871L170.739 43.917ZM173.374 46.917L172.998 47.2469L174.315 48.7469L174.691 48.417L175.067 48.0871L173.749 46.5871L173.374 46.917ZM176.008 49.917L175.633 50.2469L176.291 50.9969L176.667 50.667L177.043 50.337L176.384 49.5871L176.008 49.917Z" fill="#556F30"/>
</svg>
