<svg width="199" height="62" viewBox="0 0 199 62" fill="none" xmlns="http://www.w3.org/2000/svg">
<path d="M0.000325441 2.66699C0.000325441 4.13975 1.19423 5.33366 2.66699 5.33366C4.13975 5.33366 5.33366 4.13975 5.33366 2.66699C5.33366 1.19423 4.13975 0.000325441 2.66699 0.000325441C1.19423 0.000325441 0.000325441 1.19423 0.000325441 2.66699ZM150.694 2.66699L151.085 2.35556L150.935 2.16699H150.694V2.66699ZM2.66699 2.66699V3.16699H3.66717V2.66699V2.16699H2.66699V2.66699ZM5.66754 2.66699V3.16699H7.66791V2.66699V2.16699H5.66754V2.66699ZM9.66827 2.66699V3.16699H11.6686V2.66699V2.16699H9.66827V2.66699ZM13.669 2.66699V3.16699H15.6694V2.66699V2.16699H13.669V2.66699ZM17.6697 2.66699V3.16699H19.6701V2.66699V2.16699H17.6697V2.66699ZM21.6705 2.66699V3.16699H23.6708V2.66699V2.16699H21.6705V2.66699ZM25.6712 2.66699V3.16699H27.6716V2.66699V2.16699H25.6712V2.66699ZM29.6719 2.66699V3.16699H31.6723V2.66699V2.16699H29.6719V2.66699ZM33.6727 2.66699V3.16699H35.673V2.66699V2.16699H33.6727V2.66699ZM37.6734 2.66699V3.16699H39.6738V2.66699V2.16699H37.6734V2.66699ZM41.6741 2.66699V3.16699H43.6745V2.66699V2.16699H41.6741V2.66699ZM45.6749 2.66699V3.16699H47.6752V2.66699V2.16699H45.6749V2.66699ZM49.6756 2.66699V3.16699H51.676V2.66699V2.16699H49.6756V2.66699ZM53.6763 2.66699V3.16699H55.6767V2.66699V2.16699H53.6763V2.66699ZM57.6771 2.66699V3.16699H59.6774V2.66699V2.16699H57.6771V2.66699ZM61.6778 2.66699V3.16699H63.6782V2.66699V2.16699H61.6778V2.66699ZM65.6785 2.66699V3.16699H67.6789V2.66699V2.16699H65.6785V2.66699ZM69.6793 2.66699V3.16699H71.6796V2.66699V2.16699H69.6793V2.66699ZM73.68 2.66699V3.16699H75.6804V2.66699V2.16699H73.68V2.66699ZM77.6807 2.66699V3.16699H79.6811V2.66699V2.16699H77.6807V2.66699ZM81.6814 2.66699V3.16699H83.6818V2.66699V2.16699H81.6814V2.66699ZM85.6822 2.66699V3.16699H87.6825V2.66699V2.16699H85.6822V2.66699ZM89.6829 2.66699V3.16699H91.6833V2.66699V2.16699H89.6829V2.66699ZM93.6836 2.66699V3.16699H95.684V2.66699V2.16699H93.6836V2.66699ZM97.6844 2.66699V3.16699H99.6847V2.66699V2.16699H97.6844V2.66699ZM101.685 2.66699V3.16699H103.685V2.66699V2.16699H101.685V2.66699ZM105.686 2.66699V3.16699H107.686V2.66699V2.16699H105.686V2.66699ZM109.687 2.66699V3.16699H111.687V2.66699V2.16699H109.687V2.66699ZM113.687 2.66699V3.16699H115.688V2.66699V2.16699H113.687V2.66699ZM117.688 2.66699V3.16699H119.688V2.66699V2.16699H117.688V2.66699ZM121.689 2.66699V3.16699H123.689V2.66699V2.16699H121.689V2.66699ZM125.69 2.66699V3.16699H127.69V2.66699V2.16699H125.69V2.66699ZM129.69 2.66699V3.16699H131.691V2.66699V2.16699H129.69V2.66699ZM133.691 2.66699V3.16699H135.691V2.66699V2.16699H133.691V2.66699ZM137.692 2.66699V3.16699H139.692V2.66699V2.16699H137.692V2.66699ZM141.692 2.66699V3.16699H143.693V2.66699V2.16699H141.692V2.66699ZM145.693 2.66699V3.16699H147.694V2.66699V2.16699H145.693V2.66699ZM149.694 2.66699V3.16699H150.694V2.66699V2.16699H149.694V2.66699ZM150.694 2.66699L150.303 2.97842L150.921 3.75474L151.312 3.44331L151.703 3.13188L151.085 2.35556L150.694 2.66699ZM152.548 4.99594L152.157 5.30737L153.393 6.86L153.784 6.54857L154.176 6.23714L152.939 4.68451L152.548 4.99594ZM155.02 8.1012L154.629 8.41263L155.865 9.96526L156.257 9.65383L156.648 9.34241L155.412 7.78977L155.02 8.1012ZM157.493 11.2065L157.102 11.5179L158.338 13.0705L158.729 12.7591L159.12 12.4477L157.884 10.895L157.493 11.2065ZM159.965 14.3117L159.574 14.6232L160.81 16.1758L161.201 15.8644L161.592 15.5529L160.356 14.0003L159.965 14.3117ZM162.437 17.417L162.046 17.7284L163.282 19.281L163.673 18.9696L164.065 18.6582L162.828 17.1056L162.437 17.417ZM164.91 20.5223L164.518 20.8337L165.754 22.3863L166.146 22.0749L166.537 21.7635L165.301 20.2108L164.91 20.5223ZM167.382 23.6275L166.991 23.9389L168.227 25.4916L168.618 25.1801L169.009 24.8687L167.773 23.3161L167.382 23.6275ZM169.854 26.7328L169.463 27.0442L170.699 28.5968L171.09 28.2854L171.481 27.974L170.245 26.4213L169.854 26.7328ZM172.326 29.838L171.935 30.1495L173.171 31.7021L173.562 31.3907L173.954 31.0792L172.717 29.5266L172.326 29.838ZM174.799 32.9433L174.407 33.2547L175.644 34.8074L176.035 34.4959L176.426 34.1845L175.19 32.6319L174.799 32.9433ZM177.271 36.0486L176.88 36.36L178.116 37.9126L178.507 37.6012L178.898 37.2898L177.662 35.7371L177.271 36.0486ZM179.743 39.1538L179.352 39.4653L180.588 41.0179L180.979 40.7065L181.37 40.395L180.134 38.8424L179.743 39.1538ZM182.215 42.2591L181.824 42.5705L183.06 44.1232L183.451 43.8117L183.843 43.5003L182.607 41.9477L182.215 42.2591ZM184.688 45.3644L184.296 45.6758L185.533 47.2284L185.924 46.917L186.315 46.6056L185.079 45.0529L184.688 45.3644ZM187.16 48.4696L186.769 48.781L188.005 50.3337L188.396 50.0222L188.787 49.7108L187.551 48.1582L187.16 48.4696ZM189.632 51.5749L189.241 51.8863L190.477 53.4389L190.868 53.1275L191.259 52.8161L190.023 51.2635L189.632 51.5749ZM192.104 54.6801L191.713 54.9916L192.949 56.5442L193.341 56.2328L193.732 55.9213L192.496 54.3687L192.104 54.6801ZM194.577 57.7854L194.185 58.0968L195.422 59.6495L195.813 59.338L196.204 59.0266L194.968 57.474L194.577 57.7854ZM197.049 60.8907L196.658 61.2021L197.276 61.9784L197.667 61.667L198.058 61.3556L197.44 60.5792L197.049 60.8907Z" fill="#556F30"/>
</svg>
