<svg width="92" height="22" viewBox="0 0 92 22" fill="none" xmlns="http://www.w3.org/2000/svg">
<path d="M-0.000651121 18.8975C-0.000651238 17.4247 1.19326 16.2308 2.66602 16.2308C4.13877 16.2308 5.33268 17.4247 5.33268 18.8975C5.33268 20.3702 4.13878 21.5641 2.66602 21.5641C1.19326 21.5641 -0.000651004 20.3702 -0.000651121 18.8975ZM61.7569 18.8975L62.025 19.3195L61.9023 19.3975L61.7569 19.3975L61.7569 18.8975ZM2.66602 18.8975L2.66602 18.3975L3.65086 18.3975L3.65086 18.8975L3.65086 19.3975L2.66602 19.3975L2.66602 18.8975ZM5.62056 18.8975L5.62056 18.3975L7.59026 18.3975L7.59026 18.8975L7.59026 19.3975L5.62056 19.3975L5.62056 18.8975ZM9.55995 18.8975L9.55995 18.3975L11.5297 18.3975L11.5297 18.8975L11.5297 19.3975L9.55995 19.3975L9.55995 18.8975ZM13.4993 18.8975L13.4993 18.3975L15.469 18.3975L15.469 18.8975L15.469 19.3975L13.4993 19.3975L13.4993 18.8975ZM17.4387 18.8975L17.4387 18.3975L19.4084 18.3975L19.4084 18.8975L19.4084 19.3975L17.4387 19.3975L17.4387 18.8975ZM21.3781 18.8975L21.3781 18.3975L23.3478 18.3975L23.3478 18.8975L23.3478 19.3975L21.3781 19.3975L21.3781 18.8975ZM25.3175 18.8975L25.3175 18.3975L27.2872 18.3975L27.2872 18.8975L27.2872 19.3975L25.3175 19.3975L25.3175 18.8975ZM29.2569 18.8975L29.2569 18.3975L31.2266 18.3975L31.2266 18.8975L31.2266 19.3975L29.2569 19.3975L29.2569 18.8975ZM33.1963 18.8975L33.1963 18.3975L35.166 18.3975L35.166 18.8975L35.166 19.3975L33.1963 19.3975L33.1963 18.8975ZM37.1357 18.8975L37.1357 18.3975L39.1054 18.3975L39.1054 18.8975L39.1054 19.3975L37.1357 19.3975L37.1357 18.8975ZM41.0751 18.8975L41.0751 18.3975L43.0448 18.3975L43.0448 18.8975L43.0448 19.3975L41.0751 19.3975L41.0751 18.8975ZM45.0145 18.8975L45.0145 18.3975L46.9842 18.3975L46.9842 18.8975L46.9842 19.3975L45.0145 19.3975L45.0145 18.8975ZM48.9539 18.8975L48.9539 18.3975L50.9236 18.3975L50.9236 18.8975L50.9236 19.3975L48.9539 19.3975L48.9539 18.8975ZM52.8933 18.8975L52.8933 18.3975L54.863 18.3975L54.863 18.8975L54.863 19.3975L52.8933 19.3975L52.8933 18.8975ZM56.8327 18.8975L56.8327 18.3975L58.8024 18.3975L58.8024 18.8975L58.8024 19.3975L56.8327 19.3975L56.8327 18.8975ZM60.7721 18.8975L60.7721 18.3975L61.7569 18.3975L61.7569 18.8975L61.7569 19.3975L60.7721 19.3975L60.7721 18.8975ZM61.7569 18.8975L61.4889 18.4754L62.297 17.9622L62.565 18.3843L62.8331 18.8063L62.025 19.3195L61.7569 18.8975ZM64.1812 17.3579L63.9131 16.9358L65.5293 15.9094L65.7973 16.3315L66.0654 16.7535L64.4492 17.7799L64.1812 17.3579ZM67.4135 15.3051L67.1454 14.883L68.7616 13.8566L69.0296 14.2787L69.2977 14.7007L67.6815 15.7271L67.4135 15.3051ZM70.6458 13.2523L70.3778 12.8302L71.9939 11.8038L72.262 12.2259L72.53 12.6479L70.9139 13.6743L70.6458 13.2523ZM73.8781 11.1995L73.6101 10.7774L75.2262 9.75098L75.4943 10.1731L75.7624 10.5951L74.1462 11.6215L73.8781 11.1995ZM77.1105 9.14665L76.8424 8.72458L78.4586 7.69818L78.7266 8.12025L78.9947 8.54233L77.3785 9.56873L77.1105 9.14665ZM80.3428 7.09385L80.0747 6.67177L81.6909 5.64537L81.9589 6.06745L82.227 6.48952L80.6108 7.51592L80.3428 7.09385ZM83.5751 5.04105L83.3071 4.61897L84.9232 3.59257L85.1913 4.01465L85.4593 4.43672L83.8432 5.46312L83.5751 5.04105ZM86.8074 2.98825L86.5394 2.56617L88.1555 1.53977L88.4236 1.96185L88.6916 2.38392L87.0755 3.41032L86.8074 2.98825ZM90.0397 0.935447L89.7717 0.513372L90.5798 0.000170837L90.8478 0.422246L91.1159 0.844321L90.3078 1.35752L90.0397 0.935447Z" fill="#556F30"/>
</svg>
