<svg width="82" height="14" viewBox="0 0 82 14" fill="none" xmlns="http://www.w3.org/2000/svg">
<path d="M-0.000651121 2.6665C-0.00065125 4.13926 1.19326 5.33317 2.66602 5.33317C4.13877 5.33317 5.33268 4.13926 5.33268 2.6665C5.33268 1.19374 4.13878 -0.000162711 2.66602 -0.00016284C1.19326 -0.000162969 -0.000650992 1.19374 -0.000651121 2.6665ZM61.7569 2.66651L61.9935 2.22604L61.8827 2.16651L61.7569 2.16651L61.7569 2.66651ZM2.66602 2.6665L2.66602 3.1665L3.65086 3.1665L3.65086 2.6665L3.65086 2.1665L2.66602 2.1665L2.66602 2.6665ZM5.62056 2.6665L5.62056 3.1665L7.59026 3.1665L7.59026 2.6665L7.59026 2.1665L5.62056 2.1665L5.62056 2.6665ZM9.55995 2.6665L9.55995 3.1665L11.5297 3.1665L11.5297 2.6665L11.5297 2.1665L9.55995 2.1665L9.55995 2.6665ZM13.4993 2.6665L13.4993 3.1665L15.469 3.16651L15.469 2.66651L15.469 2.16651L13.4993 2.1665L13.4993 2.6665ZM17.4387 2.66651L17.4387 3.16651L19.4084 3.16651L19.4084 2.66651L19.4084 2.16651L17.4387 2.16651L17.4387 2.66651ZM21.3781 2.66651L21.3781 3.16651L23.3478 3.16651L23.3478 2.66651L23.3478 2.16651L21.3781 2.16651L21.3781 2.66651ZM25.3175 2.66651L25.3175 3.16651L27.2872 3.16651L27.2872 2.66651L27.2872 2.16651L25.3175 2.16651L25.3175 2.66651ZM29.2569 2.66651L29.2569 3.16651L31.2266 3.16651L31.2266 2.66651L31.2266 2.16651L29.2569 2.16651L29.2569 2.66651ZM33.1963 2.66651L33.1963 3.16651L35.166 3.16651L35.166 2.66651L35.166 2.16651L33.1963 2.16651L33.1963 2.66651ZM37.1357 2.66651L37.1357 3.16651L39.1054 3.16651L39.1054 2.66651L39.1054 2.16651L37.1357 2.16651L37.1357 2.66651ZM41.0751 2.66651L41.0751 3.16651L43.0448 3.16651L43.0448 2.66651L43.0448 2.16651L41.0751 2.16651L41.0751 2.66651ZM45.0145 2.66651L45.0145 3.16651L46.9842 3.16651L46.9842 2.66651L46.9842 2.16651L45.0145 2.16651L45.0145 2.66651ZM48.9539 2.66651L48.9539 3.16651L50.9236 3.16651L50.9236 2.66651L50.9236 2.16651L48.9539 2.16651L48.9539 2.66651ZM52.8933 2.66651L52.8933 3.16651L54.863 3.16651L54.863 2.66651L54.863 2.16651L52.8933 2.16651L52.8933 2.66651ZM56.8327 2.66651L56.8327 3.16651L58.8024 3.16651L58.8024 2.66651L58.8024 2.16651L56.8327 2.16651L56.8327 2.66651ZM60.7721 2.66651L60.7721 3.16651L61.7569 3.16651L61.7569 2.66651L61.7569 2.16651L60.7721 2.16651L60.7721 2.66651ZM61.7569 2.66651L61.5203 3.10697L62.3347 3.54447L62.5713 3.10401L62.8079 2.66354L61.9935 2.22604L61.7569 2.66651ZM64.2001 3.97901L63.9635 4.41947L65.5923 5.29447L65.8289 4.85401L66.0655 4.41354L64.4367 3.53854L64.2001 3.97901ZM67.4577 5.72901L67.2211 6.16947L68.8498 7.04447L69.0865 6.60401L69.3231 6.16354L67.6943 5.28854L67.4577 5.72901ZM70.7153 7.47901L70.4786 7.91947L72.1074 8.79447L72.344 8.35401L72.5807 7.91354L70.9519 7.03854L70.7153 7.47901ZM73.9728 9.229L73.7362 9.66947L75.365 10.5445L75.6016 10.104L75.8382 9.66354L74.2094 8.78854L73.9728 9.229ZM77.2304 10.979L76.9938 11.4195L78.6226 12.2945L78.8592 11.854L79.0958 11.4135L77.467 10.5385L77.2304 10.979ZM80.488 12.729L80.2514 13.1695L81.0658 13.607L81.3024 13.1665L81.539 12.726L80.7246 12.2885L80.488 12.729Z" fill="#556F30"/>
</svg>
