<svg width="32" height="32" viewBox="0 0 32 32" fill="none" xmlns="http://www.w3.org/2000/svg">
<path d="M24 10.6665C26.2091 10.6665 28 8.87564 28 6.6665C28 4.45736 26.2091 2.6665 24 2.6665C21.7909 2.6665 20 4.45736 20 6.6665C20 8.87564 21.7909 10.6665 24 10.6665Z" fill="#222222"/>
<path d="M8 19.9998C10.2091 19.9998 12 18.209 12 15.9998C12 13.7907 10.2091 11.9998 8 11.9998C5.79086 11.9998 4 13.7907 4 15.9998C4 18.209 5.79086 19.9998 8 19.9998Z" fill="#222222"/>
<path d="M24 29.3332C26.2091 29.3332 28 27.5423 28 25.3332C28 23.124 26.2091 21.3332 24 21.3332C21.7909 21.3332 20 23.124 20 25.3332C20 27.5423 21.7909 29.3332 24 29.3332Z" fill="#222222"/>
<path d="M11.4533 18.0132L20.56 23.3198M20.5467 8.67984L11.4533 13.9865M28 6.6665C28 8.87564 26.2091 10.6665 24 10.6665C21.7909 10.6665 20 8.87564 20 6.6665C20 4.45736 21.7909 2.6665 24 2.6665C26.2091 2.6665 28 4.45736 28 6.6665ZM12 15.9998C12 18.209 10.2091 19.9998 8 19.9998C5.79086 19.9998 4 18.209 4 15.9998C4 13.7907 5.79086 11.9998 8 11.9998C10.2091 11.9998 12 13.7907 12 15.9998ZM28 25.3332C28 27.5423 26.2091 29.3332 24 29.3332C21.7909 29.3332 20 27.5423 20 25.3332C20 23.124 21.7909 21.3332 24 21.3332C26.2091 21.3332 28 23.124 28 25.3332Z" stroke="#222222" stroke-width="2" stroke-linecap="round" stroke-linejoin="round"/>
</svg>
