<svg width="30" height="30" viewBox="0 0 30 30" fill="none" xmlns="http://www.w3.org/2000/svg">
<path d="M20.0005 11.25V7.5C20.0005 4.73858 17.7619 2.5 15.0005 2.5C12.239 2.5 10.0005 4.73858 10.0005 7.5V11.25M4.49047 12.94L3.74047 20.94C3.52722 23.2146 3.4206 24.3519 3.79802 25.2303C4.12958 26.002 4.71061 26.6401 5.44799 27.0422C6.28737 27.5 7.42967 27.5 9.71427 27.5H20.2867C22.5713 27.5 23.7136 27.5 24.5529 27.0422C25.2903 26.6401 25.8713 26.002 26.2029 25.2303C26.5803 24.3519 26.4737 23.2146 26.2605 20.94L25.5105 12.94C25.3304 11.0192 25.2403 10.0588 24.8084 9.3327C24.428 8.69323 23.8659 8.18139 23.1937 7.86231C22.4304 7.5 21.4658 7.5 19.5367 7.5L10.4643 7.5C8.53507 7.5 7.57048 7.5 6.80723 7.8623C6.13504 8.18139 5.57297 8.69323 5.19254 9.3327C4.76057 10.0588 4.67054 11.0192 4.49047 12.94Z" stroke="#222222" stroke-width="2" stroke-linecap="round" stroke-linejoin="round"/>
</svg>
