<svg width="300" height="40" viewBox="0 0 300 40" fill="none" xmlns="http://www.w3.org/2000/svg">
<g clip-path="url(#clip0_3496_535)">
<path d="M281.671 0C270.203 0 263.296 9.24464 263.296 20.1127C263.296 31.3416 269.797 40 281.671 40C293.499 40 300.045 31.3416 300.045 20.1127C300 9.24464 293.318 0 281.671 0ZM281.671 36.0767C275.756 36.0767 270.203 31.1612 270.203 20.1127C270.203 9.28974 275.711 3.96843 281.671 3.96843C287.585 3.96843 293.318 9.28974 293.318 20.1127C293.318 31.1612 287.585 36.0767 281.671 36.0767Z" fill="white"/>
<path d="M239.278 0C227.81 0 220.903 9.24464 220.903 20.1127C220.903 31.3416 227.404 40 239.278 40C251.106 40 257.652 31.3416 257.652 20.1127C257.607 9.24464 250.925 0 239.278 0ZM239.278 36.0767C233.363 36.0767 227.81 31.1612 227.81 20.1127C227.81 9.28974 233.318 3.96843 239.278 3.96843C245.192 3.96843 250.925 9.28974 250.925 20.1127C250.925 31.1612 245.192 36.0767 239.278 36.0767Z" fill="white"/>
<path d="M171.738 0.179688L161.851 27.598L153.95 3.92264C152.957 0.946317 151.377 0.179688 149.21 0.179688C146.862 0.179688 145.056 2.11881 145.056 2.11881C146.05 2.11881 146.456 2.93053 147.449 5.501C148.036 7.07935 149.029 9.64981 150.023 12.4007L144.108 28.1842L135.034 3.92264C134.041 0.946317 132.46 0.179688 130.113 0.179688C127.765 0.179688 126.185 2.11881 126.185 2.11881C127.359 2.11881 128.172 2.93053 128.939 5.32061L142.167 39.8189H144.334L152.054 17.9474C155.395 27.8234 159.729 39.8189 159.729 39.8189H161.896L176.298 0.179688H171.738Z" fill="white"/>
<path d="M210.158 0.179688C207.765 0.179688 205.598 1.93842 205.598 1.93842C206.998 1.93842 207.359 3.69716 207.359 5.50099V17.5416H188.804V3.56187C188.804 0.58555 186.456 0.224783 184.65 0.224783C182.483 0.224783 180.09 1.98352 180.09 1.98352C181.49 1.98352 181.851 3.74226 181.851 5.54609V39.864H188.759V21.4649H207.314V39.8189H214.041V3.56187C214.086 0.58555 211.693 0.179688 210.158 0.179688Z" fill="white"/>
<path d="M68.5326 0.179688C66.3655 0.179688 63.9727 1.93842 63.9727 1.93842C65.3723 1.93842 65.7335 3.69716 65.7335 5.50099V17.5416H47.1782V3.56187C47.1782 0.58555 44.8305 0.224783 43.0247 0.224783C40.8576 0.224783 38.4648 1.98352 38.4648 1.98352C39.8644 1.98352 40.2256 3.74226 40.2256 5.54609V39.864H47.133V21.4649H65.6883V39.8189H72.4152V3.56187C72.5055 0.58555 70.3384 0.179688 68.5326 0.179688Z" fill="white"/>
<path d="M87.4491 35.2657V20.6998H101.445C102.031 20.6998 102.438 20.2939 102.438 19.9331L103.025 16.7764H87.4491V4.73584H106.185C106.952 4.73584 106.952 3.96921 107.359 0.8125H79.1421C79.1421 0.8125 80.5416 1.80461 80.5416 3.78882V39.8655H106.411C106.817 39.8655 107.178 39.4596 107.178 39.0989L107.765 35.3559H87.4491V35.2657Z" fill="white"/>
<path d="M34.0406 0.767578L33.4537 4.10467C33.4537 4.51053 33.0474 4.8713 32.6862 4.8713H20.9932V39.7755H14.0858V4.91639H2.43792C1.98646 4.91639 1.48984 4.55563 1.4447 4.14977V3.7439C1.26411 1.80478 0 0.767578 0 0.767578H34.0406Z" fill="white"/>
</g>
<defs>
<clipPath id="clip0_3496_535">
<rect width="300" height="40" fill="white"/>
</clipPath>
</defs>
</svg>
