<svg width="189" height="50" viewBox="0 0 189 50" fill="none" xmlns="http://www.w3.org/2000/svg">
<g clip-path="url(#clip0_3496_544)">
<path d="M24.7888 0C10.1668 0 0 10.2403 0 24.8284C0 39.4165 10.4524 49.7712 24.7888 50C39.5821 50.1716 49.5775 39.4165 49.5775 24.8284C49.5775 10.0114 39.5821 0 24.7888 0ZM29.1868 45.6522C22.3327 46.9108 12.9084 42.1625 9.767 27.8032C7.0825 15.5034 11.1949 6.17849 19.9338 4.34783C28.8441 2.51716 37.126 9.49657 39.5821 21.8536C42.1523 35.0687 38.1541 43.9931 29.1868 45.6522Z" fill="white"/>
<path d="M105.838 45.5951V5.60659C105.838 5.60659 106.066 0.629474 102.239 0.572266H102.182C102.182 0.572266 100.926 0.572266 96.642 0.572266V2.46014V19.9087V22.4258H72.5957V5.60659C72.5957 5.60659 72.8242 0.629474 68.9974 0.572266H68.9402C68.9402 0.572266 67.6837 0.572266 63.3999 0.572266V19.9659V46.8537C63.3999 48.0551 64.1995 49.1993 65.399 49.1993H74.3092C74.3092 49.1993 72.5957 48.1123 72.5957 45.6524V26.5448H96.642V46.7965C96.642 47.9979 97.4416 49.1421 98.6411 49.1421H107.551C107.551 49.1421 105.838 48.0551 105.838 45.5951Z" fill="white"/>
<path d="M163.583 5.60659C163.583 5.60659 163.868 0.572266 160.042 0.572266H159.528C158.842 0.572266 157.3 0.572266 154.444 0.572266V29.2336C154.444 40.4464 150.217 46.3961 142.164 46.3961C134.053 46.3961 130.055 40.618 130.055 29.2336V12.872C130.055 12.872 130.055 12.1283 130.055 11.0414V5.89263C130.055 5.89263 130.341 0.572266 126.514 0.572266H126.343H126C125.315 0.572266 123.829 0.572266 120.917 0.572266V14.8743V18.6501V29.2336C120.917 43.2496 128.456 49.7713 142.278 49.7713C156.043 49.7713 163.697 43.1352 163.697 29.1192L163.583 5.60659Z" fill="white"/>
<path d="M187.287 45.5951V5.60659C187.287 5.60659 187.515 0.629474 183.688 0.572266H183.631C183.631 0.572266 182.375 0.572266 178.091 0.572266V19.9659V46.8537C178.091 48.0551 178.89 49.1993 180.09 49.1993H189C189 49.1421 187.287 48.0551 187.287 45.5951Z" fill="white"/>
</g>
<defs>
<clipPath id="clip0_3496_544">
<rect width="189" height="50" fill="white"/>
</clipPath>
</defs>
</svg>
