<svg width="264" height="50" viewBox="0 0 264 50" fill="none" xmlns="http://www.w3.org/2000/svg">
<g clip-path="url(#clip0_3496_604)">
<path d="M44.5103 7.86245C48.8934 12.1843 51.4223 18.0352 51.5635 24.1812C51.5731 28.4066 50.488 32.5627 48.4136 36.2467C46.3391 39.9308 43.3456 43.0177 39.7232 45.2083C34.4387 47.9974 28.535 49.4139 22.557 49.327C19.4846 49.327 11.9844 49.0979 7.56285 48.8749C5.31551 48.8041 3.67177 48.8041 2.46873 48.8041C0.822911 48.8041 0 48.2083 0 47.6041C0 46.9999 1.0443 46.4874 1.94449 46.3291C6.51854 45.7354 6.96759 44.6854 7.19108 37.8708C7.33101 33.7604 7.41038 30.7645 7.33101 27.5458C7.33101 23.6541 7.41038 15.2729 7.12215 10.2541C6.82348 5.54161 6.67519 4.26453 2.54601 3.67078C1.71475 3.52078 0.741456 2.91661 0.741456 2.39161C0.741456 1.79578 1.64165 1.27495 2.76741 1.27495H6.66684C10.3407 1.27495 18.9666 0.668696 24.5056 0.668696C31.8477 0.446184 38.9996 3.01804 44.5103 7.86245ZM17.231 4.12286C17.0489 4.22896 16.8981 4.38118 16.7939 4.5641C16.6898 4.74703 16.6359 4.95416 16.6378 5.16453C16.4854 6.9562 16.3413 11.752 16.3413 18.3354V29.1854C16.3413 34.3583 16.4144 38.1708 16.6378 41.4624C16.6552 42.0844 16.7962 42.6966 17.0525 43.2638C17.3089 43.831 17.6755 44.3418 18.1312 44.7666C19.6045 45.8492 21.3293 46.541 23.1439 46.777C27.299 46.6924 31.287 45.1297 34.3889 42.3708C38.9588 38.5499 41.3649 31.2895 41.3649 24.1791C41.3276 18.4349 39.1979 12.9002 35.3727 8.6062C31.4679 5.10242 26.3778 3.20357 21.1263 3.29161C19.7771 3.22505 18.4341 3.51237 17.231 4.12495M57.3323 21.1895C59.9338 20.4567 62.4669 19.5011 64.9035 18.3333C65.4552 17.9469 66.0622 17.6456 66.7039 17.4395C67.1613 17.4395 67.604 18.1166 67.604 18.3333C67.604 19.6833 67.3764 21.1062 67.3764 22.5249C67.3764 22.7541 67.7586 23.052 67.9863 22.8249C70.3067 20.3541 73.6088 18.1854 75.923 18.1854C79.223 18.1854 80.2798 20.202 80.2798 21.252C80.1985 21.6742 80.0437 22.0789 79.8224 22.4479C78.8171 24.0905 77.5813 25.5813 76.1527 26.8749C75.686 26.892 75.2227 26.7887 74.8077 26.5749C73.4504 25.461 71.8153 24.7359 70.077 24.477C69.4227 24.4214 68.7678 24.5777 68.2097 24.9229C67.9848 25.1008 67.8057 25.3298 67.6873 25.5906C67.5688 25.8515 67.5145 26.1368 67.5289 26.4229C67.5289 27.9208 67.9006 40.9458 67.9863 42.0729C68.1387 44.3895 68.6609 45.7374 69.7073 45.9604C70.4613 46.1104 72.0361 46.6354 72.9404 46.9354C74.1184 47.3083 74.4317 47.8312 74.4317 48.1312C74.4317 48.7312 73.5357 49.0291 72.3264 49.0291C70.077 49.0291 66.1775 48.6541 61.7664 48.6541C60.1853 48.6541 58.6105 48.8749 56.8164 48.8749C55.9809 48.8749 55.0118 48.6541 55.0118 47.8333C55.0118 47.3104 56.1355 46.9374 56.7454 46.7083C59.4355 45.7374 59.5942 44.9145 59.659 40.4249V28.0666C59.7914 27.0798 59.5845 26.0773 59.0721 25.2229C58.0397 24.4933 57.1242 23.6117 56.3569 22.6083C56.3569 22.4541 56.5198 21.4145 57.3365 21.1854M86.4224 44.1666C86.439 44.8597 86.3181 45.5492 86.0667 46.1956C85.8153 46.8419 85.4382 47.4323 84.9572 47.9327C84.4763 48.4332 83.9008 48.8339 83.2641 49.1118C82.6273 49.3897 81.9418 49.5393 81.2468 49.552C80.5582 49.541 79.8789 49.3914 79.2497 49.1121C78.6205 48.8328 78.0544 48.4295 77.5852 47.9266C77.1161 47.4236 76.7537 46.8313 76.5198 46.1852C76.2858 45.5391 76.1851 44.8525 76.2237 44.1666C76.1747 42.7684 76.6841 41.4079 77.64 40.384C78.596 39.3601 79.9203 38.7567 81.322 38.7062C82.7168 38.7768 84.0293 39.3864 84.9814 40.4056C85.9334 41.4249 86.4503 42.7738 86.4224 44.1666ZM141.152 1.57078C142.264 1.83464 143.389 2.03634 144.523 2.17495C144.818 2.17495 145.346 2.83953 145.415 3.8937C145.488 6.06245 146.541 9.88328 146.541 12.877C146.541 13.852 146.088 14.752 145.271 14.752C144.893 14.752 144.296 13.9312 143.84 12.8041C143.127 10.939 142.169 9.17586 140.994 7.56036C139.451 5.93693 137.589 4.64778 135.525 3.77322C133.461 2.89866 131.239 2.45743 128.997 2.47703C117.678 2.47703 111.016 12.5833 111.016 24.2583C110.842 28.947 111.924 33.5973 114.149 37.7312C115.679 40.6107 117.952 43.0311 120.733 44.743C123.513 46.4549 126.701 47.3965 129.968 47.4708C131.646 47.388 133.273 46.8695 134.688 45.9666C135.291 45.2442 135.741 44.4076 136.012 43.5072C136.282 42.6068 136.368 41.6612 136.263 40.727C136.32 38.5004 136.217 36.2725 135.956 34.0604C135.517 32.3395 134.924 30.8437 129.968 30.3874C128.846 30.3145 127.794 29.6437 127.794 28.9645C127.794 28.4499 128.838 27.9229 130.34 27.9229C133.111 27.9229 137.315 28.2166 139.337 28.2166C141.142 28.2166 145.263 27.7749 148.036 27.7749C149.452 27.7749 150.062 28.2979 150.062 28.8916C150.062 29.3479 149.227 30.0208 148.331 30.3145C145.785 30.9937 145.862 31.8874 145.705 32.9395C145.557 33.8374 145.336 39.152 145.336 42.2187C145.336 43.2604 145.624 43.5666 146.533 44.4562C147.134 44.9166 147.355 45.2104 147.355 45.7374C147.355 46.1104 146.76 46.7083 146.236 46.8562C144.956 47.2354 142.412 47.8979 139.412 48.5062C135.755 49.2461 132.052 49.7451 128.328 49.9999C120.231 49.9999 112.741 47.5354 108.242 43.4916C105.685 41.1229 103.671 38.2314 102.337 35.0149C101.003 31.7983 100.382 28.3324 100.514 24.8541C100.463 21.4175 101.184 18.0131 102.624 14.891C104.065 11.7689 106.189 9.00844 108.839 6.81245C114.532 2.26988 121.641 -0.140462 128.93 -5.39924e-05C133.054 0.0109711 137.16 0.538714 141.152 1.57078ZM152.391 21.1874C154.991 20.453 157.523 19.4981 159.96 18.3333C160.509 17.9426 161.116 17.6409 161.758 17.4395C162.208 17.4395 162.659 18.1166 162.659 18.3333C162.659 19.6833 162.435 21.1062 162.435 22.5249C162.435 22.7541 162.805 23.052 163.037 22.8249C165.361 20.3541 168.657 18.1854 170.973 18.1854C174.28 18.1854 175.324 20.202 175.324 21.252C175.245 21.6745 175.091 22.0795 174.869 22.4479C173.868 24.0932 172.632 25.5845 171.201 26.8749C170.734 26.8915 170.27 26.7882 169.854 26.5749C168.5 25.4639 166.869 24.739 165.136 24.477C164.477 24.4162 163.817 24.5728 163.256 24.9229C163.029 25.0993 162.849 25.328 162.73 25.5892C162.612 25.8505 162.559 26.1365 162.575 26.4229C162.575 27.9208 162.941 40.9458 163.028 42.0729C163.164 44.3895 163.699 45.7374 164.747 45.9604C165.499 46.1104 167.078 46.6354 167.968 46.9354C169.181 47.3083 169.465 47.8312 169.465 48.1312C169.465 48.7312 168.565 49.0291 167.377 49.0291C165.136 49.0291 161.238 48.6541 156.815 48.6541C155.229 48.6541 153.659 48.8749 151.867 48.8749C151.046 48.8749 150.077 48.6541 150.077 47.8333C150.077 47.3104 151.19 46.9374 151.798 46.7083C154.494 45.7374 154.641 44.9145 154.722 40.4249V28.0666C154.853 27.0785 154.643 26.0752 154.125 25.2229C153.098 24.4919 152.187 23.6104 151.424 22.6083C151.424 22.4541 151.566 21.4145 152.397 21.1854M206.298 33.7583C206.286 36.2583 205.673 38.7189 204.51 40.9335C203.347 43.1481 201.668 45.052 199.614 46.4854C196.562 48.5316 192.957 49.6007 189.28 49.5499C185.498 49.4016 181.866 48.0363 178.927 45.6583C177.243 44.2284 175.873 42.4663 174.905 40.4828C173.937 38.4994 173.39 36.3376 173.3 34.1333C173.254 31.9371 173.695 29.758 174.592 27.7516C175.488 25.7452 176.818 23.9612 178.486 22.527C181.842 19.7142 186.087 18.1776 190.471 18.1895C194.636 18.1712 198.638 19.7987 201.604 22.7163C204.569 25.6338 206.255 29.6039 206.294 33.7583M185.374 22.2999C183.655 23.8708 182.304 27.1645 182.304 32.0916C182.268 34.5166 182.573 36.9346 183.211 39.2749C184.781 44.5208 188.223 47.0604 191.371 47.0604C192.671 46.8792 193.853 46.2083 194.673 45.1854C196.608 42.1238 197.573 38.5521 197.444 34.9354C197.528 30.969 196.49 27.0592 194.449 23.6541C193.833 22.7843 193.028 22.0637 192.095 21.5452C191.162 21.0267 190.125 20.7236 189.059 20.6583C187.662 20.7048 186.339 21.2975 185.376 22.3083M240.933 33.7666C240.921 36.2653 240.309 38.7247 239.149 40.939C237.988 43.1533 236.313 45.058 234.262 46.4937C231.204 48.5395 227.593 49.6084 223.911 49.5583C220.134 49.4074 216.508 48.0422 213.573 45.6666C211.889 44.2367 210.52 42.4745 209.553 40.491C208.586 38.5074 208.041 36.3456 207.952 34.1416C207.908 31.9479 208.347 29.7712 209.239 27.7656C210.132 25.76 211.455 23.9745 213.115 22.5354C216.476 19.7259 220.723 18.1899 225.108 18.1979C229.274 18.1784 233.277 19.8055 236.243 22.7233C239.209 25.641 240.895 29.6117 240.933 33.7666ZM220.022 22.3083C218.301 23.8791 216.95 27.1729 216.95 32.0999C216.916 34.5241 217.217 36.9414 217.846 39.2833C219.414 44.5291 222.859 47.0687 226.023 47.0687C227.317 46.8793 228.492 46.2097 229.312 45.1937C231.248 42.1322 232.217 38.5611 232.092 34.9437C232.18 30.9678 231.139 27.0482 229.089 23.6374C228.47 22.7694 227.664 22.051 226.729 21.5354C225.795 21.0198 224.756 20.72 223.69 20.6583C222.998 20.6788 222.317 20.8352 221.686 21.1183C221.055 21.4014 220.486 21.8058 220.012 22.3083M261.767 19.0145C262.064 19.0145 262.88 19.3145 262.88 19.8333C262.88 19.6083 263.119 22.0062 263.119 22.8999C263.119 23.652 261.692 23.7979 261.157 23.7979H254.037C253.875 23.7968 253.716 23.847 253.583 23.9413C253.451 24.0356 253.352 24.1691 253.3 24.3229C253.3 28.0729 253.221 35.0291 253.221 39.4479C253.134 40.0866 253.198 40.7366 253.406 41.3468C253.614 41.957 253.961 42.5108 254.42 42.9645C255.477 43.7681 256.766 44.2121 258.095 44.2312C259.251 44.0918 260.37 43.7386 261.396 43.1895C261.763 42.903 262.201 42.7202 262.663 42.6604C262.872 42.6604 263.188 43.0416 263.188 43.8645C263.001 44.6871 262.583 45.4399 261.984 46.0354C260.872 47.1678 259.54 48.0634 258.07 48.6678C256.601 49.2723 255.023 49.5731 253.434 49.552C252.102 49.5752 250.783 49.2972 249.574 48.739C248.366 48.1809 247.299 47.357 246.456 46.3291C245.349 44.7921 244.87 42.893 245.115 41.0166C245.115 38.2541 245.403 27.3999 245.403 24.7666C245.403 24.2437 244.129 23.7249 242.552 23.1166C242.295 23.0149 242.073 22.8401 241.914 22.6138C241.755 22.3876 241.666 22.1198 241.658 21.8437C241.651 21.7087 241.682 21.5743 241.748 21.4561C241.814 21.3378 241.911 21.2404 242.03 21.1749C244.856 19.4599 247.492 17.4523 249.896 15.1854C250.802 14.1437 251.324 13.5374 251.629 13.5374C252.153 13.5374 253.125 14.2916 253.125 14.8062V18.5562C253.163 18.7221 253.248 18.8735 253.371 18.9924C253.493 19.1113 253.647 19.1927 253.814 19.227C255.456 19.227 261.446 19.0187 261.751 19.0187" fill="white"/>
</g>
<defs>
<clipPath id="clip0_3496_604">
<rect width="264" height="50" fill="white"/>
</clipPath>
</defs>
</svg>
