<svg width="150" height="50" viewBox="0 0 150 50" fill="none" xmlns="http://www.w3.org/2000/svg">
<g clip-path="url(#clip0_3496_550)">
<path d="M38.6119 30.0492C38.563 29.3139 38.4653 29.1668 38.3675 28.2845C38.0743 26.3237 36.6569 23.0394 35.1906 21.4217C34.7018 20.8335 34.3597 20.1472 33.7243 19.706C33.1867 19.3629 32.8934 19.1178 32.6491 18.8727C31.2317 17.9413 31.6715 18.1864 30.2541 17.206C29.9609 16.9119 26.6373 16.0786 25.7576 16.0296C23.8514 15.8825 22.5317 15.4413 20.5767 15.8335C18.084 16.0786 13.001 17.7943 12.9032 17.8433C12.61 17.9413 12.3656 18.0884 12.0723 18.2354C12.1212 17.3041 12.3656 15.7845 12.1212 15.1472L12.1701 11.2747C12.1701 10.7354 12.2189 10.0982 12.2678 9.85308C12.3167 8.92171 12.3167 9.36289 12.3167 8.72563V8.52955C12.2678 7.54916 12.3656 7.05897 12.3656 6.12759C12.3167 6.07857 12.3656 5.78446 12.3656 5.44132C12.3656 5.34328 12.3656 4.75505 12.4144 4.55897V4.41191V3.82367C12.4144 3.62759 12.3167 2.6472 12.2678 1.66681C12.3167 -0.0488763 9.77515 0.000143227 9.77515 0.000143227C9.6774 0.000143227 9.57965 0.0491628 9.53077 0.0491628C8.35775 0.294261 6.8426 0.588379 5.66958 1.02956C5.03419 1.27465 3.95892 1.37269 2.93253 1.56877C2.93253 1.56877 2.83478 1.56877 2.7859 1.61779C1.71063 1.86289 0.684241 2.25505 0.146607 3.08838C-0.146649 3.48054 -2.10211e-05 4.55897 1.02637 5.09818L1.22188 5.19622C2.49265 5.8825 2.73703 5.78446 3.71454 6.47073V6.42171C6.50047 7.74524 5.37632 11.3237 5.57183 14.2648C5.4252 14.559 5.6207 14.657 5.52295 14.706L5.47408 15.9315C5.47408 16.1766 5.47408 16.3727 5.47408 16.6178C5.37632 17.108 5.37632 17.5492 5.47408 17.7943C5.47408 21.5198 5.32745 25.3923 5.4252 29.1668C5.37632 33.9217 5.52295 39.0688 5.47408 43.1374C5.52295 44.1178 5.4252 44.8041 5.4252 45.6374L5.52295 48.6276C5.4252 49.0197 5.27857 49.3139 5.52295 49.559C6.10946 50.1472 7.77124 50.1962 8.40663 49.706C8.60213 49.559 8.69988 49.3139 8.60213 49.0198C9.72627 46.7158 10.8504 46.7158 13.001 47.7943L12.9521 47.7452C13.001 47.7452 13.001 47.7943 13.0498 47.7943C13.0987 47.7943 13.0987 47.8433 13.1476 47.8433H13.0987C15.1515 48.5296 16.8133 49.4119 19.0127 49.4609C19.0127 49.4609 19.3548 49.4609 19.5014 49.4609C23.1671 50.0001 30.694 47.8433 32.6491 45.4413L33.1867 44.9511C36.7058 41.7648 38.8563 36.8139 38.7585 32.6962C38.7585 31.8139 38.8074 30.8335 38.6119 30.0492ZM30.694 39.755C30.7429 39.8041 29.4232 42.0099 29.4232 42.0099C29.3255 42.255 28.5924 42.8923 28.5435 42.9903C28.2014 43.1864 27.8592 43.6276 27.566 43.7747L26.784 44.2648C26.4418 44.4609 25.4154 45.1472 25.0244 45.2452C24.4379 45.3433 22.434 45.6864 21.3587 45.8825C21.3587 45.8825 21.3587 45.8825 21.3099 45.8825C21.261 45.8825 21.1632 45.8825 21.1144 45.8825C20.9677 45.8825 20.87 45.9315 20.9188 45.9315C20.8211 45.9805 20.6745 45.9805 20.6745 45.9805C20.3812 46.0786 18.6217 45.8335 17.9374 45.7354C15.5914 45.0001 13.4408 43.6766 13.0498 41.2747C12.7077 39.559 12.7566 37.255 12.6588 35.1962C12.61 32.9903 12.5122 30.5394 12.4633 28.6276L12.5611 27.4511C12.61 25.8335 12.4144 23.0884 12.8055 21.8139L12.7566 21.8629C13.0987 21.4707 13.9785 20.9805 14.8582 20.7845L15.0537 20.6864C15.1026 20.4903 20.7722 19.2158 21.1144 19.8041L21.4076 19.8531C23.5093 20.1962 25.5132 20.8825 26.784 22.206L27.8103 22.7452L28.4457 23.1864C29.4721 24.1668 30.2541 25.9805 30.2541 25.9805L30.8406 26.8139L31.085 27.3531C31.5249 27.9413 31.4272 28.0394 31.6227 28.7747C31.5738 28.9707 31.7693 30.2943 31.8182 30.5394C31.9159 31.4217 31.867 32.0099 32.0137 32.8433C31.5738 35.0492 31.7693 37.8923 30.694 39.755Z" fill="white"/>
<path d="M72.1407 39.461C70.5767 40.4904 71.2121 40.2453 70.5767 40.6865C69.4525 41.7159 68.2306 42.3531 67.0576 43.0394C66.52 43.2355 66.0312 43.6276 65.4447 43.7257C64.956 43.8237 64.6627 43.8237 64.3694 43.8237C63.0987 44.0688 63.3919 43.9708 62.1212 44.1178C61.8279 44.0198 59.1397 43.8237 58.4555 43.6766C57.0869 42.9904 56.0117 42.6963 54.8875 41.7159C51.8084 39.3139 49.9022 34.8041 49.8533 31.0296C49.8533 30.9806 49.8533 30.9806 49.8533 30.9315C49.8533 30.7355 49.8533 30.5394 49.8533 30.3433C49.8533 30.2453 49.8533 30.1472 49.8044 30.0492C49.8533 27.6963 49.7067 27.157 52.5904 27.6472C53.0302 27.6472 53.5679 27.6963 53.7634 27.6963C54.5454 27.7453 53.9589 27.7453 54.5454 27.7453H54.8875C55.7184 27.6963 56.1583 27.8433 56.9403 27.7943C56.9892 27.7943 57.2824 27.7453 57.5757 27.7453C57.5757 27.8433 58.4555 27.7453 58.4066 27.7943H58.8953C59.1886 27.7453 61.6813 27.5982 62.4144 27.5002C63.2942 27.5002 64.5649 27.5982 65.2003 27.5982C65.9335 27.6472 71.7497 27.5492 72.434 27.3531C72.7272 27.3041 72.7761 26.5688 72.7761 25.8825C72.7761 25.8825 72.7761 25.8825 72.7761 25.6374C72.7761 25.5884 72.7761 25.5394 72.7761 25.4414C72.6295 24.2159 72.6783 24.0198 72.3362 22.9414V22.9904C70.6744 17.7453 65.0048 13.3825 59.1886 14.2159C55.4252 14.657 51.1241 15.5884 48.4848 18.7747C45.4056 21.961 44.0371 26.4217 43.4506 29.9021C43.3528 30.7355 43.2062 31.3727 43.0596 32.059C43.0596 35.3433 43.7438 39.608 45.8944 42.7943C47.214 44.1668 47.4584 45.6865 49.2668 46.5198C49.2668 46.4708 49.7067 46.8629 49.8533 46.9119C52.1016 48.9708 58.6998 49.608 61.6324 49.0688L62.2678 48.9708C66.2267 47.7943 69.9902 45.8825 72.434 43.1865C72.825 42.8923 73.6559 41.3727 73.4115 40.6374C73.3137 40.4904 73.3137 39.4119 72.1407 39.461ZM52.2971 21.4708C52.5904 21.1276 52.9325 20.6864 53.2746 20.3433L55.4252 18.6276C56.2561 17.9904 57.4291 18.0394 58.26 17.6963L58.7976 17.6472C59.7751 17.4512 60.606 17.7453 61.4858 17.8433H61.4369L62.2678 18.0394L62.952 18.2355C63.8807 18.5296 64.9071 19.657 65.0537 19.9021L65.1515 20.0002C65.8357 20.7355 65.8846 21.5198 66.0312 22.108C66.1779 22.2551 66.2267 22.9904 66.2267 23.1864C66.2267 23.1864 66.4711 24.1668 65.2003 24.0198H64.7116C64.7116 24.0198 62.8054 24.1668 62.7077 24.1668H62.7565L61.5346 24.0688C60.3127 24.0688 58.0645 24.2159 58.1133 24.3139H56.1094C56.1094 24.3139 55.6695 24.2649 55.474 24.2649C55.474 24.2649 53.7145 24.3629 53.4701 24.461C52.1994 24.3139 51.8083 24.608 51.3685 24.2649C50.782 23.8727 51.955 21.961 52.2971 21.4708Z" fill="white"/>
<path d="M93.6463 46.0778C91.8379 45.6367 90.5672 45.4406 89.7363 44.9994C89.1009 44.4602 89.3453 44.1171 89.1498 43.8229C89.1498 43.3327 89.1009 43.2347 89.052 42.5974C89.1009 42.0092 89.052 40.2935 89.052 39.9504C89.1009 38.921 88.9054 37.7935 88.8565 36.9602V35.4406C88.8565 34.9504 88.9054 34.7053 88.9543 34.4602C88.9543 33.2347 88.9054 33.4798 88.9543 32.2053C89.052 31.9112 88.9543 29.4112 88.9543 29.068V29.019C89.0031 27.5484 88.8565 26.6171 88.8565 25.1465C88.9543 21.372 88.9054 17.2543 88.9054 13.6759C88.9054 13.6269 88.9054 13.5778 88.9054 13.5778C88.9054 13.5288 88.9054 13.3818 88.9054 13.2347C88.9054 13.1857 88.9054 13.1367 88.9054 13.0876C88.9054 12.6955 88.8565 12.1563 88.8565 11.8622L88.9543 7.35235C88.9543 6.96019 89.0031 6.47 89.052 6.27392C89.1009 5.58764 89.052 6.07784 89.052 5.53862L89.1009 5.24451C89.052 4.50921 89.1986 4.16607 89.1498 3.43078C89.1498 3.38176 89.1009 3.13666 89.1009 2.89156C89.1986 2.89156 89.1009 2.10725 89.1498 2.15627C89.1009 1.42098 89.0031 0.832741 88.0745 0.783721C88.0256 0.636663 85.8751 1.02882 84.9953 1.37196C83.7734 1.71509 82.5026 2.20529 81.7206 2.45039C80.8897 2.74451 77.5173 3.18568 77.0285 4.55823C76.5398 5.93078 78.1038 6.27392 79.0325 6.71509C79.9122 7.10725 80.5965 7.30333 80.9875 7.59745C83.3335 9.75431 82.0139 16.7641 82.1116 19.6563C82.1605 22.8916 82.0139 26.372 82.0628 29.7543C82.1116 33.3818 82.1605 37.2543 82.2094 40.3425C82.2094 41.0778 82.2094 41.6171 82.1605 42.2543C82.2094 45.6367 80.4499 45.1465 77.2729 46.1269C76.4909 46.3229 75.8066 46.2739 75.7089 46.6661C75.6111 47.0582 75.7578 47.8425 75.7578 47.9406C76.0999 49.9504 79.0325 48.6269 79.619 48.97C79.619 48.921 79.8633 48.921 79.9611 48.921C80.2544 48.7739 89.6385 48.6269 90.2739 48.7739H90.8115L93.4997 48.921C95.8946 49.1171 94.8682 45.6367 93.6463 46.0778Z" fill="white"/>
<path d="M114.614 46.0787C113.441 45.5885 112.023 45.2454 111.437 44.8042C111.095 44.6571 111.192 44.0689 110.997 43.8238C110.997 43.4807 110.85 41.0787 110.85 40.1473V38.6767L110.801 37.4022C110.801 37.0591 110.801 36.863 110.85 36.6669C110.801 35.7356 110.899 36.0297 110.899 35.0003C110.948 34.7552 110.801 32.5493 110.801 32.2552V32.4022C110.85 31.2748 110.997 30.5395 110.997 29.412C111.095 26.6669 110.997 23.0885 110.997 20.4414C110.997 20.2454 110.997 19.9022 110.997 19.5101C110.997 19.216 110.997 18.9218 110.997 18.6767C111.046 17.5003 111.144 16.2258 110.997 15.0493C111.192 14.4611 110.166 13.3336 110.068 13.5787C109.873 13.5297 109.873 13.4807 109.824 13.4807C109.824 13.4316 109.677 13.4316 109.677 13.4316C108.7 13.5787 107.771 13.9218 105.963 16.4218C105.376 17.1571 104.105 17.9905 103.275 18.3826C102.444 18.7748 99.9022 19.314 99.6089 20.5885C99.3157 21.814 101.759 22.5493 102.541 22.8924C103.275 23.2356 104.057 23.2356 104.448 24.314C104.496 24.4611 104.545 24.6081 104.643 24.7552C105.132 26.765 104.252 30.4414 104.643 32.7454C104.692 35.2454 104.643 37.9414 104.643 40.5395C104.839 43.7748 104.301 45.4905 101.271 45.6865L99.8044 45.9316C98.9735 45.1963 95.65 48.8728 99.2668 49.0689L102.981 48.8238C104.252 48.7748 105.23 48.8238 106.5 48.7748C106.5 48.7748 106.696 48.7258 106.794 48.7258C106.94 48.6277 114.272 48.9218 114.76 48.9709L115.151 49.0689C115.982 49.1179 117.351 48.6277 116.862 47.4022C115.64 46.1277 115.347 46.5199 114.614 46.0787Z" fill="white"/>
<path d="M103.128 5.19665C103.128 7.01038 103.372 7.99077 104.203 8.52999C104.399 8.67704 104.643 8.77508 104.936 8.87312L106.012 9.36332C106.696 9.65744 107.429 9.85351 107.967 9.36332L108.309 9.3143L110.019 8.48097H109.971C110.313 8.38293 110.41 8.13783 110.557 7.84371V7.74567C110.704 7.74567 111.192 5.88293 111.241 5.83391V5.73587C111.437 5.14763 111.095 4.41234 110.899 3.87312L110.606 3.57901V3.43195C110.166 2.10842 107.869 1.61822 107.869 1.61822C107.136 1.02999 105.523 1.91234 105.523 1.91234L104.545 2.45155H104.448C104.448 2.45155 103.177 3.23587 103.128 5.09861C103.128 5.04959 103.128 5.14763 103.128 5.19665C103.128 5.14763 103.128 5.14763 103.128 5.19665Z" fill="white"/>
<path d="M146.334 1.07896C141.105 -0.195545 134.995 1.71622 132.014 5.09857C131.329 5.93191 130.743 6.47112 130.107 7.10838C128.446 9.21622 126.197 13.1378 126.002 16.4221C125.953 17.5986 126.1 18.9221 125.611 20.0005C125.415 20.3437 125.464 20.8829 125.22 21.177C125.024 21.4221 124.78 21.6672 124.487 21.9123C124.389 22.0103 124.242 22.1084 124.193 22.2064C123.705 22.5496 123.02 22.5986 122.238 22.8927C122.238 22.8927 121.554 23.0397 121.408 23.1378C121.505 23.4319 119.355 23.4809 119.404 25.1966C119.404 25.7358 120.088 26.4221 120.821 26.5201C121.847 26.6182 123.363 26.226 124.389 26.6672C126.344 26.4711 125.22 32.6966 125.611 32.2554L125.66 32.9907C124.976 37.2554 127.028 44.6574 123.705 45.4417C122.874 45.6868 121.896 45.9809 121.163 46.226C120.87 45.9809 119.355 46.8143 119.648 47.7456C119.795 48.0397 120.283 48.2848 120.283 48.2848C120.723 48.8731 121.505 48.9711 122.581 48.8731C124.291 48.775 126.051 48.775 127.566 48.677L129.912 48.579C130.547 48.5299 130.938 48.579 131.28 48.628C132.893 48.579 132.454 48.677 134.213 48.726C134.653 48.8241 138.661 48.775 139.198 48.8241C139.883 49.0201 142.278 48.1378 140.371 46.3241C139.541 46.177 138.71 45.9809 137.683 45.8339C131.329 46.5201 132.063 40.2456 132.063 35.4417C132.063 34.8045 132.014 29.9515 131.965 29.4123C131.965 28.3339 131.965 27.2554 132.014 26.177C132.307 26.128 132.454 26.079 132.649 26.079C133.578 26.0299 133.138 26.079 133.822 26.0299H134.018C135.044 25.9319 135.533 26.079 136.51 26.0299C136.559 25.9809 136.901 25.9809 137.243 25.9809C137.243 26.079 138.319 25.9319 138.27 26.0299H138.905C139.101 26.0299 140.176 25.9319 141.3 25.7848C142.082 25.2946 142.424 24.9025 142.62 24.5594C142.864 24.2162 142.815 23.4319 142.766 23.0397C142.717 22.5496 142.717 21.5692 141.349 21.4221C139.638 21.226 132.258 21.226 131.965 21.128C131.671 21.0299 131.671 19.2162 131.769 18.2848C131.867 17.5005 131.525 14.8045 131.671 13.1378C132.454 8.03975 135.973 3.9221 141.447 6.9123C143.451 7.40249 146.041 9.21622 148.876 7.45151C151.662 5.09857 149.022 1.12798 146.334 1.07896Z" fill="white"/>
</g>
<defs>
<clipPath id="clip0_3496_550">
<rect width="150" height="50" fill="white"/>
</clipPath>
</defs>
</svg>
