<svg width="130" height="60" viewBox="0 0 130 60" fill="none" xmlns="http://www.w3.org/2000/svg">
<g clip-path="url(#clip0_3496_607)">
<path d="M45.3521 43.9752H54.7208V0L45.3521 2.6087V43.9752Z" fill="white"/>
<path d="M77.9561 43.975H87.3468V13.8105L77.9561 15.8931V43.975Z" fill="white"/>
<path d="M97.3956 14.0527C94.0167 14.0527 91.7348 15.1927 90.0015 16.6395C90.901 16.1792 91.8226 15.9599 92.8099 15.9599C97.5491 15.9599 97.5491 21.2869 97.5491 23.0407V43.9541H106.94V24.2683C106.94 17.4945 103.736 14.0527 97.3956 14.0527Z" fill="white"/>
<path d="M61.6538 43.975H71.0445V13.8105L61.6538 15.8931V43.975Z" fill="white"/>
<path d="M66.3458 -0.00124478L60.8848 5.45508L66.3458 10.9114L71.8069 5.45508L66.3458 -0.00124478Z" fill="white"/>
<path d="M11.1679 24.0919C11.1679 16.2 12.0675 5.98448 19.1325 3.92383C7.56962 5.08568 0 13.0652 0 24.4865C0 36.8504 7.87679 44.1065 21.6557 44.6107C15.1392 43.4927 11.1679 35.8639 11.1679 24.0919Z" fill="white"/>
<path d="M29.4888 29.6595V44.0622C32.7141 43.4484 35.6103 42.2865 38.4188 40.5328V26.6562H26.4829L29.4888 29.6595Z" fill="white"/>
<path d="M37.2556 9.71183C35.2371 7.93616 30.9147 4.77942 24.9468 3.99023L32.7797 14.2058L37.2556 9.71183Z" fill="white"/>
<path d="M127.214 42.748C123.242 42.748 123.242 38.8898 123.242 37.6183V17.3845H126.928L128.179 16.135H123.242V5.06445C119.973 9.9311 115.782 14.1182 110.89 17.3845H113.874V37.0484C113.874 42.0904 116.594 44.6333 121.97 44.6333C124.888 44.6333 127.389 43.8661 130 42.1342C129.013 42.5288 128.091 42.748 127.214 42.748Z" fill="white"/>
<path d="M28.6987 58.4869L24.9688 50.332H26.6143L29.4008 56.7332L32.1654 50.332H33.7671L30.059 58.4869H28.6987Z" fill="white"/>
<path d="M35.1934 58.4212V50.332H38.5284C41.2929 50.332 43.3115 52.02 43.3115 54.3437C43.3115 56.6894 41.2929 58.3993 38.5284 58.3993H35.1934V58.4212ZM36.6634 57.2155H38.5064C40.4372 57.2155 41.7098 56.0755 41.7098 54.3876C41.7098 52.6996 40.3934 51.5158 38.5064 51.5158H36.6634V57.2155Z" fill="white"/>
<path d="M46.6463 50.332H45.1543V58.4212H46.6463V50.332Z" fill="white"/>
<path d="M51.8901 58.4869L48.1602 50.332H49.8057L52.5922 56.7332L55.3568 50.332H56.9585L53.2285 58.4869H51.8901Z" fill="white"/>
<path d="M62.2902 58.5753C59.6573 58.5753 57.6826 56.7777 57.6826 54.4102C57.6826 52.0426 59.7231 50.2012 62.3122 50.2012C64.9451 50.2012 66.9197 51.9988 66.9197 54.3663C66.9197 56.7119 64.9012 58.5753 62.2902 58.5753ZM62.2902 51.4069C60.5349 51.4069 59.2185 52.6783 59.2185 54.3444C59.2185 56.0543 60.5569 57.3258 62.3122 57.3258C64.0674 57.3258 65.3839 56.0543 65.3839 54.3882C65.3839 52.7003 64.0674 51.4069 62.2902 51.4069Z" fill="white"/>
<path d="M71.396 58.4869L67.666 50.332H69.3116L72.0981 56.7332L74.8626 50.332H76.4643L72.7344 58.4869H71.396Z" fill="white"/>
<path d="M10.9268 57.8523C9.76394 57.8523 9.01795 57.2385 8.53525 56.537V57.6989H6.91162V47.4395H8.53525V51.5169C9.06183 50.7496 9.78588 50.1358 10.9268 50.1358C12.5943 50.1358 14.218 51.5169 14.218 53.9941C14.218 56.4712 12.6163 57.8523 10.9268 57.8523ZM10.5538 51.6046C9.45677 51.6046 8.49137 52.5472 8.49137 53.9941C8.49137 55.4409 9.45677 56.3836 10.5538 56.3836C11.6728 56.3836 12.5724 55.4628 12.5724 53.9941C12.5724 52.5253 11.6509 51.6046 10.5538 51.6046Z" fill="white"/>
<path d="M19.2426 57.9183C18.6721 59.4309 18.0578 60.0009 16.9169 60.0009C16.2367 60.0009 15.7321 59.8255 15.2494 59.5405L15.7979 58.269C16.0831 58.4444 16.4122 58.554 16.7413 58.554C17.2021 58.554 17.4873 58.3348 17.7506 57.6991L14.8105 50.2676H16.5439L18.5405 55.77L20.3616 50.2676H22.0511L19.2426 57.9183Z" fill="white"/>
</g>
<defs>
<clipPath id="clip0_3496_607">
<rect width="130" height="60" fill="white"/>
</clipPath>
</defs>
</svg>
