<svg width="150" height="50" viewBox="0 0 150 50" fill="none" xmlns="http://www.w3.org/2000/svg">
<g clip-path="url(#clip0_3496_530)">
<path d="M118.924 48.9286V36.7857H131.952C141.873 36.7857 149.88 28.8095 149.88 18.9286C149.88 9.04762 141.873 1.07143 131.952 1.07143H107.57V49.0476H118.924V48.9286ZM118.924 27.2619V10.9524H130.518C135.06 10.9524 138.765 14.6429 138.765 19.1667C138.765 23.6905 135.06 27.381 130.518 27.381H118.924V27.2619ZM64.9004 48.9286V18.8095H65.0199L84.741 47.5C85.4582 48.4524 86.2948 48.9286 88.0876 48.9286H97.5299V0.952381H86.2948V31.0714H86.1753L66.4542 2.38095C65.7371 1.42857 64.9004 0.952381 63.1076 0.952381H53.6653V48.9286H64.9004ZM46.0159 30.3571H33.4661C32.749 35.3571 29.2829 39.2857 23.7849 39.2857C15.6574 39.2857 12.6693 32.1429 12.6693 25C12.6693 17.8571 15.7769 10.7143 23.7849 10.7143C28.2072 10.7143 32.51 12.9762 33.4661 18.0952H46.0159C45.6574 6.54762 34.4223 0 24.0239 0C9.44223 0 0 11.0714 0 25C0 38.9286 9.44223 50 24.0239 50C36.2151 50 45.2988 42.7381 46.0159 30.3571Z" fill="white"/>
</g>
<defs>
<clipPath id="clip0_3496_530">
<rect width="150" height="50" fill="white"/>
</clipPath>
</defs>
</svg>
