<svg width="258" height="50" viewBox="0 0 258 50" fill="none" xmlns="http://www.w3.org/2000/svg">
<g clip-path="url(#clip0_3496_558)">
<path d="M79.7584 28.6334C79.7584 36.2642 75.5491 44.4764 69.2352 44.4764C63.4293 44.4764 58.712 38.2991 58.712 30.7409V1.45312H49.4951V30.6682C49.4951 41.3514 56.4622 49.927 65.0259 49.927C71.9204 49.927 77.7989 44.331 79.831 36.5549L80.4116 48.4735H89.0479V1.45312H79.831V28.6334H79.7584Z" fill="white"/>
<path d="M21.4819 18.8227C15.4582 17.2238 9.1443 14.8983 9.1443 10.2471C9.1443 5.59593 14.1519 1.81686 20.3932 1.81686C26.562 1.81686 31.6422 5.59593 31.6422 10.2471V13.5901H38.9722C38.9722 6.03198 30.6262 0 20.3932 0C10.1603 0 1.88692 6.03198 1.88692 13.5174C1.88692 21.0029 9.4346 24.2733 19.3772 26.8895C25.8363 28.6337 32.5857 31.7587 32.5857 37.6453C32.5857 43.532 27.1426 48.2558 20.4658 48.2558C13.789 48.2558 8.27342 43.6047 8.27342 37.718V34.3023H0C0 42.9506 9.1443 49.9273 20.3932 49.9273C31.6422 49.9273 40.7865 42.9506 40.7865 34.3023C40.7865 25.6541 32.3679 21.7297 21.4819 18.8227Z" fill="white"/>
<path d="M254.444 16.5703C252.485 16.5703 250.96 18.1692 250.96 20.0587C250.96 22.0209 252.557 23.5471 254.444 23.5471C256.331 23.5471 257.928 21.9482 257.928 20.0587C258 18.1692 256.404 16.5703 254.444 16.5703ZM254.444 21.6575C253.573 21.6575 252.92 20.9308 252.92 20.1314C252.92 19.2593 253.646 18.6052 254.444 18.6052C255.242 18.6052 255.968 19.3319 255.968 20.1314C255.968 20.9308 255.315 21.6575 254.444 21.6575Z" fill="white"/>
<path d="M210.246 31.0325C214.528 29.9424 217.576 27.2535 217.576 24.0558C217.576 19.9133 212.424 16.5703 206.11 16.5703C199.796 16.5703 194.643 19.9133 194.643 24.0558L198.78 25.5819V24.0558C198.78 20.4947 202.046 17.5878 206.037 17.5878C210.029 17.5878 213.294 20.4947 213.294 24.0558C213.294 27.6168 210.029 30.5238 206.037 30.5238H202.118V31.4686H206.037C210.029 31.4686 213.222 35.175 213.222 39.6808C213.222 44.1866 210.101 47.9657 206.182 47.9657C202.191 47.9657 198.997 44.2593 198.997 39.7535H193.627C193.627 44.8407 199.288 48.9831 206.182 48.9831C213.149 48.9831 218.738 44.8407 218.738 39.7535C218.738 35.6837 215.181 32.268 210.246 31.0325Z" fill="white"/>
<path d="M222.657 19.0398H239.494L224.399 47.9643H228.535C229.406 47.9643 230.277 47.4555 230.712 46.6561L245.953 17.5137H222.657V19.0398Z" fill="white"/>
<path d="M166.049 0C155.961 0 152.768 13.8081 152.768 13.8081C151.679 4.36046 147.398 0 141.301 0C132.738 0 129.254 9.88372 128.311 12.936V1.45349H119.094V48.4738H128.311V20.5669C128.311 16.061 131.214 5.08721 137.31 5.08721C141.156 5.08721 143.479 9.6657 143.479 18.8227V48.4738H152.986C152.986 48.4738 152.986 23.9099 152.986 20.4942C152.986 15.9884 155.889 5.01453 161.985 5.01453C165.831 5.01453 168.154 9.59302 168.154 18.75V48.4012H177.806V18.8227C177.806 5.88663 173.089 0 166.049 0Z" fill="white"/>
<path d="M103.49 14.8984H104.579L107.409 2.39844H100.732L103.49 14.8984Z" fill="white"/>
<path d="M103.49 35.0293L100.732 47.602H107.409L104.651 35.0293H103.49Z" fill="white"/>
</g>
<defs>
<clipPath id="clip0_3496_558">
<rect width="258" height="50" fill="white"/>
</clipPath>
</defs>
</svg>
