<svg width="201" height="50" viewBox="0 0 201 50" fill="none" xmlns="http://www.w3.org/2000/svg">
<g clip-path="url(#clip0_3496_571)">
<path d="M23.0919 2.81187C23.0919 3.01268 23.0919 3.01268 23.0919 3.21348C23.0919 4.4183 21.6863 5.02071 20.4815 4.6191C20.0799 4.2175 19.6783 3.81589 19.0759 3.41428C17.8711 2.61107 16.0639 2.41027 14.6583 3.21348C11.6464 4.81991 10.8432 8.83597 10.2408 11.848C10.2408 12.2496 9.63836 17.8721 9.83916 17.8721H16.6663V18.8761H9.83916V49.3982H5.42158V18.8761H0V17.8721C1.80719 17.8721 3.61439 17.8721 5.42158 17.8721C5.42158 17.8721 5.62238 15.8641 6.02398 14.8601C6.82717 10.844 8.63437 7.63115 11.6464 4.81991C13.6543 2.81187 16.8671 1.40625 19.8791 1.40625C20.4815 1.40625 21.6863 1.60705 22.2887 1.80786C22.4895 2.00866 22.8911 2.41027 23.0919 2.81187Z" fill="white"/>
<path d="M24.899 18.2734H20.4814V49.1971H24.899V18.2734Z" fill="white"/>
<path d="M104.616 0H100.199V49.3976H104.616V0Z" fill="white"/>
<path d="M137.347 18.0723H132.929V49.1968H137.347V18.0723Z" fill="white"/>
<path d="M179.715 18.0723H175.298V49.1968H179.715V18.0723Z" fill="white"/>
<path d="M38.1518 20.081C38.1518 20.6834 37.7502 21.2859 37.1478 21.6875C36.3446 21.8883 35.3406 21.6875 34.5374 21.0851C34.1358 20.6834 33.3326 20.2818 32.3286 20.2818C29.5174 20.2818 27.911 22.6915 26.7062 24.9003C25.5014 26.9083 25.0998 29.1172 24.899 31.326C24.899 32.1292 24.6982 32.7316 24.6982 33.5349V26.7075C24.6982 26.7075 25.7022 23.0931 29.7182 20.2818C31.3246 19.2778 33.3326 18.4746 35.3406 18.4746C36.3446 18.4746 37.7502 18.8762 37.951 19.8802C38.1518 19.8802 38.1518 20.081 38.1518 20.081Z" fill="white"/>
<path d="M72.4883 35.3414C72.4883 35.3414 69.2755 47.1888 56.2236 46.5864C43.1716 45.984 41.766 33.9358 42.5692 30.5221H64.4563C64.4563 30.5221 67.2675 30.3213 67.4683 27.7109C67.6691 25.1004 65.2595 16.8675 54.6172 17.8715C43.774 18.8755 39.9588 28.1125 39.1556 33.1326C38.5532 37.751 40.5612 50.4016 55.0188 50C67.8699 49.5984 73.0907 35.5422 73.0907 35.5422H72.4883V35.3414ZM42.9708 26.9077C44.5772 22.49 48.1916 19.4779 52.81 18.8755C61.0427 17.6707 62.6491 25.3012 62.6491 27.3093C62.6491 29.5181 61.0427 29.5181 61.0427 29.5181H42.77C42.3684 29.5181 42.77 27.1085 42.9708 26.9077Z" fill="white"/>
<path d="M92.1669 21.4868C92.1669 21.8884 92.1669 22.0892 91.9661 22.29C91.3637 23.0932 89.9581 22.8924 89.3557 22.29C88.5525 21.6876 88.3517 20.6836 87.7493 19.8804C86.3437 18.0731 84.1349 17.8723 81.9261 17.8723C80.1189 17.8723 78.1109 18.2739 76.5046 19.2779C76.5046 19.2779 76.5046 19.2779 76.3038 19.2779C74.2958 20.6836 73.4926 22.6916 74.2958 24.9004C76.103 29.9205 87.5485 30.9245 91.5645 34.3382C95.5805 37.7518 95.1789 43.7759 90.9621 46.9888C86.5445 50.4024 78.9141 50.0008 73.8942 48.1936C72.6894 47.792 71.083 46.788 71.4846 45.1816C71.8862 43.7759 73.4926 43.5751 74.4966 44.3784C75.099 44.78 75.5006 45.784 75.9022 46.5872C76.3038 47.1896 77.3077 47.9928 77.9101 48.1936C79.9181 48.9968 83.1309 48.796 85.1389 48.3944C86.9461 47.9928 89.1549 47.3904 90.3597 45.784C91.1629 44.5792 91.3637 43.1735 91.3637 41.9687C91.1629 40.5631 90.3597 39.3583 89.3557 38.3543C87.1469 36.3462 84.1349 35.3422 81.3237 34.539C77.3078 33.535 71.6854 30.9245 71.2838 26.3061C70.8822 23.0932 73.4926 19.8804 76.103 18.2739C79.3157 16.4667 84.1349 16.4667 87.5485 17.2699C88.7533 17.6715 89.9581 18.0731 90.9621 18.8763C91.3637 19.2779 91.7653 19.6796 91.9661 20.0812C92.1669 21.0852 92.1669 21.286 92.1669 21.4868Z" fill="white"/>
<path d="M125.7 26.5055C125.098 23.4934 123.893 20.4814 120.881 19.0757C118.471 17.6701 115.259 17.4693 112.447 18.2725C110.038 18.8749 108.03 20.2806 106.423 22.0878C105.62 22.891 105.018 23.6942 104.415 24.6982C104.415 24.6982 104.415 24.899 104.215 24.899C103.612 25.903 103.612 27.3087 103.01 28.3127C104.215 25.903 105.62 23.4934 107.628 21.6862C109.034 20.2806 111.042 19.4773 113.05 19.2765C116.664 19.0757 119.676 21.2846 120.881 24.6982C121.483 26.5055 121.282 29.9191 121.282 29.9191V49.397H125.7V29.9191C125.901 29.9191 125.901 27.5095 125.7 26.5055Z" fill="white"/>
<path d="M200.799 26.5055C200.197 23.4934 198.992 20.4814 195.98 19.0757C193.37 17.6701 190.358 17.4693 187.546 18.2725C185.137 18.8749 183.129 20.2806 181.522 22.0878C180.719 22.891 180.117 23.6942 179.514 24.6982C179.514 24.6982 179.514 24.899 179.314 24.899C178.711 25.903 178.711 27.3087 178.109 28.3127C179.314 25.903 180.719 23.4934 182.727 21.6862C184.133 20.2806 186.141 19.4773 188.149 19.2765C191.763 19.0757 194.775 21.2846 195.98 24.6982C196.582 26.5055 196.382 29.9191 196.382 29.9191V49.397H200.799V29.9191C201 29.9191 201 27.5095 200.799 26.5055Z" fill="white"/>
<path d="M147.186 23.2934C147.386 23.695 147.989 23.8958 148.39 23.8958C148.993 23.8958 149.595 23.4942 149.997 23.0926C150.398 22.2894 150.398 21.2853 150.599 20.4821C151.001 19.6789 151.603 19.0765 152.406 18.6749C154.816 17.4701 158.43 17.4701 160.639 19.2773C161.041 19.4781 161.242 19.8797 161.442 20.0805C162.446 21.2853 162.848 22.8918 162.647 24.4982C162.446 26.3054 161.442 27.3094 160.037 28.3134C158.029 29.7191 155.82 30.9239 153.41 31.9279C153.41 31.9279 140.961 36.7472 142.166 44.1769C143.37 51.4058 153.41 50.0002 156.824 46.9881C160.238 43.9761 162.446 40.5624 162.446 40.5624V46.1849C162.446 46.1849 162.446 50.0002 165.659 49.5986C168.872 49.197 170.679 46.7873 170.679 46.7873L170.278 46.5865C170.278 46.5865 169.073 48.9962 167.466 47.189C167.466 47.189 166.864 46.3857 166.864 44.9801V39.3576C166.864 39.3576 167.065 37.7512 165.458 37.5504C164.053 37.3496 162.848 38.1528 162.045 39.7592C161.242 41.3657 157.627 46.5865 153.812 47.189C149.997 47.7914 146.583 45.5825 146.182 42.3697C145.78 39.1568 147.386 36.3456 150.198 34.7392C152.607 33.3335 155.218 32.3295 157.627 31.1247C160.037 29.9199 162.848 28.9159 164.856 27.1086C166.262 25.9038 167.266 23.8958 166.462 22.0885C165.258 19.2773 161.844 18.0725 159.033 17.6709C157.025 17.4701 154.816 17.4701 152.808 18.0725C150.8 18.4741 148.39 19.4781 146.985 21.0845C146.583 21.6869 146.182 22.2894 146.382 23.0926C146.985 23.0926 147.186 23.2934 147.186 23.2934Z" fill="white"/>
<path d="M138.752 9.43702C137.949 8.63381 136.544 8.83462 136.142 9.83863C135.54 11.6459 133.933 14.0555 131.323 14.0555V14.4571C131.524 14.4571 131.724 14.4571 132.126 14.4571C135.339 13.8547 137.548 12.6499 138.752 11.6459C139.355 11.2443 139.556 10.0394 138.752 9.43702Z" fill="white"/>
</g>
<defs>
<clipPath id="clip0_3496_571">
<rect width="201" height="50" fill="white"/>
</clipPath>
</defs>
</svg>
