<svg width="149" height="60" viewBox="0 0 149 60" fill="none" xmlns="http://www.w3.org/2000/svg">
<g clip-path="url(#clip0_3496_585)">
<path d="M8.46203 8.03516H0.0309965V10.1448H0.371958C1.36384 10.1448 1.48783 10.424 1.48783 15.4498C1.48783 15.4498 1.48783 33.2885 1.48783 33.94C1.42584 35.5843 1.17787 35.6774 0.371958 35.6774H0V37.787H6.29228V35.6774H5.95132L5.79634 35.6463C5.61036 35.4602 5.61036 34.2813 5.64136 32.544C5.64136 31.9235 5.67235 31.2099 5.67235 30.3723V25.0362H8.49303C11.9956 25.0362 14.4134 21.5615 14.4134 16.5667C14.3824 11.6339 11.8716 8.03516 8.46203 8.03516ZM9.98086 16.5667C9.98086 19.2658 9.14396 22.182 6.78823 22.182H5.61036V10.9204H6.78823C9.14396 10.9204 9.98086 13.8366 9.98086 16.5667ZM48.5095 8.03516H53.6859V10.1448H53.3449C52.756 10.1448 52.508 10.7653 51.7641 12.8749C51.6091 13.2782 51.4541 13.7125 51.2991 14.1779L47.3936 24.5708V30.3723C47.3936 30.8997 47.3936 31.3961 47.3936 31.8304C47.3936 33.971 47.3936 35.1499 47.7036 35.4912C47.8275 35.6153 48.0445 35.6774 48.4785 35.6774H48.8194V37.787H41.8452V35.6774H42.1862C42.9921 35.6774 43.2711 35.6774 43.3021 33.6608V33.2575C43.3021 32.9783 43.3021 32.668 43.3021 32.3888C43.3021 31.9855 43.3021 31.5202 43.3021 31.0238V24.726L38.9316 13.1541C37.9397 10.486 37.7847 10.1448 36.7618 10.1448H36.4208V8.03516H36.7618C36.7618 8.03516 39.2415 8.00414 40.0474 8.00414H40.2334H41.8452L42.3102 9.21406C42.6511 9.74147 42.9301 10.6101 43.3331 11.758C43.488 12.2234 43.674 12.7508 43.891 13.3402L46.6497 20.6308L49.4084 13.3092C50.0903 11.5098 49.9973 10.7342 49.7803 10.424C49.6253 10.2068 49.3464 10.0827 48.8814 10.0827H48.5405L48.5095 8.03516ZM62.6129 20.6308C64.9376 22.7715 66.3014 25.9669 66.3014 29.4416C66.3014 35.181 63.3258 38.5936 60.4741 38.5936C58.9243 38.5936 57.7774 37.6319 56.9405 36.9493C56.6925 36.7322 56.4756 36.546 56.2896 36.4219C56.0106 36.9183 55.7936 37.5388 55.7006 38.2834L55.6696 38.5936H54.2128V30.8687H55.7006L55.7316 31.1789C56.2586 34.6846 58.9243 35.8635 60.4431 35.7394C62.0239 35.6153 62.8918 34.0331 62.8918 31.303C62.8918 29.5657 62.1169 27.7042 60.97 26.6805L58.3353 24.2606C55.9486 22.151 54.4608 19.8242 54.4608 14.8604C54.4608 10.6722 56.7855 7.25957 59.6062 7.25957C61.218 7.25957 62.1789 8.09721 62.9228 8.96587C63.1708 8.50052 63.3258 7.94209 63.4188 7.29059L63.4498 6.98035H64.8756V14.4881H63.4188L63.3878 14.1779C63.1708 11.2306 62.0239 9.98966 59.7922 10.0827C58.8623 10.1138 57.9014 11.3547 57.9014 13.5884C57.9014 14.9845 58.6143 17.0321 59.9782 18.273L62.6129 20.6308ZM108.519 25.0672H114.966V27.1768H114.625C114.005 27.1768 113.85 27.3009 113.726 27.8283C113.571 28.5419 113.571 29.8759 113.571 32.0786V36.0807H113.23C111.649 36.0807 110.564 36.7322 109.51 37.3526C108.519 37.9731 107.465 38.5936 106.039 38.5936C101.017 38.5936 97.2359 31.8614 97.2359 22.8956C97.2359 13.9607 101.017 7.19752 106.039 7.19752C107.899 7.19752 109.696 8.50052 111.153 10.8893C111.339 10.3619 111.463 9.61737 111.556 8.84178L111.587 8.53154H113.013V17.0321H111.587L111.525 16.7528C110.688 12.9369 108.488 10.2378 106.101 10.2378C101.916 10.2378 101.606 19.9483 101.606 22.8956C101.606 25.8738 101.916 35.5843 106.101 35.5533C108.519 35.5533 109.913 33.5057 109.913 29.9069C109.913 27.6112 109.727 27.1458 108.86 27.1458H108.519V25.0672ZM129.937 32.0786H131.394L131.146 37.787H116.609V35.6774H116.95C117.384 35.6774 117.601 35.6153 117.725 35.4912C118.035 35.181 118.004 34.1882 118.004 32.3578C118.004 31.7994 117.973 31.1169 117.973 30.3723V15.4498C117.973 14.7363 117.973 14.1158 118.004 13.5884C118.004 11.696 118.035 10.6412 117.725 10.3309C117.601 10.2068 117.384 10.1448 116.981 10.1448H116.64V8.03516H130.278L130.464 13.7746H129.007L128.821 12.5026C128.542 10.9204 128.449 10.9204 127.085 10.9204H122.126V20.6308H124.389C125.908 20.6308 126.125 20.6308 126.125 18.0248V17.6836H127.612V26.3702H126.125V26.029C126.125 23.516 125.939 23.516 124.389 23.516H122.095V29.5967C122.095 34.4984 122.467 34.9328 124.42 34.9328H127.798C129.41 34.9328 129.534 34.9018 129.751 33.3506L129.937 32.0786ZM86.4491 7.22854C80.9938 7.22854 76.9022 13.9607 76.9022 22.9266C76.9022 31.8925 81.0248 38.6246 86.4491 38.6246C91.9045 38.6246 95.996 31.8925 95.996 22.9266C96.027 13.9607 91.9045 7.22854 86.4491 7.22854ZM86.4491 35.5843C82.9465 35.5843 81.3037 31.5512 81.3037 22.9266C81.3037 14.302 82.9465 10.2689 86.4491 10.2689C89.9517 10.2689 91.5945 14.302 91.5945 22.9266C91.5945 31.5512 89.9517 35.5843 86.4491 35.5843ZM68.5332 8.03516H75.6314V10.1448H75.2904C74.4845 10.1448 74.2055 10.1448 74.1745 12.1303V30.3723C74.1745 30.9928 74.1745 31.5202 74.1745 32.0165C74.1745 34.0331 74.1435 35.1499 74.4845 35.4912C74.6085 35.6153 74.8565 35.6774 75.2594 35.6774H75.6004V37.787H68.5332V35.6774H68.8741C69.3081 35.6774 69.5561 35.6153 69.68 35.4912C70.021 35.1499 70.021 33.971 70.021 31.8304C70.021 31.3961 70.021 30.8997 70.021 30.3723V15.4809C70.021 14.8914 70.021 14.364 70.021 13.8676C70.052 11.8201 70.052 10.7032 69.711 10.3619C69.5871 10.2378 69.3391 10.1758 68.9051 10.1758H68.5642V8.03516H68.5332ZM28.1138 8.03516H35.057V10.1448H34.716C34.2821 10.1448 34.0341 10.2068 33.9101 10.3309C33.6002 10.6412 33.6002 11.696 33.6312 13.5574C33.6312 14.1158 33.6622 14.7363 33.6622 15.4498V30.3723C33.6622 30.9617 33.6622 31.5202 33.6622 32.0165C33.6312 34.0331 33.6312 35.181 33.9721 35.4912C34.0961 35.6153 34.3131 35.6774 34.747 35.6774H35.088V37.787H28.0208V35.6774H28.3618C29.1677 35.6774 29.4466 35.6774 29.4776 33.6918V23.454H21.7285V30.3723C21.7285 31.0238 21.7285 31.5822 21.7285 32.0786C21.6975 34.0641 21.6975 35.1499 22.0075 35.4912C22.1625 35.6153 22.3794 35.6774 22.8134 35.6774H23.1544V37.787H16.1802V35.6774H16.5211C16.9861 35.6774 17.265 35.6153 17.358 35.4912C17.637 35.212 17.637 34.2503 17.606 32.668C17.575 32.0165 17.575 31.272 17.575 30.3723V15.4498C17.575 14.6432 17.575 13.9297 17.606 13.3402C17.637 11.6029 17.668 10.6412 17.358 10.3309C17.234 10.2068 16.9861 10.1448 16.5211 10.1448H16.1802V8.03516H23.2164V10.1448H22.8754C22.0695 10.1448 21.7905 10.1448 21.7595 12.1303V20.5688H29.5396V15.4498C29.5396 14.7053 29.5396 14.0228 29.5396 13.4643C29.5706 11.6339 29.5706 10.6412 29.2917 10.3309C29.1677 10.2068 28.9197 10.1448 28.4857 10.1448H28.1448V8.03516H28.1138ZM149 32.0786L148.752 37.787H133.471V35.6774H133.812C134.215 35.6774 134.432 35.6153 134.556 35.4912C134.897 35.1499 134.897 33.971 134.866 31.8304C134.866 31.3961 134.866 30.8997 134.866 30.3723V14.7983C134.866 12.7198 134.866 11.4478 134.711 10.7653C134.587 10.2378 134.401 10.1138 133.812 10.1138H133.471V8.00414H140.507V10.1138H140.135C139.329 10.1138 139.081 10.1138 139.019 12.0993V29.5346C139.019 34.4364 139.391 34.8707 141.313 34.8707H145.187C146.923 34.8707 146.985 34.8707 147.326 33.2575L147.512 32.0165H149V32.0786ZM148.721 1.02378H0V0H148.721V1.02378ZM148.721 60H0V58.9762H148.721V60Z" fill="white"/>
<path d="M0.464844 44.7988H1.98367V47.622H6.47816V44.7988H7.99698V52.0584H6.47816V48.7699H1.98367V52.0584H0.464844V44.7988Z" fill="white"/>
<path d="M14.94 49.2973L11.7783 44.7988H13.6381L15.7149 48.0253L17.7916 44.7988H19.6514L16.4588 49.2973V52.0584H14.94V49.2973Z" fill="white"/>
<path d="M23.4023 44.7988H27.8658C29.6636 44.7988 30.2216 45.8847 30.2216 47.0636C30.2216 48.1804 29.5086 49.2973 27.8968 49.2973H24.9212V52.0584H23.4023V44.7988ZM24.9212 48.1494H27.3699C28.2378 48.1494 28.7027 47.9012 28.7027 47.0636C28.7027 46.1639 28.0828 45.9467 27.4939 45.9467H24.9212V48.1494Z" fill="white"/>
<path d="M34.0029 48.429C34.0029 46.3814 35.2118 44.582 38.2804 44.582C41.3491 44.582 42.558 46.3814 42.558 48.429C42.558 50.4766 41.3491 52.2449 38.2804 52.2449C35.2118 52.2759 34.0029 50.4766 34.0029 48.429ZM40.9461 48.429C40.9461 46.8468 39.9852 45.7299 38.2804 45.7299C36.5756 45.7299 35.6147 46.8468 35.6147 48.429C35.6147 50.0112 36.5756 51.1281 38.2804 51.1281C39.9852 51.1281 40.9461 50.0112 40.9461 48.429Z" fill="white"/>
<path d="M49.0981 44.7988H50.8959L54.1196 52.0584H52.4148L51.6399 50.259H48.2302L47.4863 52.0584H45.8745L49.0981 44.7988ZM51.2369 49.1111L49.997 46.0398L48.7262 49.1111H51.2369Z" fill="white"/>
<path d="M57.8701 44.7988H59.4199V50.8485H63.8214V52.0584H57.8701V44.7988Z" fill="white"/>
<path d="M67.7583 44.7988H69.2771V50.8485H73.6786V52.0584H67.7583V44.7988Z" fill="white"/>
<path d="M77.6152 44.7988H83.9075V45.9467H79.1341V47.7771H83.7215V48.894H79.1341V50.9105H84.0005V52.0584H77.6152V44.7988Z" fill="white"/>
<path d="M88.2471 44.7988H92.8345C94.6943 44.7988 95.2833 45.6365 95.2833 46.7844C95.2833 47.7151 94.7873 48.3045 94.0744 48.5217V48.5527C94.9113 48.7389 95.1283 49.4834 95.1283 50.5072C95.1283 50.8795 95.1283 51.6551 95.4382 52.0584H93.7954C93.6714 51.8412 93.6095 51.5 93.6095 50.9726C93.6095 49.9488 93.4545 49.2042 92.3386 49.2042H89.7659V52.0584H88.2471V44.7988ZM92.4006 48.0563C93.2375 48.0563 93.7024 47.8081 93.7024 47.0015C93.7024 46.2259 93.2065 45.9467 92.4006 45.9467H89.7659V48.0563H92.4006Z" fill="white"/>
<path d="M107.341 52.059H106.442L106.225 51.1283C105.636 51.8418 104.613 52.2762 103.466 52.2762C100.397 52.2762 99.1885 50.4768 99.1885 48.4602C99.1885 46.4127 100.459 44.6133 103.404 44.6133C105.605 44.6133 107.031 45.7301 107.186 47.1572H105.543C105.264 46.1645 104.365 45.7612 103.373 45.7612C101.482 45.7612 100.769 46.909 100.769 48.4913C100.769 50.4147 102.009 51.1283 103.28 51.1283C104.83 51.1283 105.543 50.4147 105.791 49.2048H103.745V48.0879H107.31V52.059H107.341Z" fill="white"/>
<path d="M111.928 44.7988H118.221V45.9467H113.447V47.7771H118.035V48.894H113.447V50.9105H118.313V52.0584H111.928V44.7988Z" fill="white"/>
<path d="M122.56 44.7988H124.296L128.604 50.259H128.635V44.7988H130.092V52.0584H128.387L124.048 46.6292L124.017 46.5982V52.0584H122.56V44.7988Z" fill="white"/>
<path d="M136.199 44.7988H134.68V52.0584H136.199V44.7988Z" fill="white"/>
<path d="M146.737 47.4987C146.582 46.4129 145.683 45.7614 144.413 45.7614C143.018 45.7614 141.964 46.6921 141.964 48.5846C141.964 50.1047 143.018 51.1285 144.506 51.1595C146.086 51.1595 146.613 50.1047 146.737 49.3291H148.38C148.163 50.7562 147.202 52.3074 144.227 52.3074C141.592 52.3074 140.352 50.508 140.352 48.4605C140.352 46.4129 141.561 44.6445 144.413 44.6445C146.923 44.6445 148.194 45.9475 148.38 47.5297H146.737V47.4987Z" fill="white"/>
</g>
<defs>
<clipPath id="clip0_3496_585">
<rect width="149" height="60" fill="white"/>
</clipPath>
</defs>
</svg>
