<svg width="159" height="50" viewBox="0 0 159 50" fill="none" xmlns="http://www.w3.org/2000/svg">
<g clip-path="url(#clip0_3496_568)">
<path d="M122.811 26.9419C125.418 27.2453 126.085 28.0948 126.085 30.1579C126.085 33.4953 126.024 39.5632 125.903 43.6894C124.205 41.8691 112.749 29.5511 110.021 26.2744H103.838V26.9419C106.202 27.1846 107.414 27.6094 107.414 30.1579V43.2647C107.414 47.2089 106.626 47.5729 104.383 47.8157V48.5438H111.536V47.8157C108.99 47.5123 108.505 47.2089 108.505 43.2647V29.6118H108.627C114.082 36.4686 123.66 45.6312 125.478 48.5438H126.751C126.933 42.4152 127.236 31.4928 127.236 30.1579C127.236 28.1555 127.964 27.306 130.449 26.9419V26.2744H122.932V26.9419H122.811ZM12.9721 36.954V36.8933C15.5787 36.2865 19.5188 35.3763 19.5188 31.4928C19.5188 28.3375 16.3667 26.2744 10.0018 26.2744C8.42578 26.2744 6.91034 26.3351 5.57675 26.3351C4.06131 26.3351 2.00031 26.2744 0.303017 26.2744V26.9419C2.84896 26.9419 3.3339 27.4273 3.3339 30.0972C3.3339 32.8278 3.09143 40.9589 3.09143 44.6603C3.09143 47.3302 2.60649 47.8157 0.0605469 47.8157V48.5438H6.12231C6.84972 48.5438 8.36516 48.6045 9.09257 48.6045C9.8806 48.6652 10.608 48.6652 11.1536 48.6652C15.2756 48.6652 20.8524 47.5123 20.8524 42.9006C20.8524 38.5924 16.9122 37.6822 12.9721 36.954ZM7.03157 29.2477C7.03157 27.6094 7.39528 26.9419 9.39566 26.9419C13.5177 26.9419 15.4574 28.3982 15.4574 31.9783C15.4574 34.8302 13.6995 36.4079 9.21381 36.4079C6.97095 36.4079 6.97095 36.2865 6.97095 35.0123V29.2477H7.03157ZM10.1231 47.937C7.09219 47.937 7.03157 47.8157 7.03157 46.3594V39.3205C7.03157 37.5608 7.27404 37.2574 9.45628 37.2574C14.3057 37.2574 16.791 38.7744 16.791 42.7793C16.791 46.1166 14.6694 47.937 10.1231 47.937ZM144.997 26.2744H134.995V26.9419C137.117 26.9419 137.541 27.4273 137.541 30.0972V44.6603C137.541 47.3302 137.117 47.8157 134.207 47.8157V48.5438H147.119C153.181 48.5438 159 44.721 159 37.8035C159 29.1263 150.453 26.2744 144.997 26.2744ZM145.118 47.8157C141.663 47.8157 141.178 46.8448 141.178 45.1458V30.0972C141.178 27.3666 141.603 26.9419 144.209 26.9419C150.877 26.9419 154.878 31.1288 154.878 37.8642C154.878 44.1142 151.301 47.8157 145.118 47.8157ZM66.4975 26.9419C67.831 26.9419 68.3766 27.306 68.3766 28.0948C68.3766 29.5511 66.8612 31.0681 63.1029 37.0754C59.3446 31.0074 57.9504 29.0657 57.9504 28.0341C57.9504 27.3666 58.5565 26.9419 60.1326 26.9419V26.2744H50.9793V26.9419C52.1917 27.2453 52.7373 27.3666 53.9496 29.187L59.8295 38.0462V44.6603C59.8295 47.6336 59.3446 47.8157 56.2531 47.8157V48.5438H66.9218V47.8157C63.8303 47.755 63.3453 47.6336 63.3453 44.6603V38.1069L69.104 29.7938C70.7407 27.4273 71.6499 27.0632 72.8017 27.0026V26.3351H66.3762V26.9419H66.4975ZM100.625 37.3181C100.625 36.954 100.625 36.5899 100.565 36.2865C100.565 36.1652 100.565 35.9831 100.504 35.8618C100.504 35.6191 100.443 35.3157 100.383 35.0729C100.322 34.8302 100.322 34.5875 100.261 34.3448C100.201 34.1628 100.201 34.0414 100.14 33.8594C100.08 33.6773 100.019 33.4346 99.9584 33.2526C99.9584 33.1312 99.8978 33.0705 99.8371 32.9492C99.7159 32.5244 99.534 32.1603 99.3522 31.7962C99.3522 31.7356 99.2916 31.6749 99.2916 31.6142C98.9279 30.9467 98.5642 30.2793 98.0792 29.6725C98.0792 29.6725 98.0792 29.6725 98.0186 29.6118C95.7151 26.6385 91.9568 24.7574 87.2287 24.7574C80.5001 24.7574 75.6507 28.5195 74.3171 34.1021C74.3171 34.2234 74.2565 34.3448 74.2565 34.4661C74.1959 34.7089 74.1959 34.8909 74.1353 35.1336C74.1353 35.3157 74.0747 35.4977 74.0747 35.6797C74.0747 35.8618 74.014 36.0438 74.014 36.2259C74.014 36.5899 73.9534 36.8933 73.9534 37.2574C73.9534 37.3181 73.9534 37.3181 73.9534 37.3788V37.4395C73.9534 37.8035 73.9534 38.1676 74.014 38.471C74.014 38.5924 74.014 38.7744 74.0747 38.8958C74.0747 39.1385 74.1353 39.4419 74.1959 39.6846C74.2565 39.9273 74.2565 40.17 74.3171 40.3521C74.3777 40.5341 74.3777 40.7162 74.4384 40.8375C74.499 41.0195 74.5596 41.2623 74.6202 41.4443C74.6808 41.5657 74.6808 41.6263 74.7414 41.7477C74.8627 42.1118 75.0445 42.5365 75.2264 42.9006C75.2264 42.9613 75.287 43.022 75.3476 43.0827C75.7113 43.7501 76.075 44.4176 76.56 45.0244C76.56 45.0244 76.56 45.0244 76.56 45.0851C78.8634 48.1191 82.6217 49.9395 87.3499 49.9395C94.0785 49.9395 98.9279 46.1773 100.261 40.5948C100.261 40.4734 100.322 40.3521 100.322 40.2307C100.383 39.988 100.383 39.806 100.443 39.5632C100.443 39.3812 100.504 39.1992 100.504 39.0171C100.504 38.8351 100.565 38.653 100.565 38.471C100.565 38.1069 100.625 37.8035 100.625 37.4395C100.625 37.3788 100.625 37.3788 100.625 37.3181ZM92.6236 47.6336C91.2294 48.5438 89.4715 48.9686 87.3499 48.9686C84.4403 48.9686 82.258 48.1191 80.7426 46.6021C80.197 46.1166 79.7727 45.5098 79.409 44.8424C79.409 44.7817 79.3484 44.7817 79.3484 44.721C79.2271 44.4783 79.0453 44.1749 78.9241 43.9322C78.8634 43.7501 78.8028 43.6288 78.7422 43.4467C78.6816 43.2647 78.621 43.1433 78.5604 42.9613C78.4997 42.7186 78.3785 42.4759 78.3179 42.2331C78.3179 42.1725 78.2573 42.0511 78.2573 41.9904C77.8936 40.5948 77.7723 39.0778 77.7723 37.3788C77.7723 32.6458 79.0453 28.9443 82.0762 27.0632C82.0762 27.0632 82.0762 27.0632 82.0762 27.0026C83.4704 26.153 85.1677 25.7283 87.3499 25.7283C90.2596 25.7283 92.4418 26.5778 93.9572 28.0948C94.5028 28.5802 94.9271 29.187 95.2908 29.8545C95.2908 29.9152 95.3514 29.9152 95.3514 29.9759C95.4727 30.2186 95.6545 30.522 95.7758 30.7647C95.8364 30.9467 95.897 31.0681 95.9576 31.2501C96.0182 31.4322 96.0788 31.5535 96.1395 31.7356C96.2001 31.9783 96.3213 32.221 96.3819 32.4637C96.3819 32.5244 96.4426 32.6458 96.4426 32.7064C96.8063 34.1021 96.9275 35.6191 96.9275 37.3181C96.8669 42.1118 95.5939 45.8132 92.6236 47.6336ZM41.4018 47.6943H36.7948C35.0975 47.6943 34.552 47.3909 34.552 46.238V37.3788H38.4921C41.0381 37.3788 41.6442 38.0462 42.0079 40.7768H42.796V33.1312H42.0079C41.4624 35.7404 41.2199 36.1652 38.189 36.1652H34.552V28.5195C34.552 27.306 34.8551 27.1239 36.613 27.1239H39.6439C42.9778 27.1239 43.9477 28.2768 45.5238 30.2793H46.0693L45.3419 26.2744H27.8234V26.9419C30.4906 26.9419 30.9149 27.4273 30.9149 30.0972C30.9149 35.1336 30.8543 40.0487 30.7937 44.6603C30.7331 47.3302 30.3694 47.8157 27.5203 47.8157V48.5438H47.2211C47.5241 47.2089 48.0697 44.2356 48.4334 43.3254H47.7666C45.4631 47.0268 44.7963 47.6943 41.4018 47.6943ZM91.0476 8.85936C91.4113 9.34479 91.8962 9.83023 92.4418 10.1336C93.048 10.4977 93.7148 10.6797 94.5634 10.8011C95.412 10.8618 96.1395 10.8011 96.7456 10.6191C97.4124 10.3763 97.958 10.0729 98.3823 9.64819C98.8066 9.22343 99.1703 8.738 99.4734 8.1312C99.7159 7.5244 99.8977 6.91761 99.9584 6.31081C100.019 5.64334 99.9584 5.03654 99.8371 4.42974C99.7159 3.82295 99.4128 3.21615 99.1097 2.73072C98.746 2.24528 98.2611 1.75984 97.7155 1.45644C97.1093 1.09237 96.4425 0.910327 95.5939 0.788968C94.8059 0.728288 94.0785 0.788968 93.4723 0.971006C92.8055 1.15305 92.2599 1.51712 91.8356 1.94188C91.3507 2.36664 90.987 2.85207 90.7445 3.45887C90.4414 4.06567 90.3202 4.67246 90.2595 5.33994C90.1989 6.00741 90.2596 6.61421 90.3808 7.22101C90.4414 7.76712 90.6839 8.31324 91.0476 8.85936ZM91.1688 5.33994C91.2294 4.79382 91.3507 4.30839 91.5931 3.82295C91.8356 3.33751 92.0781 2.91275 92.5024 2.60936C92.8661 2.24528 93.2904 2.00256 93.836 1.82052C94.3816 1.63848 94.9271 1.5778 95.5939 1.63848C96.2607 1.69916 96.8063 1.8812 97.2912 2.1846C97.7761 2.488 98.1398 2.85207 98.4429 3.21615C98.746 3.64091 98.9279 4.12635 99.0491 4.61178C99.1703 5.09722 99.1703 5.64334 99.1097 6.18945C99.0491 6.73557 98.9279 7.22101 98.746 7.70644C98.5642 8.19188 98.2611 8.61664 97.8974 8.98072C97.5337 9.34479 97.1093 9.58751 96.5638 9.76955C96.0182 9.95159 95.4727 10.0123 94.8059 9.95159C94.1391 9.89091 93.5935 9.70887 93.1086 9.40547C92.6236 9.10207 92.2599 8.738 91.9568 8.37392C91.6538 7.94916 91.4719 7.46372 91.3507 6.97829C91.1082 6.37149 91.1082 5.88606 91.1688 5.33994ZM121.902 16.3229C122.326 16.4443 122.751 16.505 123.175 16.505C124.024 16.505 124.872 16.2016 125.721 15.7162L126.57 17.4152L127.358 17.1118L126.448 15.2307C127.176 14.6846 127.964 13.9564 128.691 13.1676L128.752 13.1069L128.691 13.0462L128.085 12.5608V12.6215C127.418 13.3496 126.751 14.0171 126.085 14.5026L124.448 11.1652C126.085 11.1045 127.236 10.6191 127.6 9.40547C127.661 9.16275 127.721 8.92004 127.721 8.738C127.721 7.76712 127.054 6.85693 126.024 6.55353C125.721 6.43217 125.418 6.37149 125.115 6.37149C124.084 6.37149 123.175 6.97829 122.872 8.00984C122.811 8.31324 122.751 8.55596 122.751 8.79868C122.751 9.34479 122.932 9.89091 123.236 10.5584C121.478 10.6191 120.265 11.2865 119.841 12.6215C119.72 12.9249 119.72 13.2283 119.72 13.5317C119.659 14.7453 120.508 15.8375 121.902 16.3229ZM123.66 8.19188C123.902 7.5244 124.448 7.09965 125.175 7.09965C125.357 7.09965 125.6 7.16033 125.781 7.22101C126.448 7.46372 126.873 8.00984 126.873 8.67732C126.873 8.85936 126.873 9.04139 126.812 9.16275C126.509 10.0729 125.66 10.4977 124.145 10.4977C123.781 9.70887 123.599 9.16275 123.599 8.738C123.599 8.55596 123.599 8.37392 123.66 8.19188ZM120.568 12.8035C120.871 11.8933 121.781 11.2259 123.478 11.1652L125.357 14.988C124.569 15.4734 123.842 15.7162 123.054 15.7162C122.751 15.7162 122.448 15.6555 122.084 15.5948C121.053 15.2307 120.447 14.3812 120.447 13.471C120.508 13.289 120.508 13.0462 120.568 12.8035ZM71.2862 4.73314C71.6499 4.91518 72.0137 5.03654 72.438 5.1579C72.8623 5.21858 73.3472 5.33994 73.7716 5.40062C74.0747 5.4613 74.4384 5.52198 74.8021 5.52198C75.1658 5.58266 75.5295 5.64334 75.8326 5.82538C76.1357 5.94673 76.3781 6.12877 76.6206 6.37149C76.8024 6.61421 76.9237 6.85693 76.9237 7.22101C76.9237 7.64576 76.8631 7.94916 76.6812 8.19188C76.4994 8.4346 76.2569 8.67732 75.9538 8.79868C75.6507 8.98072 75.3476 9.04139 74.9839 9.10207C74.6202 9.16275 74.3171 9.22343 74.014 9.22343C73.5291 9.22343 73.0442 9.16275 72.4986 9.04139C72.0137 8.92004 71.5893 8.67732 71.165 8.4346L71.0438 6.91761L70.1951 6.97829L70.2557 8.92004C70.8013 9.34479 71.4075 9.70887 72.0137 9.89091C72.6198 10.0729 73.2866 10.1336 73.9534 10.1336C74.4384 10.1336 74.8627 10.0729 75.3476 9.95159C75.8326 9.83023 76.2569 9.64819 76.6206 9.46615C76.9843 9.22343 77.2874 8.92004 77.5299 8.55596C77.7723 8.19188 77.8329 7.70644 77.8329 7.16033C77.8329 6.61421 77.7117 6.25013 77.4692 5.88605C77.2268 5.58266 76.9237 5.33994 76.56 5.09722C76.1963 4.91518 75.7719 4.79382 75.287 4.67246C74.8021 4.61178 74.3171 4.49042 73.8322 4.42974C73.4685 4.36906 73.1048 4.30838 72.7411 4.24771C72.3774 4.18703 72.1349 4.06567 71.8318 3.94431C71.5893 3.82295 71.3469 3.64091 71.2256 3.45887C71.0438 3.27683 70.9832 3.03411 70.9832 2.73072C70.9832 2.42732 71.0438 2.12392 71.165 1.8812C71.2862 1.63848 71.5287 1.45644 71.7712 1.2744C72.0137 1.09237 72.3167 1.03169 72.6198 0.910327C72.9229 0.849647 73.2866 0.788968 73.5897 0.788968C74.014 0.788968 74.499 0.788968 74.9839 0.910327C75.4689 0.971006 75.8326 1.15305 76.1963 1.39576L76.3175 2.91275L77.1662 2.85207C77.1662 2.488 77.1662 2.1846 77.1662 1.8812C77.1662 1.5778 77.1662 1.2744 77.1662 0.910327C76.6812 0.48557 76.1357 0.242851 75.5295 0.121492C74.9233 0.000132739 74.3171 -0.0605469 73.6503 -0.0605469C73.226 -0.0605469 72.8017 0.000132739 72.3774 0.121492C71.953 0.242851 71.5893 0.42489 71.2256 0.606929C70.8619 0.849647 70.6194 1.09237 70.4376 1.45644C70.2557 1.82052 70.1345 2.24528 70.1345 2.73072C70.1345 3.21615 70.2557 3.58023 70.4982 3.88363C70.6801 4.30838 70.9832 4.5511 71.2862 4.73314ZM107.111 11.4686L105.899 11.2259L107.293 4.36906L111.779 13.3496L112.446 13.471L114.204 4.73314L115.416 4.97586L115.598 4.12635L112.264 3.45887L112.082 4.30838L113.294 4.5511L111.9 11.5293L107.354 2.488L105.475 2.06324L105.293 2.91275L106.505 3.15547L104.929 10.9831L103.717 10.7404L103.535 11.5899L106.929 12.2574L107.111 11.4686ZM31.8848 8.61664L34.3095 16.2623L33.0971 16.6263L33.3396 17.4759L36.613 16.4443L36.3705 15.5341L35.1581 15.8982L34.3701 13.471L37.5222 12.5001C38.189 12.2574 38.7346 11.954 39.0983 11.5293C39.462 11.1045 39.7045 10.6191 39.7651 10.0729C39.8257 9.52683 39.8257 9.04139 39.6439 8.49528C39.462 7.94916 39.2195 7.5244 38.8558 7.16033C38.4921 6.79625 38.0072 6.55353 37.4616 6.37149C36.9161 6.25013 36.2493 6.25013 35.5825 6.49285L30.3087 8.1312L30.5512 8.98072L31.8848 8.61664ZM35.9462 7.28169C36.4311 7.09965 36.8554 7.09965 37.2798 7.22101C37.7041 7.34237 38.0072 7.5244 38.2496 7.76712C38.4921 8.00984 38.7346 8.37392 38.8558 8.738C38.9771 9.10207 38.9771 9.46615 38.9164 9.89091C38.8558 10.255 38.674 10.6191 38.4315 10.9225C38.189 11.2259 37.8253 11.4686 37.3404 11.6506L34.1883 12.6215L32.7941 8.25256L35.9462 7.28169ZM47.3423 13.4103L47.1604 12.5608L45.9481 12.8035C46.0087 12.4395 46.1299 12.0754 46.1906 11.7113C46.2512 11.3472 46.3118 10.9831 46.433 10.6797L51.5249 9.58751C51.7068 9.89091 51.9492 10.1943 52.1311 10.4977C52.3129 10.8011 52.5554 11.1045 52.7979 11.4079L51.5855 11.6506L51.7674 12.5001L54.9801 11.8327L54.7376 10.9225L53.7678 11.1045L48.0697 3.21615L45.4025 3.76227L45.5844 4.61178L46.7967 4.36906L44.9176 12.9856L43.9477 13.1676L44.1296 14.0171L47.3423 13.4103ZM47.1604 7.16033C47.3423 6.31081 47.5241 5.33994 47.7666 4.30838C48.3728 5.1579 48.9183 5.94673 49.4033 6.67489C49.8882 7.40305 50.4338 8.1312 50.9187 8.79868L46.6149 9.70887C46.7967 8.92004 46.9786 8.07052 47.1604 7.16033ZM85.7132 9.04139L84.4403 8.98072L84.6827 0.971006L85.9557 1.03169V0.182172L82.4399 0.0608123V0.910327L83.7129 0.971006L83.4704 8.98072L82.1974 8.92004V9.76955L85.7132 9.89091V9.04139ZM58.1322 5.21858C58.3747 5.52198 58.6778 5.70402 59.0415 5.88605C59.4052 6.06809 59.7689 6.12877 60.2538 6.18945C60.6782 6.25013 61.1631 6.31081 61.648 6.31081C61.9511 6.31081 62.3148 6.37149 62.6785 6.37149C63.0422 6.37149 63.406 6.43217 63.709 6.55353C64.0121 6.67489 64.3152 6.79625 64.5577 7.03897C64.8002 7.22101 64.9214 7.5244 64.982 7.88848C65.0426 8.31324 64.982 8.61664 64.8002 8.92004C64.6183 9.22343 64.3758 9.40547 64.1334 9.58751C63.8303 9.76955 63.5272 9.89091 63.2241 10.0123C62.8604 10.1336 62.5573 10.1943 62.2542 10.1943C61.7693 10.255 61.2843 10.255 60.7388 10.1336C60.2538 10.0123 59.7689 9.89091 59.3446 9.64819L59.1021 8.1312L58.2535 8.25256L58.4959 10.1943C59.1021 10.6191 59.7083 10.8618 60.3145 10.9831C60.9812 11.1045 61.5874 11.1652 62.3148 11.0438C62.7392 10.9831 63.2241 10.8618 63.709 10.7404C64.194 10.6191 64.5577 10.3763 64.9214 10.1336C65.2851 9.89091 65.5276 9.52683 65.7094 9.16275C65.8913 8.79868 65.9519 8.31324 65.8913 7.76712C65.8307 7.22101 65.6488 6.85693 65.4063 6.55353C65.1639 6.25013 64.8002 6.00741 64.4365 5.88605C64.0727 5.70402 63.5878 5.64334 63.1635 5.58266C62.6785 5.52198 62.1936 5.52198 61.7087 5.4613C61.345 5.4613 60.9812 5.40062 60.6175 5.40062C60.2538 5.33994 59.9508 5.27926 59.7083 5.1579C59.4658 5.03654 59.2233 4.91518 59.0415 4.73314C58.8596 4.5511 58.7384 4.30838 58.7384 4.00499C58.6778 3.70159 58.7384 3.39819 58.8596 3.15547C58.9809 2.91275 59.1627 2.67004 59.4052 2.54868C59.6477 2.36664 59.8901 2.24528 60.1932 2.12392C60.4963 2.00256 60.7994 1.94188 61.1631 1.8812C61.5874 1.82052 62.0724 1.82052 62.5573 1.8812C63.0422 1.94188 63.4666 2.06324 63.8303 2.24528L64.0727 3.70159L64.9214 3.58023C64.8608 3.21615 64.8608 2.91275 64.8002 2.60936C64.8002 2.30596 64.7395 2.00256 64.6789 1.63848C64.1334 1.2744 63.5878 1.03169 62.9816 0.971006C62.3755 0.910327 61.7693 0.849647 61.1025 0.971006C60.6782 1.03169 60.2538 1.09237 59.8295 1.2744C59.4052 1.39576 59.0415 1.63848 58.7384 1.8812C58.4353 2.12392 58.1928 2.42732 58.011 2.79139C57.8291 3.15547 57.7685 3.58023 57.8291 4.06567C57.7079 4.5511 57.8898 4.91518 58.1322 5.21858Z" fill="white"/>
</g>
<defs>
<clipPath id="clip0_3496_568">
<rect width="159" height="50" fill="white"/>
</clipPath>
</defs>
</svg>
