<svg width="40" height="40" viewBox="0 0 40 40" fill="none" xmlns="http://www.w3.org/2000/svg">
<rect width="40" height="40" rx="20" fill="white"/>
<path d="M24.0004 17V14C24.0004 11.7909 22.2095 10 20.0004 10C17.7912 10 16.0004 11.7909 16.0004 14V17M11.5924 18.352L10.9924 24.752C10.8218 26.5717 10.7365 27.4815 11.0384 28.1843C11.3037 28.8016 11.7685 29.3121 12.3584 29.6338C13.0299 30 13.9437 30 15.7714 30H24.2293C26.057 30 26.9708 30 27.6423 29.6338C28.2322 29.3121 28.6971 28.8016 28.9623 28.1843C29.2643 27.4815 29.179 26.5717 29.0084 24.752L28.4084 18.352C28.2643 16.8153 28.1923 16.047 27.8467 15.4662C27.5424 14.9546 27.0927 14.5451 26.555 14.2898C25.9444 14 25.1727 14 23.6293 14L16.3714 14C14.8281 14 14.0564 14 13.4458 14.2898C12.908 14.5451 12.4584 14.9546 12.154 15.4662C11.8085 16.047 11.7364 16.8153 11.5924 18.352Z" stroke="#9C8769" stroke-width="2" stroke-linecap="round" stroke-linejoin="round"/>
</svg>
