<svg width="176" height="34" viewBox="0 0 176 34" fill="none" xmlns="http://www.w3.org/2000/svg">
<g clip-path="url(#clip0_2500_3450)">
<path d="M4.75331 2.98108H0.046875V0.453125H12.1868V2.98108H7.48528V16.1549H4.75331V2.98108Z" fill="#222222"/>
<path d="M7.53616 16.206H4.70643V3.03219H0V0.40625H12.2426V3.03219H7.54104V16.206H7.53616ZM4.80418 16.1031H7.43352V2.9342H12.1351V0.504233H0.0977452V2.9293H4.80418V16.1031Z" fill="#222222"/>
<path d="M15.1406 0.453125H17.8726V6.70442H25.0471V0.453125H27.7791V16.1549H25.0471V9.23238H17.8726V16.15H15.1406V0.453125Z" fill="#222222"/>
<path d="M27.8299 16.206H25.0002V9.28348H17.9235V16.2011H15.0938V0.40625H17.9235V6.65755H25.0002V0.40625H27.8299V16.206ZM25.098 16.1031H27.7273V0.504233H25.098V6.75553H17.8208V0.504233H15.1915V16.1031H17.8208V9.1855H25.098V16.1031Z" fill="#222222"/>
<path d="M31.8555 0.453125H42.021V2.98108H34.5874V6.8416H41.6349V9.36955H34.5874V13.6269H42.4119V16.1549H31.8555V0.453125Z" fill="#222222"/>
<path d="M42.4599 16.206H31.8008V0.40625H42.0689V3.03219H34.6354V6.78982H41.6828V9.41576H34.6354V13.5751H42.4599V16.206ZM31.9034 16.1031H42.3621V13.678H34.5328V9.31778H41.5802V6.89271H34.5328V2.9342H41.9663V0.504233H31.8985V16.1031H31.9034Z" fill="#222222"/>
<path d="M50.6484 0.453125H60.5549V2.98108H53.3804V7.10615H60.1444V9.6341H53.3804V16.1549H50.6484V0.453125Z" fill="#222222"/>
<path d="M53.4313 16.206H50.6016V0.40625H60.6107V3.03219H53.4362V7.05928H60.2001V9.68521H53.4362V16.206H53.4313ZM50.6993 16.1031H53.3287V9.58723H60.0926V7.15726H53.3287V2.9342H60.5032V0.504233H50.6944V16.1031H50.6993Z" fill="#222222"/>
<path d="M69.2473 0.460938H71.6078L78.2203 16.1627H75.0973L73.6654 12.5716H67.0089L65.6209 16.1627H62.5664L69.2473 0.460938ZM72.7172 10.171L70.3567 3.78255L67.9522 10.171H72.7172Z" fill="#222222"/>
<path d="M78.2976 16.2109H75.0671L75.0524 16.1766L73.6351 12.6149H67.0471L65.6591 16.206H62.4922L62.5215 16.1374L69.2122 0.40625H71.6411L71.6558 0.435645L78.2976 16.2109ZM75.1355 16.108H78.1461L71.5776 0.509132H69.2806L62.6486 16.108H65.5956L66.9836 12.5169H73.7085L73.7231 12.5463L75.1355 16.108ZM72.7896 10.2241H67.8779L70.3558 3.64458L70.4047 3.77196L72.7896 10.2241ZM68.0197 10.1212H72.643L70.3509 3.92873L68.0197 10.1212Z" fill="#222222"/>
<path d="M90.6939 4.13858C90.1319 3.51639 89.5845 3.10486 89.0567 2.8942C88.5289 2.68844 87.9962 2.58555 87.4635 2.58555C86.6668 2.58555 85.9484 2.72763 85.3082 3.01668C84.6631 3.30573 84.1108 3.70256 83.6465 4.21697C83.1871 4.72648 82.8254 5.32417 82.5762 6.00025C82.3221 6.68123 82.195 7.4112 82.195 8.19506C82.195 9.03772 82.3221 9.81668 82.5762 10.5222C82.8303 11.2325 83.1871 11.8449 83.6465 12.3642C84.1108 12.8835 84.6631 13.2853 85.3082 13.5841C85.9484 13.8781 86.6668 14.025 87.4635 14.025C88.0841 14.025 88.6902 13.8732 89.2766 13.5694C89.8631 13.2657 90.4056 12.7807 90.9139 12.1193L93.1669 13.7605C92.4729 14.7354 91.6274 15.4458 90.6304 15.8916C89.6334 16.3325 88.568 16.5579 87.4439 16.5579C86.2612 16.5579 85.1713 16.3619 84.1841 15.97C83.192 15.5781 82.3416 15.0245 81.6232 14.3043C80.9096 13.589 80.3476 12.7268 79.942 11.7224C79.5363 10.7181 79.3359 9.60112 79.3359 8.37633C79.3359 7.11725 79.5363 5.97576 79.942 4.95184C80.3476 3.92302 80.9047 3.05097 81.6232 2.3259C82.3367 1.60083 83.192 1.04233 84.1841 0.650396C85.1762 0.258465 86.2612 0.0625 87.4439 0.0625C88.4849 0.0625 89.4477 0.248667 90.3372 0.625901C91.2266 1.00313 92.0526 1.64492 92.8199 2.54636L90.6939 4.13858Z" fill="#222222"/>
<path d="M87.4381 16.6032C86.2554 16.6032 85.1508 16.4023 84.1587 16.0104C83.1666 15.6184 82.2967 15.055 81.5831 14.3349C80.8647 13.6196 80.2978 12.7427 79.8922 11.7334C79.4865 10.7291 79.2812 9.59251 79.2812 8.36772C79.2812 7.10864 79.4865 5.95245 79.8922 4.92363C80.2978 3.89481 80.8647 3.00807 81.5831 2.2781C82.2967 1.55303 83.1666 0.984726 84.1587 0.592795C85.1508 0.200865 86.2554 0 87.4381 0C88.4791 0 89.4614 0.191066 90.3509 0.5683C91.2453 0.945533 92.0859 1.59712 92.8532 2.49856L92.8874 2.53775L92.8434 2.57205L90.6832 4.19856L90.6539 4.16426C90.0968 3.55187 89.5543 3.14035 89.0362 2.93458C88.5182 2.72882 87.9903 2.62594 87.4625 2.62594C86.6757 2.62594 85.9572 2.76801 85.3268 3.05216C84.6963 3.33631 84.1392 3.73314 83.6847 4.23775C83.2302 4.74236 82.8734 5.33516 82.6241 6.00634C82.3749 6.67752 82.2478 7.40749 82.2478 8.18156C82.2478 9.01441 82.3749 9.79337 82.6241 10.4939C82.8734 11.1945 83.2302 11.8069 83.6847 12.3164C84.1392 12.8259 84.6963 13.2326 85.3268 13.5216C85.9621 13.8107 86.6757 13.9625 87.4625 13.9625C88.0734 13.9625 88.6746 13.8107 89.2513 13.5118C89.828 13.213 90.3704 12.728 90.8689 12.0715L90.8983 12.0323L90.9374 12.0617L93.2344 13.7323L93.2051 13.7715C92.5111 14.7513 91.6509 15.4715 90.649 15.9173C89.6471 16.3778 88.567 16.6032 87.4381 16.6032ZM87.4381 0.107781C86.2651 0.107781 85.1753 0.303746 84.1929 0.690778C83.2106 1.07781 82.3553 1.63631 81.6516 2.35158C80.9429 3.06686 80.3858 3.9487 79.985 4.96282C79.5843 5.98184 79.379 7.12824 79.379 8.37262C79.379 9.58761 79.5843 10.7095 79.9801 11.704C80.3809 12.6986 80.9429 13.5608 81.6467 14.2712C82.3504 14.9767 83.2057 15.5352 84.1881 15.9222C85.1704 16.3092 86.2603 16.5052 87.4332 16.5052C88.5475 16.5052 89.6129 16.2847 90.6001 15.8438C91.5727 15.4127 92.4084 14.717 93.0878 13.7715L90.9129 12.189C90.4144 12.8357 89.8671 13.3158 89.2904 13.6147C88.699 13.9184 88.0832 14.0752 87.4576 14.0752C86.6561 14.0752 85.9279 13.9233 85.2828 13.6294C84.6377 13.3305 84.0708 12.919 83.6065 12.3948C83.1422 11.8755 82.7805 11.2484 82.5264 10.538C82.2723 9.82766 82.1452 9.0389 82.1452 8.19135C82.1452 7.40259 82.2723 6.65792 82.5264 5.97694C82.7805 5.29596 83.1471 4.68847 83.6065 4.17896C84.0757 3.66455 84.6377 3.25793 85.2828 2.96888C85.9279 2.67983 86.661 2.53285 87.4576 2.53285C87.9952 2.53285 88.5377 2.63573 89.0704 2.8464C89.5934 3.05216 90.1407 3.46369 90.6979 4.06628L92.7457 2.52795C91.9979 1.65591 91.1817 1.02882 90.3167 0.661383C89.437 0.293948 88.4693 0.107781 87.4381 0.107781Z" fill="#222222"/>
<path d="M96.9531 0.453125H107.119V2.98108H99.6851V6.8416H106.733V9.36955H99.6851V13.6269H107.51V16.1549H96.9531V0.453125Z" fill="#222222"/>
<path d="M107.565 16.206H96.9062V0.40625H107.174V3.03219H99.7409V6.78982H106.788V9.41576H99.7409V13.5751H107.565V16.206ZM97.0089 16.1031H107.468V13.678H99.6431V9.31778H106.691V6.89271H99.6431V2.9342H107.077V0.504233H97.0089V16.1031Z" fill="#222222"/>
<path d="M122.835 3.82901C122.547 3.40278 122.16 3.08924 121.677 2.88837C121.193 2.68751 120.685 2.58953 120.147 2.58953C119.829 2.58953 119.521 2.62872 119.228 2.70221C118.93 2.77569 118.666 2.89327 118.427 3.05494C118.187 3.21662 117.997 3.42728 117.855 3.68693C117.708 3.94659 117.635 4.25033 117.635 4.60797C117.635 5.14198 117.816 5.5486 118.177 5.82785C118.539 6.10711 118.989 6.35206 119.521 6.55783C120.054 6.76359 120.641 6.96445 121.276 7.15552C121.911 7.34659 122.498 7.61114 123.03 7.95408C123.563 8.29212 124.013 8.74284 124.374 9.30624C124.736 9.86964 124.917 10.6143 124.917 11.5451C124.917 12.3878 124.765 13.1227 124.462 13.7498C124.159 14.3768 123.754 14.9011 123.241 15.3126C122.727 15.729 122.131 16.0377 121.452 16.2434C120.773 16.4492 120.059 16.5521 119.306 16.5521C118.353 16.5521 117.435 16.3904 116.555 16.0621C115.675 15.7388 114.913 15.1901 114.277 14.4209L116.34 12.378C116.672 12.8973 117.112 13.299 117.65 13.5881C118.192 13.8771 118.764 14.0192 119.37 14.0192C119.688 14.0192 120.005 13.9751 120.323 13.8869C120.641 13.7987 120.929 13.6665 121.193 13.4901C121.452 13.3137 121.662 13.0884 121.823 12.814C121.985 12.5397 122.063 12.2261 122.063 11.8734C122.063 11.2953 121.882 10.8544 121.52 10.5408C121.159 10.2322 120.709 9.96762 120.176 9.75206C119.639 9.5365 119.057 9.33564 118.422 9.13967C117.786 8.9486 117.2 8.68405 116.662 8.35091C116.13 8.01777 115.68 7.57685 115.318 7.02324C114.957 6.46964 114.776 5.72497 114.776 4.79414C114.776 3.98088 114.937 3.2803 115.265 2.68751C115.592 2.09471 116.017 1.6048 116.545 1.21287C117.073 0.820938 117.674 0.531889 118.353 0.335924C119.033 0.144858 119.727 0.046875 120.435 0.046875C121.247 0.046875 122.029 0.174253 122.786 0.424108C123.544 0.673964 124.228 1.09039 124.834 1.66359L122.835 3.82901Z" fill="#222222"/>
<path d="M119.301 16.6032C118.348 16.6032 117.414 16.4366 116.529 16.1133C115.645 15.7899 114.873 15.2314 114.232 14.4573L114.203 14.4231L114.237 14.3888L116.344 12.3017L116.378 12.3556C116.705 12.8602 117.14 13.262 117.673 13.5461C118.206 13.8303 118.778 13.9723 119.374 13.9723C119.687 13.9723 120.004 13.9282 120.312 13.8401C120.62 13.7519 120.908 13.6196 121.167 13.4481C121.422 13.2718 121.627 13.0513 121.783 12.7867C121.935 12.5222 122.013 12.2135 122.013 11.8706C122.013 11.3121 121.837 10.8761 121.49 10.5772C121.133 10.2735 120.689 10.0089 120.161 9.79827C119.638 9.58761 119.046 9.38184 118.411 9.19078C117.776 8.99971 117.179 8.73026 116.642 8.39712C116.104 8.05908 115.645 7.60836 115.283 7.04986C114.917 6.49135 114.731 5.73199 114.731 4.79135C114.731 3.9732 114.897 3.25792 115.225 2.66023C115.552 2.06744 115.987 1.56282 116.52 1.17089C117.048 0.778962 117.663 0.480115 118.343 0.289049C119.027 0.0979827 119.731 0 120.439 0C121.255 0 122.052 0.127378 122.81 0.377233C123.572 0.631988 124.266 1.05331 124.877 1.63141L124.911 1.66571L124.877 1.7L122.839 3.89481L122.805 3.84092C122.521 3.4245 122.14 3.11095 121.666 2.91499C121.192 2.71902 120.684 2.62104 120.156 2.62104C119.843 2.62104 119.535 2.66023 119.247 2.72882C118.958 2.80231 118.695 2.91499 118.46 3.07666C118.225 3.23343 118.04 3.44409 117.903 3.69395C117.761 3.9438 117.693 4.24755 117.693 4.59049C117.693 5.1049 117.869 5.50173 118.216 5.77118C118.572 6.04553 119.022 6.29049 119.55 6.49625C120.082 6.70202 120.669 6.90288 121.304 7.09395C121.94 7.28501 122.536 7.55937 123.074 7.89741C123.611 8.24035 124.071 8.70086 124.432 9.26426C124.799 9.83256 124.984 10.5968 124.984 11.5326C124.984 12.3801 124.828 13.1297 124.525 13.7617C124.222 14.3937 123.807 14.9277 123.289 15.3441C122.77 15.7605 122.164 16.079 121.48 16.2847C120.781 16.5003 120.053 16.6032 119.301 16.6032ZM114.34 14.428C114.961 15.1677 115.708 15.7017 116.564 16.0202C117.438 16.3435 118.357 16.5052 119.301 16.5052C120.043 16.5052 120.757 16.4023 121.431 16.1965C122.101 15.9908 122.697 15.6821 123.205 15.2755C123.709 14.8689 124.119 14.3496 124.418 13.7323C124.716 13.115 124.867 12.3801 124.867 11.5473C124.867 10.6311 124.686 9.88645 124.334 9.33775C123.978 8.78415 123.533 8.33343 123.005 8.00029C122.477 7.66225 121.891 7.39769 121.26 7.20663C120.625 7.01556 120.034 6.8147 119.501 6.60403C118.963 6.39827 118.509 6.14841 118.142 5.86426C117.771 5.57522 117.58 5.15389 117.58 4.60519C117.58 4.24265 117.654 3.92421 117.805 3.65965C117.952 3.3951 118.147 3.17954 118.396 3.01297C118.641 2.8464 118.914 2.72392 119.217 2.65043C119.516 2.57695 119.828 2.53775 120.151 2.53775C120.689 2.53775 121.211 2.64063 121.695 2.8415C122.164 3.03746 122.551 3.34121 122.839 3.74784L124.76 1.6804C124.168 1.1317 123.499 0.729971 122.766 0.485014C122.018 0.235158 121.231 0.107781 120.429 0.107781C119.731 0.107781 119.037 0.205764 118.362 0.391931C117.693 0.582997 117.092 0.872046 116.569 1.25908C116.051 1.64611 115.625 2.13602 115.303 2.71902C114.985 3.30202 114.824 4.00259 114.824 4.80115C114.824 5.71729 115.005 6.45706 115.357 7.00086C115.713 7.54467 116.158 7.99049 116.686 8.31383C117.219 8.64207 117.805 8.90663 118.431 9.09769C119.071 9.29366 119.662 9.49942 120.19 9.71008C120.728 9.92565 121.182 10.1951 121.549 10.5037C121.92 10.8222 122.111 11.2827 122.111 11.8706C122.111 12.2331 122.028 12.5614 121.866 12.8406C121.705 13.115 121.49 13.3501 121.221 13.5314C120.957 13.7127 120.659 13.8499 120.337 13.938C120.014 14.0262 119.692 14.0752 119.369 14.0752C118.758 14.0752 118.167 13.9282 117.624 13.6392C117.096 13.3599 116.657 12.9631 116.329 12.4634L114.34 14.428Z" fill="#222222"/>
<path d="M128.844 0.453125H131.576V6.70442H138.75V0.453125H141.482V16.1549H138.75V9.23238H131.576V16.15H128.844V0.453125Z" fill="#222222"/>
<path d="M141.533 16.206H138.703V9.28348H131.627V16.2011H128.797V0.40625H131.627V6.65755H138.703V0.40625H141.533V16.206ZM138.801 16.1031H141.43V0.504233H138.801V6.75553H131.524V0.504233H128.895V16.1031H131.524V9.1855H138.801V16.1031Z" fill="#222222"/>
<path d="M145.172 8.37716C145.172 7.11808 145.372 5.97658 145.778 4.95266C146.184 3.92385 146.741 3.0518 147.459 2.32673C148.173 1.60166 149.028 1.04315 150.02 0.651223C151.012 0.259292 152.097 0.0633267 153.28 0.0633267C154.482 0.0486293 155.577 0.229897 156.574 0.607131C157.571 0.984364 158.431 1.53307 159.154 2.25814C159.873 2.98321 160.44 3.85526 160.845 4.87428C161.251 5.8933 161.451 7.0348 161.451 8.28897C161.451 9.51376 161.251 10.6308 160.845 11.6351C160.44 12.6394 159.873 13.5066 159.154 14.2316C158.431 14.9567 157.571 15.5201 156.574 15.9267C155.577 16.3334 154.477 16.544 153.28 16.5587C152.097 16.5587 151.007 16.3628 150.02 15.9708C149.028 15.5789 148.178 15.0253 147.459 14.3051C146.746 13.5898 146.184 12.7276 145.778 11.7233C145.372 10.7189 145.172 9.60194 145.172 8.37716ZM148.031 8.19589C148.031 9.03854 148.158 9.8175 148.412 10.523C148.666 11.2334 149.023 11.8457 149.482 12.3651C149.947 12.8844 150.499 13.2861 151.144 13.5849C151.784 13.8789 152.503 14.0259 153.299 14.0259C154.096 14.0259 154.819 13.8789 155.469 13.5849C156.119 13.291 156.676 12.8844 157.141 12.3651C157.6 11.8457 157.962 11.2334 158.211 10.523C158.465 9.8126 158.592 9.03854 158.592 8.19589C158.592 7.41203 158.465 6.68206 158.211 6.00108C157.962 5.3201 157.6 4.7273 157.141 4.21779C156.676 3.70828 156.119 3.30655 155.469 3.01751C154.819 2.72846 154.096 2.58638 153.299 2.58638C152.503 2.58638 151.784 2.72846 151.144 3.01751C150.499 3.30655 149.947 3.70338 149.482 4.21779C149.023 4.7273 148.661 5.325 148.412 6.00108C148.158 6.68206 148.031 7.41693 148.031 8.19589Z" fill="#222222"/>
<path d="M153.278 16.6032C152.095 16.6032 150.991 16.4023 149.999 16.0104C149.006 15.6184 148.137 15.055 147.423 14.3349C146.705 13.6196 146.138 12.7427 145.732 11.7334C145.326 10.7291 145.121 9.59251 145.121 8.36772C145.121 7.10864 145.326 5.95245 145.732 4.92363C146.138 3.89481 146.705 3.00807 147.423 2.2781C148.137 1.55303 149.006 0.984726 149.999 0.592795C150.991 0.200865 152.095 0 153.278 0C153.322 0 153.366 0 153.41 0C154.558 0 155.629 0.186167 156.591 0.548703C157.588 0.925937 158.463 1.48444 159.192 2.21441C159.915 2.93948 160.487 3.82622 160.892 4.84524C161.298 5.86916 161.503 7.02046 161.503 8.27954C161.503 9.50922 161.298 10.6409 160.892 11.6452C160.487 12.6545 159.915 13.5314 159.192 14.2565C158.463 14.9865 157.588 15.5597 156.596 15.9614C155.59 16.3778 154.475 16.5885 153.278 16.6032ZM153.41 0.102882C153.366 0.102882 153.322 0.102882 153.278 0.102882C152.105 0.102882 151.01 0.298847 150.033 0.685879C149.05 1.07291 148.195 1.63141 147.491 2.34669C146.783 3.06196 146.226 3.9438 145.825 4.95792C145.424 5.97694 145.219 7.12334 145.219 8.36772C145.219 9.58271 145.424 10.7046 145.82 11.6991C146.221 12.6937 146.783 13.5559 147.487 14.2663C148.19 14.9718 149.046 15.5303 150.028 15.9173C151.01 16.3043 152.1 16.5003 153.273 16.5003C154.461 16.4856 155.565 16.2749 156.548 15.8732C157.53 15.4715 158.395 14.9081 159.113 14.1879C159.827 13.4726 160.394 12.6055 160.795 11.611C161.195 10.6164 161.396 9.49452 161.396 8.27954C161.396 7.03516 161.19 5.89366 160.79 4.88444C160.389 3.87522 159.822 3.00317 159.108 2.283C158.39 1.56772 157.53 1.01412 156.548 0.641787C155.604 0.289049 154.544 0.102882 153.41 0.102882ZM153.297 14.0752C152.496 14.0752 151.768 13.9233 151.123 13.6294C150.478 13.3305 149.911 12.919 149.446 12.3948C148.982 11.8755 148.62 11.2484 148.366 10.538C148.112 9.82766 147.985 9.0389 147.985 8.19135C147.985 7.40259 148.112 6.65792 148.366 5.97694C148.62 5.29596 148.987 4.68847 149.446 4.17896C149.915 3.66455 150.478 3.25793 151.123 2.96888C151.768 2.67983 152.501 2.53285 153.297 2.53285C154.099 2.53285 154.832 2.67983 155.487 2.96888C156.137 3.25793 156.704 3.66455 157.173 4.17896C157.637 4.69337 158.004 5.30086 158.253 5.97694C158.507 6.66282 158.639 7.40749 158.639 8.19135C158.639 9.034 158.512 9.82277 158.253 10.538C158.004 11.2484 157.637 11.8706 157.173 12.3948C156.709 12.9141 156.142 13.3305 155.487 13.6294C154.832 13.9233 154.094 14.0752 153.297 14.0752ZM153.297 2.63573C152.511 2.63573 151.792 2.77781 151.162 3.06196C150.531 3.34611 149.974 3.74294 149.52 4.24755C149.065 4.75216 148.708 5.34496 148.459 6.01614C148.21 6.68732 148.083 7.41729 148.083 8.19135C148.083 9.02421 148.21 9.80317 148.459 10.5037C148.708 11.2043 149.065 11.8167 149.52 12.3262C149.974 12.8357 150.531 13.2424 151.162 13.5314C151.797 13.8205 152.511 13.9723 153.297 13.9723C154.084 13.9723 154.803 13.8254 155.443 13.5314C156.083 13.2424 156.64 12.8357 157.095 12.3262C157.554 11.8118 157.911 11.1994 158.155 10.5037C158.405 9.80317 158.532 9.02421 158.532 8.19135C158.532 7.41729 158.405 6.68732 158.155 6.01614C157.906 5.34986 157.549 4.75216 157.095 4.24755C156.635 3.74294 156.083 3.34611 155.443 3.06196C154.808 2.77781 154.084 2.63573 153.297 2.63573Z" fill="#222222"/>
<path d="M165.133 0.453125H170.294C171.032 0.453125 171.745 0.526612 172.429 0.673586C173.114 0.82056 173.72 1.07042 174.238 1.41825C174.756 1.76609 175.176 2.23151 175.484 2.81451C175.792 3.39751 175.948 4.12748 175.948 4.99952C175.948 5.98915 175.782 6.78771 175.45 7.3952C175.117 8.00269 174.668 8.47301 174.106 8.80615C173.544 9.13929 172.889 9.36465 172.146 9.48223C171.403 9.59981 170.626 9.6586 169.815 9.6586H167.865V16.1549H165.133V0.453125ZM169.512 7.25802C169.903 7.25802 170.308 7.24333 170.724 7.21393C171.144 7.18454 171.53 7.09635 171.882 6.94938C172.234 6.8024 172.522 6.58194 172.747 6.2831C172.972 5.98915 173.084 5.57272 173.084 5.03872C173.084 4.5537 172.982 4.16177 172.781 3.87762C172.581 3.58857 172.317 3.36811 171.999 3.21134C171.682 3.05457 171.33 2.95658 170.939 2.91249C170.548 2.8684 170.172 2.8439 169.81 2.8439H167.86V7.25802H169.512Z" fill="#222222"/>
<path d="M167.916 16.206H165.086V0.40625H170.296C171.029 0.40625 171.752 0.479737 172.441 0.626711C173.13 0.778584 173.746 1.02844 174.269 1.37628C174.797 1.72902 175.222 2.20423 175.535 2.79213C175.848 3.38003 176.004 4.12469 176.004 5.00164C176.004 6.00106 175.833 6.81432 175.501 7.42181C175.163 8.0342 174.709 8.51432 174.137 8.84746C173.57 9.1806 172.906 9.41086 172.158 9.52844C171.415 9.64602 170.628 9.70481 169.817 9.70481H167.916V16.206ZM165.184 16.1031H167.813V9.60683H169.812C170.613 9.60683 171.395 9.54804 172.133 9.43046C172.866 9.31288 173.521 9.08752 174.078 8.75928C174.631 8.43103 175.075 7.96562 175.403 7.36792C175.73 6.77513 175.897 5.97657 175.897 4.99674C175.897 4.13939 175.74 3.40942 175.437 2.83622C175.134 2.26302 174.719 1.7976 174.206 1.45956C173.692 1.11662 173.091 0.871668 172.412 0.724694C171.728 0.57772 171.009 0.504233 170.286 0.504233H165.179V16.1031H165.184ZM169.514 7.31403H167.818V2.79703H169.817C170.178 2.79703 170.56 2.82152 170.951 2.86562C171.347 2.90971 171.708 3.01259 172.031 3.16936C172.358 3.33103 172.627 3.55639 172.832 3.85034C173.038 4.14429 173.145 4.54602 173.145 5.04083C173.145 5.58464 173.028 6.01086 172.798 6.31461C172.568 6.61345 172.27 6.84371 171.913 6.99559C171.552 7.14746 171.156 7.23564 170.736 7.26504C170.31 7.29933 169.905 7.31403 169.514 7.31403ZM167.916 7.21115H169.514C169.9 7.21115 170.31 7.19645 170.726 7.16706C171.136 7.13766 171.522 7.04948 171.869 6.9074C172.216 6.76533 172.5 6.54487 172.715 6.25582C172.93 5.97167 173.042 5.56504 173.042 5.04573C173.042 4.57052 172.945 4.18838 172.749 3.90913C172.554 3.62988 172.3 3.41432 171.987 3.26245C171.674 3.11057 171.322 3.01259 170.941 2.9685C170.555 2.92441 170.174 2.89991 169.822 2.89991H167.921V7.21115H167.916Z" fill="#222222"/>
<path d="M49.6767 31.7287C49.5545 32.4587 49.2515 33.027 48.7628 33.4238C48.2985 33.8059 47.7267 34.0019 47.0376 34.0019C46.2703 34.0019 45.6251 33.7374 45.1022 33.2131C44.7796 32.8898 44.5695 32.4783 44.4766 31.9737C44.4229 31.6797 44.3984 31.1359 44.3984 30.3472C44.3984 29.5584 44.4278 29.0195 44.4766 28.7206C44.5695 28.216 44.7796 27.7996 45.1022 27.4763C45.6251 26.9521 46.2703 26.6875 47.0376 26.6875C47.7267 26.6875 48.3131 26.8835 48.7872 27.2705C49.2613 27.6624 49.5594 28.2209 49.6767 28.9558H48.2594C48.0883 28.2748 47.6876 27.9368 47.0522 27.9368C46.627 27.9368 46.3045 28.0936 46.0748 28.412C45.8939 28.6668 45.8011 29.3085 45.8011 30.3423C45.8011 30.9008 45.806 31.2486 45.8206 31.3907C45.8646 31.8414 45.977 32.1696 46.153 32.3705C46.3729 32.6204 46.671 32.7428 47.0522 32.7428C47.6925 32.7428 48.0932 32.4048 48.2594 31.7238H49.6767V31.7287Z" fill="#222222"/>
<path d="M57.555 33.937H52.9023V26.75H54.305V32.6878H57.5599V33.937H57.555Z" fill="#222222"/>
<path d="M65.2338 33.937H60.5078V26.75H65.2338V28.0042H61.9105V29.6895H64.7402V30.9388H61.9105V32.6878H65.2338V33.937Z" fill="#222222"/>
<path d="M73.9589 33.9419H72.4976L72.0724 32.6682H69.5213L69.0863 33.9419H67.625L70.2348 26.75H71.3344L73.9589 33.9419ZM71.701 31.4875L70.8262 28.8713L69.922 31.4875H71.701Z" fill="#222222"/>
<path d="M81.9425 33.937H80.6914L77.8519 29.5278V33.937H76.4492V26.75H77.7004L80.5399 31.1543V26.75H81.9425V33.937Z" fill="#222222"/>
<path d="M94.7772 31.8696C94.7772 32.5212 94.5768 33.0307 94.1712 33.3932C93.7704 33.7558 93.2377 33.937 92.5828 33.937H89.582V26.75H92.4655C93.1595 26.75 93.6971 26.9313 94.093 27.2987C94.484 27.6612 94.6843 28.1561 94.6843 28.7733C94.6843 29.1359 94.5817 29.4641 94.3813 29.7532C94.2151 29.9834 94.0197 30.15 93.7948 30.2578C94.4449 30.5615 94.7772 31.1004 94.7772 31.8696ZM93.2768 28.8272C93.2768 28.5774 93.1986 28.3814 93.0324 28.2295C92.8712 28.0777 92.6415 28.0042 92.3482 28.0042H90.9798V29.6601H92.3482C92.6415 29.6601 92.8712 29.5866 93.0324 29.4347C93.1937 29.278 93.2768 29.082 93.2768 28.8272ZM93.3745 31.7961C93.3745 31.5414 93.2963 31.3307 93.1302 31.1641C92.9689 31.0025 92.7392 30.9192 92.4362 30.9192H90.9749V32.6878H92.4362C92.7392 32.6878 92.9689 32.6045 93.1302 32.433C93.2963 32.2664 93.3745 32.0509 93.3745 31.7961Z" fill="#222222"/>
<path d="M102.742 33.937H98.0156V26.75H102.742V28.0042H99.4183V29.6895H102.248V30.9388H99.4183V32.6878H102.742V33.937Z" fill="#222222"/>
<path d="M111.264 33.9419H109.802L109.377 32.6682H106.826L106.391 33.9419H104.93L107.539 26.75H108.639L111.264 33.9419ZM109.006 31.4875L108.131 28.8713L107.227 31.4875H109.006Z" fill="#222222"/>
<path d="M118.927 31.4728C118.927 32.2174 118.673 32.8298 118.169 33.2952C117.666 33.7656 117.035 34.0007 116.288 34.0007C115.535 34.0007 114.909 33.7656 114.406 33.2952C113.903 32.8298 113.648 32.2174 113.648 31.4728V26.75H115.051V31.4287C115.051 31.8402 115.163 32.1586 115.383 32.3987C115.603 32.6339 115.906 32.7514 116.288 32.7514C116.669 32.7514 116.977 32.6339 117.197 32.3987C117.421 32.1635 117.534 31.8402 117.534 31.4287V26.75H118.922V31.4728H118.927Z" fill="#222222"/>
<path d="M126.717 27.9993H124.845V33.937H123.442V27.9993H121.57V26.75H126.717V27.9993Z" fill="#222222"/>
<path d="M134.363 26.75L132.207 30.9927V33.9419H130.819V30.9927L128.664 26.75H130.184L131.523 29.6503L132.843 26.75H134.363Z" fill="#222222"/>
</g>
<defs>
<clipPath id="clip0_2500_3450">
<rect width="176" height="34" fill="white"/>
</clipPath>
</defs>
</svg>
