<svg width="150" height="60" viewBox="0 0 150 60" fill="none" xmlns="http://www.w3.org/2000/svg">
<path d="M147.94 59.5328C148.21 59.5901 148.476 59.4176 148.533 59.1475L149.468 54.7456C149.525 54.4754 149.352 54.21 149.082 54.1526C148.812 54.0953 148.547 54.2678 148.489 54.5379L147.659 58.4508L143.746 57.6202C143.476 57.5629 143.21 57.7354 143.153 58.0055C143.096 58.2756 143.268 58.5411 143.538 58.5984L147.94 59.5328ZM0.159896 4.67688L0.320298 5.15045C14.17 0.459485 41.0263 -1.36786 69.4274 5.68155C97.8133 12.7272 127.681 28.6246 147.625 59.3161L148.044 59.0437L148.463 58.7712C128.347 27.8139 98.2306 11.8004 69.6683 4.711C41.1213 -2.37461 14.0656 -0.560953 -0.000506066 4.20331L0.159896 4.67688Z" fill="#222222"/>
</svg>
