<svg width="60" height="60" viewBox="0 0 60 60" fill="none" xmlns="http://www.w3.org/2000/svg">
<rect width="60" height="60" rx="30" fill="white"/>
<path d="M21.9993 40.7831H25.4797C25.9335 40.7831 26.3845 40.8371 26.8244 40.945L30.5019 41.8387C31.2998 42.0331 32.1311 42.052 32.9373 41.8954L37.0033 41.1043C38.0774 40.8951 39.0655 40.3808 39.8398 39.6275L42.7165 36.8291C43.5381 36.0313 43.5381 34.7368 42.7165 33.9376C41.9769 33.2181 40.8056 33.1371 39.9689 33.7473L36.6161 36.1933C36.136 36.5443 35.5518 36.7333 34.9509 36.7333H31.7133L33.7741 36.7332C34.9356 36.7332 35.8765 35.818 35.8765 34.6881V34.279C35.8765 33.3409 35.2201 32.5228 34.2848 32.296L31.1041 31.5225C30.5865 31.397 30.0564 31.3335 29.5235 31.3335C28.2371 31.3335 25.9085 32.3986 25.9085 32.3986L21.9993 34.0334M16.666 33.4669L16.666 41.2002C16.666 41.9469 16.666 42.3203 16.8113 42.6055C16.9392 42.8564 17.1431 43.0604 17.394 43.1882C17.6792 43.3335 18.0526 43.3335 18.7993 43.3335H19.866C20.6128 43.3335 20.9861 43.3335 21.2713 43.1882C21.5222 43.0604 21.7262 42.8564 21.854 42.6055C21.9993 42.3203 21.9993 41.9469 21.9993 41.2002V33.4669C21.9993 32.7201 21.9993 32.3467 21.854 32.0615C21.7262 31.8107 21.5222 31.6067 21.2713 31.4788C20.9861 31.3335 20.6128 31.3335 19.866 31.3335H18.7993C18.0526 31.3335 17.6792 31.3335 17.394 31.4788C17.1431 31.6067 16.9392 31.8106 16.8113 32.0615C16.666 32.3467 16.666 32.7201 16.666 33.4669ZM36.9212 18.7899C36.1254 17.1247 34.2908 16.2426 32.5066 17.094C30.7224 17.9455 29.9623 19.9647 30.7093 21.7373C31.171 22.8328 32.4937 24.9602 33.4368 26.4256C33.7853 26.967 33.9595 27.2377 34.214 27.3961C34.4323 27.5319 34.7056 27.6052 34.9625 27.5967C35.2621 27.5868 35.5484 27.4394 36.1209 27.1448C37.6703 26.3473 39.8795 25.1663 40.8271 24.4484C42.3603 23.2867 42.7401 21.1516 41.5922 19.5285C40.4443 17.9054 38.4429 17.7457 36.9212 18.7899Z" stroke="#222222" stroke-width="2" stroke-linecap="round" stroke-linejoin="round"/>
</svg>
