<svg width="306" height="11" viewBox="0 0 306 11" fill="none" xmlns="http://www.w3.org/2000/svg">
<path d="M294.667 5.33325C294.667 8.27877 297.055 10.6666 300 10.6666C302.946 10.6666 305.333 8.27877 305.333 5.33325C305.333 2.38773 302.946 -8.15392e-05 300 -8.15392e-05C297.055 -8.15392e-05 294.667 2.38773 294.667 5.33325ZM0 5.33325V6.33325H1.97368V5.33325V4.33325H0V5.33325ZM5.92105 5.33325V6.33325H9.86842V5.33325V4.33325H5.92105V5.33325ZM13.8158 5.33325V6.33325H17.7632V5.33325V4.33325H13.8158V5.33325ZM21.7105 5.33325V6.33325H25.6579V5.33325V4.33325H21.7105V5.33325ZM29.6053 5.33325V6.33325H33.5526V5.33325V4.33325H29.6053V5.33325ZM37.5 5.33325V6.33325H41.4474V5.33325V4.33325H37.5V5.33325ZM45.3947 5.33325V6.33325H49.3421V5.33325V4.33325H45.3947V5.33325ZM53.2895 5.33325V6.33325H57.2368V5.33325V4.33325H53.2895V5.33325ZM61.1842 5.33325V6.33325H65.1316V5.33325V4.33325H61.1842V5.33325ZM69.0789 5.33325V6.33325H73.0263V5.33325V4.33325H69.0789V5.33325ZM76.9737 5.33325V6.33325H80.921V5.33325V4.33325H76.9737V5.33325ZM84.8684 5.33325V6.33325H88.8158V5.33325V4.33325H84.8684V5.33325ZM92.7631 5.33325V6.33325H96.7105V5.33325V4.33325H92.7631V5.33325ZM100.658 5.33325V6.33325H104.605V5.33325V4.33325H100.658V5.33325ZM108.553 5.33325V6.33325H112.5V5.33325V4.33325H108.553V5.33325ZM116.447 5.33325V6.33325H120.395V5.33325V4.33325H116.447V5.33325ZM124.342 5.33325V6.33325H128.289V5.33325V4.33325H124.342V5.33325ZM132.237 5.33325V6.33325H136.184V5.33325V4.33325H132.237V5.33325ZM140.132 5.33325V6.33325H144.079V5.33325V4.33325H140.132V5.33325ZM148.026 5.33325V6.33325H151.974V5.33325V4.33325H148.026V5.33325ZM155.921 5.33325V6.33325H159.868V5.33325V4.33325H155.921V5.33325ZM163.816 5.33325V6.33325H167.763V5.33325V4.33325H163.816V5.33325ZM171.711 5.33325V6.33325H175.658V5.33325V4.33325H171.711V5.33325ZM179.605 5.33325V6.33325H183.553V5.33325V4.33325H179.605V5.33325ZM187.5 5.33325V6.33325H191.447V5.33325V4.33325H187.5V5.33325ZM195.395 5.33325V6.33325H199.342V5.33325V4.33325H195.395V5.33325ZM203.289 5.33325V6.33325H207.237V5.33325V4.33325H203.289V5.33325ZM211.184 5.33325V6.33325H215.132V5.33325V4.33325H211.184V5.33325ZM219.079 5.33325V6.33325H223.026V5.33325V4.33325H219.079V5.33325ZM226.974 5.33325V6.33325H230.921V5.33325V4.33325H226.974V5.33325ZM234.868 5.33325V6.33325H238.816V5.33325V4.33325H234.868V5.33325ZM242.763 5.33325V6.33325H246.711V5.33325V4.33325H242.763V5.33325ZM250.658 5.33325V6.33325H254.605V5.33325V4.33325H250.658V5.33325ZM258.553 5.33325V6.33325H262.5V5.33325V4.33325H258.553V5.33325ZM266.447 5.33325V6.33325H270.395V5.33325V4.33325H266.447V5.33325ZM274.342 5.33325V6.33325H278.289V5.33325V4.33325H274.342V5.33325ZM282.237 5.33325V6.33325H286.184V5.33325V4.33325H282.237V5.33325ZM290.132 5.33325V6.33325H294.079V5.33325V4.33325H290.132V5.33325ZM298.026 5.33325V6.33325H300V5.33325V4.33325H298.026V5.33325Z" fill="#556F30"/>
</svg>
