<svg width="496" height="375" viewBox="0 0 496 375" fill="none" xmlns="http://www.w3.org/2000/svg">
<path d="M148.538 26.1041L148.32 25.6537L148.538 26.1041ZM495.034 86.0338C495.31 86.024 495.526 85.7923 495.516 85.5163L495.356 81.0191C495.346 80.7432 495.114 80.5274 494.838 80.5373C494.562 80.5471 494.347 80.7788 494.357 81.0548L494.499 85.0522L490.501 85.1947C490.226 85.2045 490.01 85.4362 490.02 85.7121C490.029 85.9881 490.261 86.2039 490.537 86.194L495.034 86.0338ZM14.5351 374.819L15.013 374.671C2.3424 333.521 -6.17554 266.715 9.45889 200.083C25.0888 133.47 64.8524 67.0396 148.755 26.5544L148.538 26.1041L148.32 25.6537C64.1013 66.2917 24.1721 133 8.48533 199.854C-7.1969 266.69 1.34471 333.679 14.0573 374.966L14.5351 374.819ZM148.538 26.1041L148.755 26.5544C216.831 -6.29423 290.155 -3.71097 353.062 13.2256C415.976 30.1641 468.412 61.4436 494.676 85.9L495.016 85.5341L495.357 85.1682C468.96 60.5873 416.374 29.2355 353.322 12.26C290.263 -4.71732 216.678 -7.33046 148.32 25.6537L148.538 26.1041Z" fill="white" fill-opacity="0.8"/>
</svg>
