<svg width="32" height="42" viewBox="0 0 32 42" fill="none" xmlns="http://www.w3.org/2000/svg">
<path d="M2 25.2492C2 23.3985 2.34591 21.5821 2.93396 19.8343C3.90252 16.7841 5.42453 14.0766 7.25786 11.472C9.33333 8.5246 11.7201 5.8514 14.3836 3.41811C14.9025 2.93831 15.4214 2.80122 16.044 3.38384C18.0503 5.23451 19.9528 7.15373 21.6478 9.31285C22.2704 10.1011 22.8931 10.9236 23.4811 11.7461C23.7925 12.1574 23.7579 12.6029 23.4119 12.9799C22.9623 13.494 22.2358 13.494 21.7862 12.9114C21.4057 12.4316 21.0597 11.9175 20.7138 11.4377C19.1226 9.38139 17.4277 7.4279 15.4906 5.64577C15.3176 5.47442 15.1792 5.40587 14.9717 5.64577C12.9654 7.59926 11.0975 9.65557 9.43711 11.9175C7.74214 14.2137 6.28931 16.6127 5.25157 19.2859C4.3522 21.6507 3.79874 24.1182 4.11006 26.6886C4.3522 28.6078 5.00943 30.3557 6.15094 31.9322C7.43082 33.7486 9.12579 35.0509 11.2013 35.8392C13.0346 36.5589 14.9371 36.7645 16.8742 36.4561C19.3302 36.1133 21.4403 35.0166 23.1698 33.3031C24.4497 32.035 25.3491 30.5613 25.9025 28.8477C26.6635 26.4487 26.5943 24.084 26.0063 21.6849C25.8679 21.1023 26.2138 20.554 26.8711 20.3826C27.3208 20.2798 27.9088 20.6911 28.0126 21.1709C28.4969 23.0901 28.6698 25.0778 28.4277 27.0313C28.0472 30.013 26.7673 32.5833 24.6226 34.7082C23.066 36.2504 21.2673 37.3471 19.1918 37.9983C17.3585 38.5809 15.456 38.718 13.5535 38.4781C11.1321 38.1696 8.98742 37.2443 7.08491 35.7706C4.97484 34.1256 3.52201 32.035 2.65723 29.5332C2.24214 28.3337 2 26.8257 2 25.2492Z" fill="#222222"/>
<path d="M29.4657 14.3175C29.3273 14.5574 29.2582 14.8315 29.0852 15.0029C27.9783 16.1339 26.8368 17.2306 25.6953 18.3615C22.6858 21.3432 19.711 24.3248 16.7015 27.2722C16.1135 27.8548 15.5946 27.8548 15.0412 27.2722C13.0695 25.3187 11.1324 23.3995 9.16067 21.446C8.84935 21.1375 8.71098 20.7948 8.88394 20.3836C9.05689 19.9723 9.36822 19.7324 9.8179 19.6638C10.1638 19.6296 10.406 19.8009 10.6481 20.0408C12.0317 21.4117 13.45 22.7826 14.8336 24.1534C15.1104 24.4276 15.4217 24.7018 15.6984 25.0102C15.8368 25.1816 15.9405 25.1473 16.1135 25.0102C18.1198 23.0225 20.1607 21.0004 22.167 19.0127C23.9311 17.2648 25.6953 15.517 27.4594 13.7691C27.667 13.5635 27.9437 13.3236 28.2204 13.255C28.8085 13.0837 29.5349 13.6663 29.4657 14.2489C29.4311 14.2832 29.4311 14.3175 29.4657 14.3175Z" fill="#222222"/>
</svg>
