<svg width="48" height="42" viewBox="0 0 48 42" fill="none" xmlns="http://www.w3.org/2000/svg">
<path d="M28.5901 28.0869C28.4518 28.4982 28.348 28.9094 28.2442 29.2521C27.6216 29.2521 26.9989 29.1836 26.4109 29.2864C25.9266 29.355 25.4423 29.5263 25.0272 29.7662C23.1247 30.8286 21.2222 30.8629 19.2851 29.8005C17.8669 29.0122 16.5178 29.1151 15.0304 29.8005C13.8889 30.3488 13.1625 31.1028 12.8857 32.3023C12.2977 34.8384 14.2002 37.306 16.8637 37.306C20.3228 37.3403 23.782 37.306 27.2065 37.306C27.3448 37.306 27.5178 37.306 27.6908 37.306C27.6908 37.7515 27.6908 38.1628 27.6908 38.6083C27.587 38.6083 27.4832 38.6426 27.3794 38.6426C23.8857 38.6426 20.392 38.6426 16.8983 38.6426C13.7505 38.6426 11.3291 36.1065 11.4329 33.022C11.4675 31.5483 12.0901 30.3146 13.1279 29.2864C15.1688 27.2644 17.2096 25.2423 19.2505 23.2203C20.8417 21.6438 22.4329 20.033 24.0587 18.4565C24.2662 18.2509 24.3354 18.0796 24.3354 17.8054C24.3354 14.3097 24.3354 10.814 24.3354 7.35251C24.3354 7.07834 24.3008 6.90698 23.9895 6.76989C23.1939 6.35863 22.8134 5.43329 23.021 4.54223C23.2631 3.65116 24.0241 3.03427 24.9581 3C26.3417 3 27.7254 3 29.109 3C30.043 3 30.804 3.65116 31.0461 4.54223C31.2537 5.39902 30.8732 6.32436 30.0776 6.76989C29.8354 6.90698 29.7662 7.04406 29.7662 7.31824C29.7662 10.814 29.7662 14.3097 29.7662 17.8397C29.7662 18.0453 29.87 18.3195 30.0084 18.4565C31.5304 19.9988 33.087 21.5067 34.609 23.049C34.7128 23.1518 34.8165 23.2546 34.9549 23.3917C34.6436 23.7001 34.3323 24.0086 33.9864 24.317C33.8826 24.2142 33.7788 24.1457 33.675 24.0428C32.0493 22.4321 30.3889 20.787 28.7631 19.1763C28.4864 18.9021 28.3826 18.6279 28.3826 18.2509C28.3826 14.7209 28.3826 11.1567 28.3826 7.62668C28.3826 7.45532 28.3826 7.28397 28.3826 7.11261C27.4832 7.11261 26.6184 7.11261 25.6499 7.11261C25.6499 7.24969 25.6499 7.42105 25.6499 7.59241C25.6499 11.1224 25.6499 14.6867 25.6499 18.2166C25.6499 18.6279 25.5115 18.9364 25.2348 19.2105C22.4329 21.9523 19.6656 24.7283 16.8637 27.5043C16.7599 27.6071 16.587 27.7099 16.4832 27.8127C16.4832 27.847 16.5178 27.8813 16.5178 27.9155C16.6562 27.9155 16.7945 27.9155 16.9329 27.9155C17.9015 27.8813 18.8354 28.0184 19.6656 28.5324C21.2914 29.5263 22.9172 29.492 24.543 28.5324C25.7191 27.847 27.0335 27.7785 28.348 28.0869C28.4518 28.0184 28.5209 28.0526 28.5901 28.0869ZM27.0681 4.30233C26.4455 4.30233 25.7882 4.30233 25.1656 4.30233C24.6467 4.30233 24.37 4.5765 24.37 4.98776C24.37 5.39902 24.6813 5.67319 25.1656 5.67319C26.4455 5.67319 27.7254 5.67319 28.9706 5.67319C29.4549 5.67319 29.7662 5.39902 29.7662 4.98776C29.7662 4.5765 29.4549 4.3366 28.9706 4.30233C28.3134 4.30233 27.6908 4.30233 27.0681 4.30233Z" fill="#222222"/>
<path d="M15.514 11.0528C14.58 11.0528 13.7152 11.0528 12.7813 11.0528C12.7813 11.2241 12.7813 11.3612 12.7813 11.5326C12.7813 14.0344 12.7813 16.5362 12.7813 19.0723C12.7813 19.7578 12.6429 19.8949 11.9857 20.0662C8.35358 20.923 5.65547 24.076 5.34415 27.7774C5.34415 27.8802 5.37874 28.0858 5.44792 28.1201C6.24352 28.4628 7.03912 28.8741 7.86931 29.114C8.73409 29.3539 9.63346 29.1825 10.4636 28.737C10.9479 28.4971 11.3976 28.2572 11.9165 28.0173C12.0548 28.4971 12.1932 28.9083 12.3316 29.3196C11.2247 29.8337 10.2215 30.4848 8.94163 30.5534C7.69635 30.5877 6.55484 30.2792 5.37874 29.5595C6.13975 33.5693 8.42277 36.0026 12.2624 37.0993C12.1586 37.5105 12.0894 37.9218 11.9857 38.3673C10.2215 37.9903 8.6649 37.2021 7.38503 36.0369C1.53912 30.759 3.58 21.3686 11.0863 18.9353C11.3976 18.8324 11.4668 18.6954 11.4668 18.4212C11.4668 16.0564 11.4668 13.6917 11.4668 11.3269C11.4668 11.087 11.3976 10.9499 11.1555 10.8129C10.3253 10.3673 9.94478 9.44199 10.1523 8.55093C10.3945 7.65986 11.1555 7.04297 12.0894 7.04297C13.4731 7.04297 14.8221 7.04297 16.2058 7.04297C17.1397 7.04297 17.9353 7.65986 18.1429 8.55093C18.385 9.44199 18.0045 10.3673 17.1743 10.8129C16.9322 10.9499 16.863 11.0528 16.863 11.3269C16.863 13.6917 16.863 16.0907 16.863 18.4555C16.863 18.7639 16.9668 18.8667 17.2435 18.9353C18.2121 19.2094 19.1114 19.655 19.9762 20.2719C19.7341 20.6488 19.4919 20.9916 19.2844 21.2657C18.4196 20.8888 17.5894 20.4432 16.7247 20.169C15.4102 19.7921 15.5486 19.7235 15.514 18.5583C15.514 16.2278 15.514 13.863 15.514 11.5326C15.514 11.3955 15.514 11.2241 15.514 11.0528ZM14.1995 8.34529C13.5423 8.34529 12.885 8.34529 12.2624 8.34529C11.7435 8.34529 11.4668 8.61947 11.4668 9.03073C11.4668 9.44199 11.7781 9.71616 12.2624 9.71616C13.5423 9.71616 14.8221 9.71616 16.0674 9.71616C16.5517 9.71616 16.863 9.44199 16.863 9.03073C16.863 8.61947 16.5517 8.37957 16.0674 8.34529C15.4448 8.34529 14.8221 8.34529 14.1995 8.34529Z" fill="#222222"/>
<path d="M28.0719 25.7228C28.314 25.3116 28.5562 24.9688 28.7637 24.5919C29.6631 25.1059 30.5279 25.62 31.3581 26.1341C31.6694 26.3397 31.9115 26.3397 32.2229 26.1341C33.0185 25.62 33.8486 25.1745 34.6442 24.6604C35.0247 24.4205 35.3707 24.4205 35.7512 24.6604C36.5813 25.1745 37.4115 25.6543 38.2417 26.1684C38.4839 26.3397 38.6914 26.3054 38.9335 26.1684C39.7983 25.62 40.6977 25.1059 41.6317 24.5576C41.8738 24.9346 42.0813 25.3116 42.3235 25.6885C41.4587 26.2026 40.6285 26.7167 39.7637 27.1965C39.3486 27.4021 39.2103 27.642 39.2449 28.1218C39.2795 28.8758 39.2449 29.5955 39.2449 30.3495C39.2449 30.7265 39.1065 31.0007 38.7606 31.172C37.8958 31.6861 37.031 32.2002 36.1317 32.7143C35.9241 32.8513 35.8203 32.9884 35.8203 33.2283C35.8549 33.8795 35.8549 34.5307 35.8203 35.1475C35.8203 35.4217 35.9241 35.5588 36.1317 35.6616C37.031 36.1757 37.965 36.724 38.899 37.3067C38.6568 37.6837 38.4493 38.0606 38.2071 38.4719C37.3078 37.9236 36.4084 37.4095 35.5436 36.8954C35.2669 36.724 35.0593 36.724 34.7826 36.8954C33.9524 37.4095 33.1222 37.8893 32.292 38.4034C31.9461 38.609 31.6348 38.609 31.2543 38.4034C30.2512 37.7865 29.2134 37.1696 28.2103 36.587C27.8298 36.3813 27.6914 36.1072 27.6914 35.6616C27.726 34.6677 27.6914 33.7081 27.6914 32.7143C27.6914 32.3373 27.8298 32.0631 28.1757 31.8575C29.0405 31.3434 29.9052 30.8293 30.8046 30.3152C31.0468 30.1781 31.1159 30.0411 31.1159 29.7669C31.0813 29.1157 31.0813 28.4646 31.1159 27.8477C31.1159 27.6078 31.0468 27.4707 30.8392 27.3336C29.9398 26.8538 29.0059 26.2712 28.0719 25.7228ZM37.9304 28.8415C37.9304 28.4988 37.965 28.1561 37.9304 27.8477C37.9304 27.7106 37.8266 27.505 37.6883 27.4364C36.9618 26.9909 36.2354 26.5453 35.4744 26.1341C35.3361 26.0655 35.1285 26.0655 34.9901 26.1341C34.2291 26.5453 33.4681 27.0251 32.7417 27.4707C32.6379 27.5392 32.5342 27.7106 32.5342 27.8477C32.4996 28.5331 32.4996 29.2185 32.5342 29.904C32.5342 30.0411 32.6379 30.2467 32.7763 30.3152C33.5027 30.7608 34.2291 31.172 34.9556 31.6176C35.1631 31.7546 35.3361 31.7546 35.5436 31.6176C35.9587 31.3434 36.3738 31.0349 36.8581 30.8293C37.7229 30.4523 38.2071 29.8697 37.9304 28.8415ZM34.5059 34.3936C34.5059 33.8795 34.5405 33.5368 34.5059 33.1598C34.5059 33.0227 34.4021 32.8513 34.2637 32.7828C33.5373 32.3373 32.8109 31.8917 32.0499 31.4805C31.9115 31.4119 31.6694 31.4119 31.531 31.4805C30.77 31.8917 30.0436 32.3373 29.3172 32.7828C29.1788 32.8513 29.0751 33.057 29.0751 33.1941C29.0405 33.8795 29.0405 34.5307 29.0751 35.2161C29.0751 35.3874 29.2134 35.5931 29.3518 35.6616C30.0782 36.1072 30.8046 36.5527 31.531 36.9639C31.6694 37.0325 31.9115 37.0325 32.0499 36.9639C32.4996 36.724 32.9147 36.3813 33.399 36.1757C34.2983 35.7987 34.8172 35.2504 34.5059 34.3936Z" fill="#222222"/>
<path d="M27.0332 24.5234C27.0332 24.969 27.0332 25.3802 27.0332 25.8258C26.5835 25.8258 26.1684 25.8258 25.7188 25.8258C25.7188 25.4145 25.7188 24.969 25.7188 24.5234C26.1338 24.5234 26.5835 24.5234 27.0332 24.5234Z" fill="#222222"/>
<path d="M44.6738 24.5234C44.6738 24.969 44.6738 25.3802 44.6738 25.8258C44.2242 25.8258 43.8091 25.8258 43.3594 25.8258C43.3594 25.4145 43.3594 24.969 43.3594 24.5234C43.8091 24.5234 44.2242 24.5234 44.6738 24.5234Z" fill="#222222"/>
<path d="M41.2832 38.5758C40.8335 38.5758 40.4184 38.5758 39.9688 38.5758C39.9688 38.1302 39.9688 37.719 39.9688 37.2734C40.4184 37.2734 40.8335 37.2734 41.2832 37.2734C41.2832 37.719 41.2832 38.1302 41.2832 38.5758Z" fill="#222222"/>
<path d="M44.0176 38.5758C43.5679 38.5758 43.1528 38.5758 42.7031 38.5758C42.7031 38.1302 42.7031 37.719 42.7031 37.2734C43.1528 37.2734 43.5679 37.2734 44.0176 37.2734C44.0176 37.719 44.0176 38.1302 44.0176 38.5758Z" fill="#222222"/>
</svg>
