<svg width="84" height="6" viewBox="0 0 84 6" fill="none" xmlns="http://www.w3.org/2000/svg">
<path d="M-0.000651121 2.6665C-0.000651121 4.13926 1.19326 5.33317 2.66602 5.33317C4.13877 5.33317 5.33268 4.13926 5.33268 2.6665C5.33268 1.19374 4.13877 -0.00016284 2.66602 -0.00016284C1.19326 -0.00016284 -0.000651121 1.19374 -0.000651121 2.6665ZM2.66602 2.6665V3.1665H3.67738V2.6665V2.1665H2.66602V2.6665ZM5.70011 2.6665V3.1665H7.72283V2.6665V2.1665H5.70011V2.6665ZM9.74556 2.6665V3.1665H11.7683V2.6665V2.1665H9.74556V2.6665ZM13.791 2.6665V3.1665H15.8137V2.6665V2.1665H13.791V2.6665ZM17.8365 2.6665V3.1665H19.8592V2.6665V2.1665H17.8365V2.6665ZM21.8819 2.6665V3.1665H23.9047V2.6665V2.1665H21.8819V2.6665ZM25.9274 2.6665V3.1665H27.9501V2.6665V2.1665H25.9274V2.6665ZM29.9728 2.6665V3.1665H31.9956V2.6665V2.1665H29.9728V2.6665ZM34.0183 2.6665V3.1665H36.041V2.6665V2.1665H34.0183V2.6665ZM38.0637 2.6665V3.1665H40.0865V2.6665V2.1665H38.0637V2.6665ZM42.1092 2.6665V3.1665H44.1319V2.6665V2.1665H42.1092V2.6665ZM46.1547 2.6665V3.1665H48.1774V2.6665V2.1665H46.1547V2.6665ZM50.2001 2.6665V3.1665H52.2228V2.6665V2.1665H50.2001V2.6665ZM54.2456 2.6665V3.1665H56.2683V2.6665V2.1665H54.2456V2.6665ZM58.291 2.6665V3.1665H60.3138V2.6665V2.1665H58.291V2.6665ZM62.3365 2.6665V3.1665H64.3592V2.6665V2.1665H62.3365V2.6665ZM66.3819 2.6665V3.1665H68.4047V2.6665V2.1665H66.3819V2.6665ZM70.4274 2.6665V3.1665H72.4501V2.6665V2.1665H70.4274V2.6665ZM74.4728 2.6665V3.1665H76.4956V2.6665V2.1665H74.4728V2.6665ZM78.5183 2.6665V3.1665H80.541V2.6665V2.1665H78.5183V2.6665ZM82.5638 2.6665V3.1665H83.5751V2.6665V2.1665H82.5638V2.6665Z" fill="#556F30"/>
</svg>
