<svg width="84" height="6" viewBox="0 0 84 6" fill="none" xmlns="http://www.w3.org/2000/svg">
<path d="M-0.000651121 2.66699C-0.000651121 4.13975 1.19326 5.33366 2.66602 5.33366C4.13877 5.33366 5.33268 4.13975 5.33268 2.66699C5.33268 1.19423 4.13877 0.000325441 2.66602 0.000325441C1.19326 0.000325441 -0.000651121 1.19423 -0.000651121 2.66699ZM2.66602 2.66699V3.16699H3.67738V2.66699V2.16699H2.66602V2.66699ZM5.70011 2.66699V3.16699H7.72283V2.66699V2.16699H5.70011V2.66699ZM9.74556 2.66699V3.16699H11.7683V2.66699V2.16699H9.74556V2.66699ZM13.791 2.66699V3.16699H15.8137V2.66699V2.16699H13.791V2.66699ZM17.8365 2.66699V3.16699H19.8592V2.66699V2.16699H17.8365V2.66699ZM21.8819 2.66699V3.16699H23.9047V2.66699V2.16699H21.8819V2.66699ZM25.9274 2.66699V3.16699H27.9501V2.66699V2.16699H25.9274V2.66699ZM29.9728 2.66699V3.16699H31.9956V2.66699V2.16699H29.9728V2.66699ZM34.0183 2.66699V3.16699H36.041V2.66699V2.16699H34.0183V2.66699ZM38.0637 2.66699V3.16699H40.0865V2.66699V2.16699H38.0637V2.66699ZM42.1092 2.66699V3.16699H44.1319V2.66699V2.16699H42.1092V2.66699ZM46.1547 2.66699V3.16699H48.1774V2.66699V2.16699H46.1547V2.66699ZM50.2001 2.66699V3.16699H52.2228V2.66699V2.16699H50.2001V2.66699ZM54.2456 2.66699V3.16699H56.2683V2.66699V2.16699H54.2456V2.66699ZM58.291 2.66699V3.16699H60.3138V2.66699V2.16699H58.291V2.66699ZM62.3365 2.66699V3.16699H64.3592V2.66699V2.16699H62.3365V2.66699ZM66.3819 2.66699V3.16699H68.4047V2.66699V2.16699H66.3819V2.66699ZM70.4274 2.66699V3.16699H72.4501V2.66699V2.16699H70.4274V2.66699ZM74.4728 2.66699V3.16699H76.4956V2.66699V2.16699H74.4728V2.66699ZM78.5183 2.66699V3.16699H80.541V2.66699V2.16699H78.5183V2.66699ZM82.5638 2.66699V3.16699H83.5751V2.66699V2.16699H82.5638V2.66699Z" fill="#556F30"/>
</svg>
