<svg width="291" height="56" viewBox="0 0 291 56" fill="none" xmlns="http://www.w3.org/2000/svg">
<g clip-path="url(#clip0_2840_1522)">
<path d="M7.85978 4.90978H0.078125V0.746094H20.1504V4.90978H12.3769V26.6078H7.85978V4.90978Z" fill="white"/>
<path d="M12.4603 26.6832H7.78166V4.98523H0V0.660156H20.242V4.98523H12.4684V26.6832H12.4603ZM7.94327 26.5138H12.2907V4.82384H20.0642V0.82154H0.161613V4.81578H7.94327V26.5138Z" fill="white"/>
<path d="M25.0312 0.746094H29.5483V11.0423H41.4107V0.746094H45.9278V26.6078H41.4107V15.206H29.5483V26.5997H25.0312V0.746094Z" fill="white"/>
<path d="M46.0113 26.6832H41.3326V15.2815H29.6318V26.6751H24.9531V0.660156H29.6318V10.9564H41.3326V0.660156H46.0113V26.6832ZM41.4942 26.5138H45.8416V0.82154H41.4942V11.1178H29.4621V0.82154H25.1147V26.5138H29.4621V15.1201H41.4942V26.5138Z" fill="white"/>
<path d="M52.6719 0.746094H69.4796V4.90978H57.189V11.2683H68.8412V15.432H57.189V22.4441H70.1261V26.6078H52.6719V0.746094Z" fill="white"/>
<path d="M70.2059 26.6832H52.582V0.660156H69.5595V4.98523H57.2688V11.1743H68.9211V15.4993H57.2688V22.3501H70.2059V26.6832ZM52.7517 26.5138H70.0443V22.5195H57.0991V15.338H68.7514V11.3437H57.0991V4.82384H69.3898V0.82154H52.7436V26.5138H52.7517Z" fill="white"/>
<path d="M83.7422 0.746094H100.122V4.90978H88.2593V11.704H99.4429V15.8677H88.2593V26.6078H83.7422V0.746094Z" fill="white"/>
<path d="M88.3467 26.6832H83.668V0.660156H100.217V4.98523H88.3547V11.6181H99.5383V15.9432H88.3547V26.6832H88.3467ZM83.8296 26.5138H88.177V15.7818H99.3606V11.7795H88.177V4.82384H100.039V0.82154H83.8215V26.5138H83.8296Z" fill="white"/>
<path d="M114.492 0.746094H118.394L129.328 26.6078H124.164L121.796 20.6931H110.791L108.496 26.6078H103.445L114.492 0.746094ZM120.229 16.7392L116.326 6.21699L112.35 16.7392H120.229Z" fill="white"/>
<path d="M129.457 26.6874H124.116L124.091 26.6309L121.748 20.7646H110.855L108.56 26.6793H103.324L103.373 26.5663L114.435 0.65625H118.451L118.475 0.704665L129.457 26.6874ZM124.229 26.5179H129.207L118.346 0.825702H114.548L103.583 26.5179H108.455L110.75 20.6032H121.869L121.894 20.6516L124.229 26.5179ZM120.35 16.8269H112.229L116.326 5.98997L116.407 6.19977L120.35 16.8269ZM112.463 16.6574H120.108L116.318 6.45798L112.463 16.6574Z" fill="white"/>
<path d="M149.951 6.80339C149.022 5.77861 148.117 5.10079 147.244 4.75382C146.372 4.41492 145.491 4.24546 144.61 4.24546C143.293 4.24546 142.105 4.47947 141.046 4.95555C139.98 5.43163 139.067 6.08523 138.299 6.9325C137.539 7.77169 136.941 8.75613 136.529 9.86967C136.109 10.9913 135.899 12.1936 135.899 13.4847C135.899 14.8726 136.109 16.1556 136.529 17.3175C136.95 18.4875 137.539 19.4962 138.299 20.3515C139.067 21.2068 139.98 21.8685 141.046 22.3607C142.105 22.8449 143.293 23.087 144.61 23.087C145.636 23.087 146.638 22.8368 147.608 22.3365C148.578 21.8362 149.475 21.0374 150.315 19.9481L154.04 22.6512C152.893 24.257 151.495 25.427 149.846 26.1613C148.198 26.8875 146.436 27.2587 144.578 27.2587C142.622 27.2587 140.82 26.936 139.188 26.2904C137.547 25.6449 136.141 24.7331 134.954 23.5469C133.774 22.3688 132.845 20.9486 132.174 19.2945C131.503 17.6403 131.172 15.8005 131.172 13.7832C131.172 11.7094 131.503 9.82933 132.174 8.14287C132.845 6.44835 133.766 5.01203 134.954 3.8178C136.133 2.62356 137.547 1.70368 139.188 1.05814C140.828 0.41261 142.622 0.0898438 144.578 0.0898438C146.299 0.0898438 147.891 0.396472 149.361 1.0178C150.832 1.63912 152.198 2.69618 153.466 4.18091L149.951 6.80339Z" fill="white"/>
<path d="M144.569 27.3386C142.613 27.3386 140.787 27.0077 139.147 26.3622C137.506 25.7167 136.068 24.7887 134.888 23.6026C133.7 22.4245 132.763 20.9801 132.092 19.3178C131.421 17.6637 131.082 15.7916 131.082 13.7743C131.082 11.7005 131.421 9.79622 132.092 8.1017C132.763 6.40717 133.7 4.94665 134.888 3.74435C136.068 2.55011 137.506 1.61409 139.147 0.968556C140.787 0.323023 142.613 -0.0078125 144.569 -0.0078125C146.29 -0.0078125 147.914 0.306885 149.385 0.92821C150.863 1.54954 152.253 2.62274 153.522 4.10746L153.579 4.17201L153.506 4.2285L149.934 6.90746L149.886 6.85098C148.964 5.84233 148.068 5.16452 147.211 4.82562C146.354 4.48671 145.482 4.31726 144.609 4.31726C143.308 4.31726 142.12 4.55127 141.078 5.01928C140.035 5.48729 139.114 6.14089 138.363 6.97201C137.611 7.80314 137.021 8.77951 136.609 9.88498C136.197 10.9905 135.987 12.1928 135.987 13.4677C135.987 14.8394 136.197 16.1224 136.609 17.2763C137.021 18.4302 137.611 19.4389 138.363 20.2781C139.114 21.1173 140.035 21.787 141.078 22.2631C142.128 22.7392 143.308 22.9893 144.609 22.9893C145.619 22.9893 146.613 22.7392 147.567 22.2469C148.52 21.7547 149.417 20.9559 150.241 19.8746L150.29 19.8101L150.354 19.8585L154.152 22.6101L154.104 22.6746C152.956 24.2884 151.534 25.4746 149.878 26.2089C148.221 26.9674 146.435 27.3386 144.569 27.3386ZM144.569 0.169709C142.629 0.169709 140.827 0.492476 139.203 1.12994C137.579 1.7674 136.165 2.68729 135.001 3.86539C133.829 5.04348 132.908 6.49593 132.246 8.16625C131.583 9.84464 131.244 11.7328 131.244 13.7824C131.244 15.7835 131.583 17.6314 132.238 19.2694C132.9 20.9075 133.829 22.3276 134.993 23.4977C136.157 24.6596 137.571 25.5795 139.195 26.217C140.819 26.8544 142.621 27.1772 144.561 27.1772C146.403 27.1772 148.165 26.8141 149.797 26.0879C151.405 25.3778 152.787 24.232 153.91 22.6746L150.314 20.0683C149.49 21.1334 148.585 21.9242 147.631 22.4164C146.653 22.9167 145.635 23.1749 144.601 23.1749C143.276 23.1749 142.072 22.9248 141.005 22.4406C139.938 21.9484 139.001 21.2706 138.233 20.4072C137.466 19.5518 136.868 18.519 136.448 17.349C136.027 16.1789 135.817 14.8798 135.817 13.4838C135.817 12.1847 136.027 10.9582 136.448 9.83657C136.868 8.71495 137.474 7.71438 138.233 6.87519C139.009 6.02792 139.938 5.35818 141.005 4.8821C142.072 4.40602 143.284 4.16395 144.601 4.16395C145.49 4.16395 146.387 4.3334 147.268 4.68037C148.132 5.01928 149.037 5.69709 149.958 6.68959L153.344 4.15588C152.108 2.71957 150.758 1.68671 149.328 1.08152C147.874 0.476337 146.274 0.169709 144.569 0.169709Z" fill="white"/>
<path d="M160.301 0.746094H177.109V4.90978H164.818V11.2683H176.47V15.432H164.818V22.4441H177.755V26.6078H160.301V0.746094Z" fill="white"/>
<path d="M177.847 26.6832H160.223V0.660156H177.2V4.98523H164.909V11.1743H176.562V15.4993H164.909V22.3501H177.847V26.6832ZM160.392 26.5138H177.685V22.5195H164.748V15.338H176.4V11.3437H164.748V4.82384H177.038V0.82154H160.392V26.5138Z" fill="white"/>
<path d="M203.098 6.2958C202.622 5.59378 201.983 5.07736 201.183 4.74652C200.383 4.41569 199.543 4.2543 198.654 4.2543C198.129 4.2543 197.62 4.31886 197.135 4.43989C196.642 4.56093 196.206 4.75459 195.81 5.02087C195.414 5.28716 195.099 5.63413 194.864 6.0618C194.622 6.48946 194.501 6.98975 194.501 7.5788C194.501 8.45834 194.8 9.12808 195.398 9.58802C195.996 10.048 196.739 10.4514 197.62 10.7903C198.501 11.1292 199.47 11.4601 200.521 11.7748C201.571 12.0895 202.541 12.5252 203.422 13.09C204.302 13.6468 205.046 14.3892 205.644 15.3171C206.242 16.2451 206.541 17.4716 206.541 19.0047C206.541 20.3926 206.29 21.603 205.789 22.6359C205.288 23.6687 204.618 24.5321 203.769 25.2099C202.921 25.8958 201.935 26.4042 200.812 26.7431C199.688 27.082 198.509 27.2514 197.264 27.2514C195.688 27.2514 194.169 26.9851 192.715 26.4445C191.26 25.9119 190 25.0082 188.949 23.7413L192.359 20.3765C192.909 21.2318 193.636 21.8935 194.525 22.3696C195.422 22.8457 196.367 23.0797 197.369 23.0797C197.894 23.0797 198.42 23.007 198.945 22.8618C199.47 22.7166 199.947 22.4987 200.383 22.2082C200.812 21.9177 201.159 21.5465 201.426 21.0946C201.692 20.6428 201.822 20.1263 201.822 19.5454C201.822 18.5932 201.523 17.867 200.925 17.3506C200.327 16.8422 199.583 16.4065 198.703 16.0514C197.814 15.6964 196.852 15.3655 195.802 15.0428C194.751 14.7281 193.781 14.2923 192.893 13.7436C192.012 13.1949 191.268 12.4687 190.67 11.5569C190.072 10.6451 189.773 9.41857 189.773 7.88543C189.773 6.54595 190.04 5.39205 190.582 4.41569C191.123 3.43932 191.826 2.6324 192.699 1.98687C193.571 1.34133 194.565 0.865254 195.688 0.542487C196.812 0.22779 197.959 0.0664062 199.131 0.0664062C200.472 0.0664062 201.765 0.276205 203.018 0.687732C204.27 1.09926 205.401 1.78514 206.403 2.72923L203.098 6.2958Z" fill="white"/>
<path d="M197.256 27.3386C195.681 27.3386 194.137 27.0642 192.675 26.5317C191.212 25.9991 189.935 25.0792 188.877 23.8043L188.828 23.7478L188.885 23.6913L192.367 20.2539L192.424 20.3426C192.965 21.1737 193.685 21.8354 194.565 22.3034C195.446 22.7714 196.392 23.0054 197.377 23.0054C197.895 23.0054 198.42 22.9328 198.929 22.7876C199.438 22.6423 199.915 22.4245 200.343 22.142C200.763 21.8516 201.103 21.4884 201.361 21.0527C201.612 20.617 201.741 20.1086 201.741 19.5438C201.741 18.6239 201.45 17.9057 200.876 17.4135C200.286 16.9132 199.551 16.4775 198.678 16.1305C197.814 15.7835 196.836 15.4446 195.786 15.1299C194.735 14.8152 193.749 14.3714 192.86 13.8227C191.971 13.266 191.212 12.5236 190.614 11.6037C190.008 10.6838 189.701 9.43311 189.701 7.88383C189.701 6.53628 189.976 5.35818 190.517 4.37374C191.058 3.39738 191.778 2.56625 192.658 1.92072C193.531 1.27518 194.549 0.782966 195.672 0.468268C196.804 0.153571 197.967 -0.0078125 199.139 -0.0078125C200.488 -0.0078125 201.806 0.201986 203.058 0.613513C204.319 1.03311 205.466 1.72706 206.476 2.67922L206.533 2.7357L206.476 2.79219L203.107 6.40717L203.05 6.31841C202.581 5.63253 201.951 5.11611 201.167 4.79334C200.383 4.47057 199.543 4.30919 198.67 4.30919C198.153 4.30919 197.644 4.37374 197.167 4.48671C196.691 4.60775 196.254 4.79334 195.866 5.05962C195.478 5.31784 195.171 5.66481 194.945 6.07634C194.711 6.48786 194.598 6.98815 194.598 7.55299C194.598 8.40026 194.889 9.05386 195.462 9.49766C196.052 9.94954 196.796 10.353 197.668 10.6919C198.549 11.0308 199.519 11.3616 200.569 11.6763C201.62 11.991 202.606 12.4429 203.494 12.9997C204.383 13.5645 205.143 14.323 205.741 15.251C206.347 16.187 206.654 17.4458 206.654 18.987C206.654 20.383 206.395 21.6175 205.894 22.6585C205.393 23.6994 204.707 24.5789 203.85 25.2648C202.993 25.9507 201.991 26.4752 200.86 26.8141C199.705 27.1691 198.501 27.3386 197.256 27.3386ZM189.054 23.7559C190.081 24.9743 191.317 25.8539 192.731 26.3784C194.178 26.9109 195.697 27.1772 197.256 27.1772C198.484 27.1772 199.664 27.0077 200.779 26.6688C201.886 26.3299 202.872 25.8216 203.713 25.1518C204.545 24.4821 205.224 23.6268 205.717 22.6101C206.21 21.5933 206.46 20.383 206.46 19.0112C206.46 17.5023 206.161 16.2758 205.579 15.372C204.989 14.4602 204.254 13.7178 203.381 13.1691C202.509 12.6124 201.539 12.1766 200.497 11.8619C199.446 11.5472 198.468 11.2164 197.588 10.8694C196.699 10.5305 195.947 10.119 195.341 9.65098C194.727 9.1749 194.412 8.48095 194.412 7.5772C194.412 6.98008 194.533 6.45559 194.784 6.01985C195.026 5.58412 195.349 5.22907 195.761 4.95472C196.165 4.68037 196.618 4.47864 197.119 4.35761C197.612 4.23657 198.129 4.17201 198.662 4.17201C199.551 4.17201 200.416 4.34147 201.216 4.6723C201.991 4.99507 202.63 5.49536 203.107 6.1651L206.282 2.75991C205.305 1.85616 204.198 1.19449 202.985 0.791035C201.749 0.379507 200.448 0.169709 199.123 0.169709C197.967 0.169709 196.82 0.331092 195.705 0.637721C194.598 0.952418 193.604 1.4285 192.739 2.06596C191.883 2.70343 191.18 3.51034 190.646 4.47057C190.121 5.4308 189.854 6.58469 189.854 7.89997C189.854 9.4089 190.153 10.6273 190.735 11.523C191.325 12.4187 192.06 13.153 192.933 13.6856C193.814 14.2262 194.784 14.6619 195.818 14.9766C196.876 15.2994 197.854 15.6383 198.727 15.9853C199.616 16.3403 200.367 16.7841 200.973 17.2925C201.587 17.817 201.903 18.5755 201.903 19.5438C201.903 20.1409 201.765 20.6815 201.499 21.1415C201.232 21.5933 200.876 21.9807 200.432 22.2792C199.996 22.5778 199.503 22.8037 198.969 22.949C198.436 23.0942 197.903 23.1749 197.369 23.1749C196.359 23.1749 195.382 22.9328 194.485 22.4567C193.612 21.9968 192.885 21.3432 192.343 20.5201L189.054 23.7559Z" fill="white"/>
<path d="M213.031 0.746094H217.548V11.0423H229.411V0.746094H233.928V26.6078H229.411V15.206H217.548V26.5997H213.031V0.746094Z" fill="white"/>
<path d="M234.015 26.6832H229.336V15.2815H217.636V26.6751H212.957V0.660156H217.636V10.9564H229.336V0.660156H234.015V26.6832ZM229.498 26.5138H233.845V0.82154H229.498V11.1178H217.466V0.82154H213.119V26.5138H217.466V15.1201H229.498V26.5138Z" fill="white"/>
<path d="M240.023 13.7846C240.023 11.7108 240.355 9.83069 241.025 8.14423C241.696 6.44971 242.617 5.0134 243.805 3.81916C244.985 2.62492 246.399 1.70504 248.039 1.05951C249.68 0.413972 251.474 0.0912054 253.429 0.0912054C255.417 0.0669979 257.227 0.365557 258.876 0.986883C260.524 1.60821 261.946 2.51195 263.142 3.70619C264.33 4.90043 265.267 6.33674 265.938 8.01512C266.609 9.69351 266.94 11.5736 266.94 13.6393C266.94 15.6566 266.609 17.4964 265.938 19.1506C265.267 20.8047 264.33 22.233 263.142 23.4272C261.946 24.6215 260.524 25.5494 258.876 26.2192C257.227 26.8889 255.409 27.2359 253.429 27.2601C251.474 27.2601 249.672 26.9373 248.039 26.2918C246.399 25.6463 244.993 24.7344 243.805 23.5483C242.625 22.3702 241.696 20.95 241.025 19.2958C240.355 17.6416 240.023 15.8019 240.023 13.7846ZM244.751 13.486C244.751 14.8739 244.961 16.1569 245.381 17.3189C245.801 18.4889 246.391 19.4975 247.151 20.3529C247.918 21.2082 248.831 21.8699 249.898 22.3621C250.957 22.8462 252.144 23.0883 253.462 23.0883C254.779 23.0883 255.975 22.8462 257.049 22.3621C258.124 21.8779 259.045 21.2082 259.813 20.3529C260.572 19.4975 261.17 18.4889 261.583 17.3189C262.003 16.1488 262.213 14.8739 262.213 13.486C262.213 12.195 262.003 10.9926 261.583 9.87103C261.17 8.74942 260.572 7.77305 259.813 6.93386C259.045 6.09466 258.124 5.43299 257.049 4.95691C255.975 4.48083 254.779 4.24683 253.462 4.24683C252.144 4.24683 250.957 4.48083 249.898 4.95691C248.831 5.43299 247.918 6.08659 247.151 6.93386C246.391 7.77305 245.793 8.75749 245.381 9.87103C244.961 10.9926 244.751 12.203 244.751 13.486Z" fill="white"/>
<path d="M253.432 27.3386C251.476 27.3386 249.65 27.0077 248.01 26.3622C246.369 25.7167 244.931 24.7887 243.751 23.6026C242.563 22.4245 241.626 20.9801 240.955 19.3178C240.285 17.6637 239.945 15.7916 239.945 13.7743C239.945 11.7005 240.285 9.79622 240.955 8.1017C241.626 6.40717 242.563 4.94665 243.751 3.74435C244.931 2.55011 246.369 1.61409 248.01 0.968556C249.65 0.323023 251.476 -0.0078125 253.432 -0.0078125C253.505 -0.0078125 253.577 -0.0078125 253.65 -0.0078125C255.549 -0.0078125 257.319 0.298816 258.911 0.895934C260.559 1.51726 262.005 2.43714 263.209 3.63945C264.405 4.83369 265.351 6.29421 266.022 7.97259C266.692 9.65905 267.032 11.5553 267.032 13.6291C267.032 15.6544 266.692 17.5184 266.022 19.1726C265.351 20.8348 264.405 22.2792 263.209 23.4735C262.005 24.6758 260.559 25.6199 258.919 26.2815C257.254 26.9674 255.412 27.3144 253.432 27.3386ZM253.65 0.16164C253.577 0.16164 253.505 0.16164 253.432 0.16164C251.493 0.16164 249.682 0.484406 248.066 1.12187C246.442 1.75933 245.028 2.67922 243.864 3.85732C242.693 5.03542 241.772 6.48786 241.109 8.15818C240.446 9.83657 240.107 11.7248 240.107 13.7743C240.107 15.7755 240.446 17.6233 241.101 19.2614C241.763 20.8994 242.693 22.3196 243.856 23.4896C245.02 24.6516 246.434 25.5714 248.058 26.2089C249.682 26.8464 251.484 27.1691 253.424 27.1691C255.387 27.1449 257.214 26.7979 258.838 26.1363C260.462 25.4746 261.892 24.5467 263.08 23.3605C264.26 22.1824 265.197 20.7541 265.86 19.1161C266.523 17.4781 266.854 15.6302 266.854 13.6291C266.854 11.5795 266.514 9.69939 265.852 8.03714C265.189 6.3749 264.252 4.93859 263.072 3.75242C261.884 2.57432 260.462 1.6625 258.838 1.04925C257.278 0.468268 255.525 0.16164 253.65 0.16164ZM253.464 23.1749C252.139 23.1749 250.935 22.9248 249.868 22.4406C248.802 21.9484 247.864 21.2706 247.097 20.4072C246.329 19.5518 245.731 18.519 245.311 17.349C244.891 16.1789 244.681 14.8798 244.681 13.4838C244.681 12.1847 244.891 10.9582 245.311 9.83657C245.731 8.71495 246.337 7.71438 247.097 6.87519C247.872 6.02792 248.802 5.35818 249.868 4.8821C250.935 4.40602 252.147 4.16395 253.464 4.16395C254.789 4.16395 256.002 4.40602 257.084 4.8821C258.159 5.35818 259.096 6.02792 259.872 6.87519C260.64 7.72245 261.246 8.72302 261.658 9.83657C262.078 10.9663 262.296 12.1928 262.296 13.4838C262.296 14.8717 262.086 16.1709 261.658 17.349C261.246 18.519 260.64 19.5438 259.872 20.4072C259.105 21.2625 258.167 21.9484 257.084 22.4406C256.002 22.9248 254.781 23.1749 253.464 23.1749ZM253.464 4.3334C252.163 4.3334 250.975 4.5674 249.933 5.03542C248.891 5.50343 247.969 6.15703 247.218 6.98815C246.466 7.81928 245.876 8.79565 245.464 9.90112C245.052 11.0066 244.842 12.2089 244.842 13.4838C244.842 14.8556 245.052 16.1386 245.464 17.2925C245.876 18.4464 246.466 19.455 247.218 20.2942C247.969 21.1334 248.891 21.8031 249.933 22.2792C250.983 22.7553 252.163 23.0054 253.464 23.0054C254.765 23.0054 255.953 22.7634 257.012 22.2792C258.07 21.8031 258.991 21.1334 259.743 20.2942C260.502 19.4469 261.092 18.4383 261.496 17.2925C261.908 16.1386 262.119 14.8556 262.119 13.4838C262.119 12.2089 261.908 11.0066 261.496 9.90112C261.084 8.80372 260.494 7.81928 259.743 6.98815C258.983 6.15703 258.07 5.50343 257.012 5.03542C255.961 4.5674 254.765 4.3334 253.464 4.3334Z" fill="white"/>
<path d="M273.031 0.746094H281.564C282.785 0.746094 283.964 0.867131 285.096 1.10921C286.227 1.35128 287.229 1.76281 288.085 2.33572C288.942 2.90863 289.637 3.6752 290.146 4.63543C290.655 5.59566 290.914 6.79797 290.914 8.23428C290.914 9.86425 290.639 11.1795 290.089 12.1801C289.54 13.1807 288.797 13.9553 287.867 14.504C286.938 15.0527 285.855 15.4239 284.627 15.6176C283.399 15.8112 282.114 15.9081 280.772 15.9081H277.548V26.6078H273.031V0.746094ZM280.271 11.9542C280.918 11.9542 281.589 11.93 282.275 11.8815C282.97 11.8331 283.609 11.6879 284.191 11.4458C284.772 11.2037 285.249 10.8406 285.621 10.3484C285.993 9.86425 286.178 9.17837 286.178 8.29883C286.178 7.49998 286.009 6.85445 285.677 6.38644C285.346 5.91036 284.91 5.54725 284.385 5.28903C283.859 5.03082 283.277 4.86944 282.631 4.79681C281.985 4.72419 281.362 4.68385 280.764 4.68385H277.54V11.9542H280.271Z" fill="white"/>
<path d="M277.632 26.6832H272.953V0.660156H281.567C282.779 0.660156 283.975 0.781194 285.114 1.02327C286.254 1.27341 287.272 1.68494 288.137 2.25785C289.009 2.83883 289.712 3.62154 290.23 4.58984C290.747 5.55814 291.005 6.78465 291.005 8.22903C291.005 9.87514 290.722 11.2146 290.173 12.2152C289.615 13.2238 288.864 14.0146 287.918 14.5633C286.981 15.112 285.882 15.4913 284.646 15.6849C283.418 15.8786 282.117 15.9754 280.775 15.9754H277.632V26.6832ZM273.115 26.5138H277.462V15.814H280.767C282.092 15.814 283.385 15.7172 284.605 15.5236C285.817 15.3299 286.9 14.9587 287.821 14.4181C288.735 13.8774 289.47 13.1109 290.011 12.1264C290.553 11.1501 290.827 9.8348 290.827 8.22096C290.827 6.80886 290.569 5.60655 290.068 4.66246C289.567 3.71837 288.88 2.9518 288.032 2.39503C287.183 1.83019 286.189 1.42673 285.066 1.18465C283.935 0.942577 282.747 0.82154 281.551 0.82154H273.107V26.5138H273.115ZM280.274 12.0377H277.47V4.59791H280.775C281.373 4.59791 282.003 4.63825 282.65 4.71088C283.304 4.7835 283.902 4.95295 284.436 5.21116C284.977 5.47745 285.422 5.84863 285.761 6.33278C286.1 6.81693 286.278 7.4786 286.278 8.29359C286.278 9.18926 286.084 9.89128 285.704 10.3916C285.325 10.8838 284.832 11.263 284.242 11.5132C283.644 11.7633 282.989 11.9086 282.294 11.957C281.591 12.0135 280.921 12.0377 280.274 12.0377ZM277.632 11.8682H280.274C280.913 11.8682 281.591 11.844 282.278 11.7956C282.957 11.7472 283.595 11.6019 284.169 11.3679C284.743 11.1339 285.211 10.7708 285.567 10.2947C285.923 9.82673 286.108 9.15699 286.108 8.30166C286.108 7.51895 285.947 6.88955 285.624 6.42961C285.3 5.96967 284.88 5.61462 284.363 5.36448C283.846 5.11434 283.264 4.95295 282.634 4.88033C281.995 4.80771 281.365 4.76736 280.783 4.76736H277.64V11.8682H277.632Z" fill="white"/>
<path d="M79.7271 52.2563C79.5251 53.4586 79.0241 54.3946 78.216 55.0482C77.4484 55.6776 76.5029 56.0004 75.3635 56.0004C74.0949 56.0004 73.0282 55.5647 72.1636 54.7013C71.6303 54.1687 71.2828 53.4909 71.1293 52.6598C71.0404 52.1756 71 51.2799 71 49.9808C71 48.6817 71.0485 47.794 71.1293 47.3018C71.2828 46.4707 71.6303 45.7848 72.1636 45.2523C73.0282 44.3889 74.0949 43.9531 75.3635 43.9531C76.5029 43.9531 77.4726 44.2759 78.2564 44.9134C79.0402 45.5589 79.5332 46.4788 79.7271 47.6891H77.3837C77.1009 46.5675 76.4383 46.0108 75.3878 46.0108C74.6848 46.0108 74.1514 46.269 73.7717 46.7935C73.4727 47.2131 73.3191 48.2701 73.3191 49.9727C73.3191 50.8926 73.3272 51.4655 73.3515 51.6995C73.4242 52.4419 73.61 52.9825 73.901 53.3134C74.2646 53.7249 74.7575 53.9266 75.3878 53.9266C76.4464 53.9266 77.109 53.3698 77.3837 52.2482H79.7271V52.2563Z" fill="white"/>
<path d="M92.7514 55.8921H85.0586V44.0547H87.3777V53.8345H92.7594V55.8921H92.7514Z" fill="white"/>
<path d="M105.451 55.8921H97.6367V44.0547H105.451V46.1204H99.9559V48.8962H104.635V50.9538H99.9559V53.8345H105.451V55.8921Z" fill="white"/>
<path d="M119.871 55.8963H117.455L116.752 53.7983H112.534L111.815 55.8963H109.398L113.714 44.0508H115.532L119.871 55.8963ZM116.138 51.8537L114.691 47.5447L113.196 51.8537H116.138Z" fill="white"/>
<path d="M133.079 55.8921H131.01L126.315 48.6299V55.8921H123.996V44.0547H126.065L130.76 51.3089V44.0547H133.079V55.8921Z" fill="white"/>
<path d="M154.297 52.487C154.297 53.5602 153.965 54.3994 153.295 54.9965C152.632 55.5936 151.751 55.8921 150.669 55.8921H145.707V44.0547H150.475C151.622 44.0547 152.511 44.3532 153.165 44.9584C153.812 45.5556 154.143 46.3705 154.143 47.3873C154.143 47.9844 153.974 48.525 153.642 49.0011C153.367 49.3803 153.044 49.6547 152.673 49.8322C153.747 50.3325 154.297 51.2201 154.297 52.487ZM151.816 47.476C151.816 47.0645 151.687 46.7417 151.412 46.4916C151.145 46.2414 150.766 46.1204 150.281 46.1204H148.018V48.8478H150.281C150.766 48.8478 151.145 48.7267 151.412 48.4766C151.679 48.2184 151.816 47.8956 151.816 47.476ZM151.978 52.3659C151.978 51.9463 151.848 51.5994 151.574 51.325C151.307 51.0587 150.927 50.9215 150.426 50.9215H148.01V53.8345H150.426C150.927 53.8345 151.307 53.6973 151.574 53.4149C151.848 53.1406 151.978 52.7855 151.978 52.3659Z" fill="white"/>
<path d="M167.466 55.8921H159.652V44.0547H167.466V46.1204H161.971V48.8962H166.65V50.9538H161.971V53.8345H167.466V55.8921Z" fill="white"/>
<path d="M181.558 55.8963H179.142L178.439 53.7983H174.221L173.502 55.8963H171.086L175.401 44.0508H177.219L181.558 55.8963ZM177.825 51.8537L176.379 47.5447L174.884 51.8537H177.825Z" fill="white"/>
<path d="M194.231 51.8334C194.231 53.0599 193.811 54.0685 192.978 54.8351C192.146 55.6097 191.104 55.9971 189.867 55.9971C188.623 55.9971 187.589 55.6097 186.756 54.8351C185.924 54.0685 185.504 53.0599 185.504 51.8334V44.0547H187.823V51.7607C187.823 52.4386 188.009 52.963 188.373 53.3584C188.736 53.7458 189.237 53.9394 189.867 53.9394C190.498 53.9394 191.007 53.7458 191.37 53.3584C191.742 52.9711 191.928 52.4386 191.928 51.7607V44.0547H194.223V51.8334H194.231Z" fill="white"/>
<path d="M207.814 46.5264H204.719V56.3062H202.4V46.5264H199.305V44.4688H207.814V46.5264Z" fill="white"/>
<path d="M219.746 44.0547L216.183 51.0426V55.9002H213.888V51.0426L210.324 44.0547H212.837L215.051 48.8316L217.233 44.0547H219.746Z" fill="white"/>
</g>
<defs>
<clipPath id="clip0_2840_1522">
<rect width="291" height="56" fill="white"/>
</clipPath>
</defs>
</svg>
