<svg width="60" height="60" viewBox="0 0 60 60" fill="none" xmlns="http://www.w3.org/2000/svg">
<rect width="60" height="60" rx="30" fill="white"/>
<path d="M18.1026 23.9769L23.82 28.0607C24.1175 28.2732 24.2663 28.3795 24.4219 28.4039C24.5589 28.4255 24.6992 28.4038 24.8233 28.3418C24.9643 28.2714 25.074 28.1252 25.2933 27.8327L26.5015 26.2219C26.5635 26.1391 26.5945 26.0978 26.631 26.0621C26.6633 26.0304 26.6988 26.0021 26.7369 25.9777C26.7799 25.9501 26.8271 25.9291 26.9216 25.8871L32.0797 23.5946C32.2935 23.4996 32.4004 23.4521 32.481 23.3779C32.5523 23.3122 32.6085 23.2318 32.6455 23.1423C32.6874 23.041 32.6952 22.9243 32.7108 22.6908L33.0885 17.0257M32.0013 31.9998L35.4893 33.4947C35.894 33.6681 36.0963 33.7549 36.2035 33.8989C36.2976 34.0253 36.3438 34.1809 36.3341 34.3381C36.323 34.5173 36.2009 34.7005 35.9567 35.0668L34.318 37.5249C34.2022 37.6985 34.1443 37.7854 34.0678 37.8482C34.0001 37.9039 33.9221 37.9456 33.8382 37.9711C33.7435 37.9999 33.6392 37.9999 33.4304 37.9999H30.7701C30.4937 37.9999 30.3554 37.9999 30.2378 37.9536C30.1339 37.9128 30.042 37.8465 29.9704 37.7609C29.8893 37.6639 29.8456 37.5328 29.7582 37.2705L28.8077 34.419C28.7561 34.2643 28.7303 34.187 28.7236 34.1083C28.7175 34.0386 28.7225 33.9684 28.7383 33.9003C28.7562 33.8234 28.7926 33.7505 28.8656 33.6047L29.5876 32.1606C29.7343 31.8672 29.8076 31.7205 29.9206 31.6294C30.0202 31.5492 30.1407 31.4993 30.2679 31.4856C30.4122 31.4701 30.5678 31.522 30.8789 31.6257L32.0013 31.9998ZM43.3346 29.9998C43.3346 37.3636 37.3651 43.3332 30.0013 43.3332C22.6375 43.3332 16.668 37.3636 16.668 29.9998C16.668 22.636 22.6375 16.6665 30.0013 16.6665C37.3651 16.6665 43.3346 22.636 43.3346 29.9998Z" stroke="#222222" stroke-width="2" stroke-linecap="round" stroke-linejoin="round"/>
</svg>
