<svg width="60" height="60" viewBox="0 0 60 60" fill="none" xmlns="http://www.w3.org/2000/svg">
<rect width="60" height="60" rx="30" fill="white"/>
<path d="M41.3333 23.7035L30 29.9997M30 29.9997L18.6666 23.7035M30 29.9997L30 42.6665M42 35.4112V24.5884C42 24.1315 42 23.9031 41.9327 23.6994C41.8731 23.5191 41.7758 23.3537 41.6472 23.2141C41.5018 23.0563 41.3021 22.9454 40.9027 22.7235L31.036 17.242C30.6579 17.032 30.4688 16.9269 30.2686 16.8857C30.0914 16.8493 29.9086 16.8493 29.7314 16.8857C29.5312 16.9269 29.3421 17.032 28.964 17.242L19.0973 22.7235C18.6979 22.9454 18.4982 23.0563 18.3528 23.2141C18.2242 23.3537 18.1269 23.5191 18.0673 23.6994C18 23.9031 18 24.1315 18 24.5884V35.4112C18 35.8681 18 36.0965 18.0673 36.3002C18.1269 36.4804 18.2242 36.6459 18.3528 36.7855C18.4982 36.9433 18.6979 37.0542 19.0973 37.2761L28.964 42.7575C29.3421 42.9676 29.5312 43.0727 29.7314 43.1138C29.9086 43.1503 30.0914 43.1503 30.2686 43.1138C30.4688 43.0727 30.6579 42.9676 31.036 42.7575L40.9027 37.2761C41.3021 37.0542 41.5018 36.9433 41.6472 36.7855C41.7758 36.6459 41.8731 36.4804 41.9327 36.3002C42 36.0965 42 35.8681 42 35.4112Z" stroke="#222222" stroke-width="2" stroke-linecap="round" stroke-linejoin="round"/>
<path d="M36 26.6667L24 20" stroke="#222222" stroke-width="2" stroke-linecap="round" stroke-linejoin="round"/>
</svg>
