<svg width="60" height="60" viewBox="0 0 60 60" fill="none" xmlns="http://www.w3.org/2000/svg">
<rect width="60" height="60" rx="30" fill="white"/>
<path d="M32.668 23.3335H35.7843C36.1104 23.3335 36.2735 23.3335 36.4269 23.3703C36.563 23.403 36.6931 23.4569 36.8123 23.53C36.9469 23.6124 37.0622 23.7277 37.2928 23.9583L42.7098 29.3753C42.9404 29.6059 43.0557 29.7212 43.1382 29.8558C43.2113 29.9751 43.2651 30.1051 43.2978 30.2412C43.3346 30.3946 43.3346 30.5577 43.3346 30.8838V34.6668C43.3346 35.2881 43.3346 35.5987 43.2331 35.8437C43.0978 36.1704 42.8383 36.43 42.5115 36.5653C42.2665 36.6668 41.9559 36.6668 41.3346 36.6668M34.668 36.6668H32.668M32.668 36.6668V23.6002C32.668 22.1067 32.668 21.36 32.3773 20.7895C32.1217 20.2878 31.7137 19.8798 31.2119 19.6241C30.6415 19.3335 29.8948 19.3335 28.4013 19.3335H20.9346C19.4412 19.3335 18.6944 19.3335 18.124 19.6241C17.6222 19.8798 17.2143 20.2878 16.9586 20.7895C16.668 21.36 16.668 22.1067 16.668 23.6002V34.0002C16.668 35.4729 17.8619 36.6668 19.3346 36.6668M32.668 36.6668H27.3346M27.3346 36.6668C27.3346 38.876 25.5438 40.6668 23.3346 40.6668C21.1255 40.6668 19.3346 38.876 19.3346 36.6668M27.3346 36.6668C27.3346 34.4577 25.5438 32.6668 23.3346 32.6668C21.1255 32.6668 19.3346 34.4577 19.3346 36.6668M41.3346 37.3335C41.3346 39.1744 39.8423 40.6668 38.0013 40.6668C36.1604 40.6668 34.668 39.1744 34.668 37.3335C34.668 35.4925 36.1604 34.0002 38.0013 34.0002C39.8423 34.0002 41.3346 35.4925 41.3346 37.3335Z" stroke="#222222" stroke-width="2" stroke-linecap="round" stroke-linejoin="round"/>
</svg>
